<?xml version="1.0" standalone="no"?>
<!DOCTYPE svg PUBLIC "-//W3C//DTD SVG 1.1//EN" "http://www.w3.org/Graphics/SVG/1.1/DTD/svg11.dtd" >
<svg xmlns="http://www.w3.org/2000/svg">
<metadata></metadata>
<defs>
<font id="bringinregular" horiz-adv-x="626" >
<font-face units-per-em="2048" ascent="1536" descent="-512" />
<missing-glyph horiz-adv-x="471" />
<glyph unicode="Br" horiz-adv-x="2205" d="M11.5 1107q25.5 122 101 222.5t194.5 167t273 80.5q225 20 364 -33t188.5 -162.5t4.5 -268.5t-189 -351q29 6 86.5 4t120 -17.5t119.5 -47t88 -87.5q49 47 85 101.5t52 101.5q-37 25 -63.5 67t-36.5 97t0 122.5t45 143.5l180 -102q-35 -96 -43 -158.5t1 -95.5t30.5 -38 t44 12.5t43 54t26.5 90.5q10 -4 48 -15.5t79 -29t71 -37t26 -37.5q-59 -244 -69.5 -424t34.5 -279.5t151.5 -108.5t284.5 87l19 -45q-141 -84 -256 -108.5t-202 0t-146.5 94t-89 173t-30.5 237.5t29 288q-45 -20 -96 -17q-29 -57 -78 -123.5t-115 -123.5q6 -41 -4 -92.5 t-41 -114.5q-45 -92 -126.5 -166t-179 -117t-201 -51t-189.5 32t-146.5 134t-72.5 254q-174 86 -273.5 200.5t-133 239.5t-8 247zM110.5 815q20.5 -98 98.5 -185t221 -143q2 12 4 32t4 39.5t4 35.5t4 24q14 82 40 178.5t56.5 190.5t62.5 178t59 142q70 -18 111.5 -38 t63 -37.5t27.5 -31.5t4 -22q-10 -29 -37.5 -113t-59.5 -194.5t-60.5 -236.5t-36.5 -241q147 -29 279 2t239 92q-29 51 -117 75t-252 3q-18 8 -27.5 24.5t-10.5 36t4.5 39t15.5 33.5q246 338 228.5 508t-300.5 170q-164 0 -290 -51t-206.5 -131t-114.5 -180.5t-13.5 -198.5z M668 352q-2 -80 7 -141t35.5 -100t71.5 -49.5t113 12.5q61 20 117.5 59t100.5 87t70.5 100.5t26.5 99.5q-53 -29 -120.5 -48.5t-140 -28.5t-145.5 -7t-136 16z" />
<glyph unicode="yr" horiz-adv-x="1630" d="M6 681q12 196 74 427q70 -23 114 -40t69.5 -31.5t33.5 -26t6 -21.5q-39 -139 -57.5 -277.5t-19.5 -248t13.5 -175t43.5 -59.5q18 4 40.5 44t43 103.5t41 143.5t36 166t25.5 170t14 158q0 10 38 1t84 -24.5t83 -33t37 -25.5q0 -18 -3 -58t-7 -98q66 -23 122 2t87 66 q-37 25 -63.5 66.5t-37 97t0 123t44.5 143.5l181 -105q-35 -96 -43.5 -158.5t1 -94t31 -38t44 11t43 55.5t26.5 91q10 -4 48 -16t79 -28.5t70.5 -36t25.5 -37.5q-59 -246 -69.5 -426.5t34.5 -278.5t151.5 -107.5t285.5 87.5l18 -48q-213 -125 -364.5 -119.5t-239.5 108 t-111.5 284.5t21.5 413q-57 -25 -111 -14q-18 -25 -47 -49.5t-63.5 -39.5t-77.5 -18t-90 13q-6 -74 -15.5 -172t-24 -209t-36 -224.5t-51 -217t-69.5 -188.5t-93 -138q-70 -70 -141.5 -80t-128 18.5t-85 84t-13 119t86 123t215.5 93.5q10 43 21.5 96.5t23 111t20.5 116.5 t15 113q-55 -184 -120.5 -265t-125 -76t-107.5 87t-68.5 226t-8.5 340zM117 -328.5q0 -29.5 16 -44.5q14 -14 38 -11t51.5 28.5t58 79t57.5 141.5q-80 -25 -128 -59.5t-70.5 -69.5t-22.5 -64.5z" />
<glyph unicode="fr" horiz-adv-x="1714" d="M10.5 -397.5q-18.5 57.5 3 118t92 117t205.5 88.5q29 113 47.5 244t34.5 272q-63 -6 -96 -7t-49.5 10.5t-25.5 37t-27 74.5q23 -12 55 -22q27 -10 64.5 -17.5t84.5 -9.5q4 39 6.5 115.5t9.5 167t23.5 182.5t46 165.5t76.5 115.5t119 30q63 -10 99 -51t48.5 -102.5t5 -137 t-30 -155.5t-57 -158t-75.5 -143q49 10 94 21t82 24q2 -18 0 -31.5t-12 -18.5q-49 -16 -96.5 -30.5t-104.5 -28.5q-14 -129 -29.5 -248t-44.5 -250q74 23 136.5 77t112.5 126t89 156t66.5 168t44 162.5t20.5 140.5q-43 20 -73.5 62t-45 99.5t-5.5 129t46 151.5l180 -104 q-35 -96 -43 -158.5t1.5 -94.5t31 -38t44 11.5t43 55t26.5 91.5q12 -4 50 -16.5t78 -29t69.5 -36t25.5 -37.5q-57 -246 -68.5 -426t34.5 -278.5t152.5 -107.5t285.5 87l18 -47q-213 -125 -365.5 -120t-240.5 107.5t-111.5 285t21.5 413.5q-55 -25 -111 -14 q-12 -174 -59 -327t-119 -272.5t-163 -199.5t-191 -107q-41 -164 -102.5 -257t-127 -132t-129 -30.5t-107.5 44t-62.5 93zM72 -381q8 -25 30.5 -31t53 15.5t66.5 77t67 155.5q-70 -23 -115 -51.5t-69.5 -59t-31.5 -58t-1 -48.5zM641 561q61 102 92 211t39 198t0 144t-22 51 q-18 -4 -33 -45t-26 -101.5t-20 -131t-15.5 -136t-9.5 -118t-5 -72.5z" />
<glyph unicode="vr" horiz-adv-x="1511" d="M3 514q3 133 18.5 269.5t44.5 246.5q141 -43 189 -71.5t40 -47.5q-14 -39 -30.5 -113.5t-31 -166.5t-25.5 -191.5t-13 -187.5q12 45 37.5 112.5t56 145.5t65.5 160t70 155.5t66.5 131t56.5 87.5q4 2 10 3h11t16 -3q29 0 55.5 -13t22.5 -42q-8 -66 0 -116t25.5 -72.5 t41 -15t47.5 56.5q-59 57 -74.5 163.5t48.5 241.5l180 -102q-35 -96 -43 -158.5t1 -95.5t30.5 -38t44 12.5t43 54t26.5 90.5q12 -4 50 -15.5t78 -29t70 -36t25 -36.5q-59 -246 -69 -426t35 -279.5t151.5 -108.5t284.5 87l18 -45q-141 -84 -255.5 -108.5t-202 0t-146.5 94 t-89 173t-31 237.5t30 288q-90 -37 -166 8q-45 -76 -87 -83t-74.5 21.5t-51 78t-16.5 85.5q2 6 0 15q-51 -72 -104.5 -177.5t-102.5 -227.5t-90 -254t-68 -255q-6 -12 -31.5 -14t-55.5 6t-55.5 24.5t-33.5 39.5q-25 76 -35 192.5t-7 249.5z" />
<glyph unicode="jr" horiz-adv-x="1570" d="M8.5 -406.5q-18.5 56.5 3 115t92 113.5t205.5 88q31 117 52.5 269.5t36 305t22.5 287.5t8 215q49 -10 93 -20.5t78 -20.5t53.5 -20.5t19.5 -20.5q-2 -18 -5 -58t-8 -97q63 -18 117.5 4t85.5 63q-37 25 -63.5 67t-36.5 97t0 122.5t45 143.5l180 -102q-35 -96 -43 -158.5 t1 -95.5t30.5 -39t44 11.5t43 55t27.5 91.5q12 -4 50 -16.5t77.5 -29t69.5 -36t26 -37.5q-59 -246 -69.5 -426t34.5 -278.5t151.5 -107.5t284.5 87l21 -45q-143 -84 -258 -108.5t-202 0t-146.5 94t-89 173t-31 237.5t29.5 288q-57 -25 -110 -14q-18 -25 -46 -48.5t-63 -39 t-77 -19.5t-87 10q-18 -201 -43.5 -403.5t-70.5 -401.5q-41 -164 -103.5 -258t-128 -134t-129 -33.5t-108.5 40t-63.5 90zM71 -347q-1 -30 11 -46t35.5 -15.5t52.5 25.5t60.5 79t60.5 146q-78 -25 -125 -58.5t-70.5 -67t-24.5 -63.5zM471 1257q-6 92 25 205 q72 -12 116.5 -29.5t69.5 -36t33 -34.5t6 -27q-6 -68 -20.5 -155.5t-24.5 -155.5q-57 6 -96 28.5t-61.5 55.5t-34 72t-13.5 77z" />
<glyph unicode="br" horiz-adv-x="1667" d="M3 591q3 93 13 173q14 98 39 208.5t53.5 218t59.5 205t57 165.5q70 -23 112 -46.5t63.5 -45t27.5 -39t4 -25.5q-29 -106 -62.5 -224t-62.5 -241q59 78 123 111q78 41 153.5 13t133.5 -99q35 -45 54.5 -99.5t27.5 -113.5q51 -4 93 19.5t66 55.5q-37 25 -63.5 67 t-36.5 97.5t0 123t45 142.5l180 -104q-35 -96 -43 -158.5t1.5 -94.5t31 -38t44 11.5t43 55.5t26.5 91q12 -4 50 -16.5t78 -29t69.5 -35.5t25.5 -38q-59 -246 -69.5 -426t34.5 -278.5t152.5 -108.5t285.5 86l19 -45q-213 -125 -365.5 -120t-240.5 107.5t-111.5 285 t21.5 411.5q-55 -23 -111 -12q-33 -41 -89 -77t-130 -30q4 -111 -24.5 -226.5t-79 -212.5t-116 -163.5t-134.5 -81.5q-111 -23 -189 2t-130 82.5t-80.5 138t-40 173t-8.5 185.5zM248 315.5q6 -61.5 31.5 -98.5t72.5 -37q31 0 65 45t64.5 114t52 152.5t29.5 164.5t-2 148.5 t-45 104.5q-29 31 -61.5 15.5t-64.5 -60.5t-60.5 -114.5t-49 -145.5t-29.5 -151.5t-3 -137z" />
<glyph unicode="kr" horiz-adv-x="1701" d="M4 290q-4 124 7.5 260t37 277.5t58 273.5t68.5 247.5t69 201.5q70 -23 112.5 -46t64 -44.5t28 -39t2.5 -25.5q-23 -53 -48.5 -142.5t-53 -197t-53.5 -224t-47.5 -226t-36.5 -203t-19 -152.5q18 53 45.5 129t60.5 157.5t68.5 163.5t70.5 146.5t67 104.5t56 40q39 2 57.5 0 t38.5 -2q-41 -45 -77 -98q-33 -45 -69 -104.5t-65 -124.5q-6 -68 4.5 -140.5t34 -139.5t60.5 -123t84 -93q59 -47 110.5 -26.5t93 80t75.5 145.5t56.5 172t36 160.5t15.5 109.5q-43 20 -74 62t-44 99.5t-4 129t46 151.5l178 -104q-51 -145 -45 -214t36 -77t66.5 35t47.5 123 q10 -4 48 -16.5t78 -29t70.5 -36t26.5 -37.5q-59 -246 -69.5 -426t34.5 -279.5t151.5 -108.5t284.5 87l19 -45q-213 -125 -364.5 -120t-241 107.5t-112 284.5t22.5 412q-53 -23 -112 -12q-2 -27 -9.5 -93.5t-22.5 -151.5t-42 -176t-67.5 -168t-97 -128t-132.5 -53 q-82 -4 -142.5 20.5t-105.5 65.5t-76.5 95t-52.5 111q-25 -70 -50 -144.5t-52 -156.5q-4 -12 -29.5 -14t-55.5 6t-56.5 24.5t-32.5 39.5q-27 96 -31 220z" />
<glyph unicode="ur" horiz-adv-x="1810" d="M4 599q8 208 76 460q70 -23 115 -40.5t69.5 -31.5t32.5 -25.5t6 -21.5q-37 -139 -54.5 -272t-17.5 -236.5t15.5 -164t44.5 -52.5q25 6 49.5 59.5t50 133t49 176t44 186.5t38 166t29.5 117q70 -23 114 -40.5t69.5 -31.5t33.5 -25.5t6 -21.5q-72 -305 -70.5 -509t97.5 -271 q68 -49 118 -26.5t84.5 88t57 157.5t36 182t19.5 163t8 99q-43 20 -73.5 61.5t-45 98.5t-5 129t46.5 154l180 -105q-35 -96 -43 -158.5t1 -95.5t30.5 -38t44 12.5t43 54.5t26.5 90q12 -4 50 -15.5t78 -27.5t69.5 -35.5t25.5 -38.5q-59 -246 -69 -426t35 -279.5t151.5 -108.5 t284.5 87l20 -45q-213 -125 -365.5 -120t-240.5 106.5t-111.5 284t21.5 413.5q-57 -25 -111 -12q-4 -61 -9 -141t-16.5 -165t-30.5 -167t-52 -146.5t-82 -104.5t-121 -38q-80 0 -147.5 37t-114.5 106.5t-71.5 171t-18.5 232.5q-51 -268 -122 -407.5t-139.5 -171.5t-128 34 t-89 207t-21.5 349z" />
<glyph unicode="er" horiz-adv-x="1562" d="M8.5 394q-16.5 126 9 250t92 227.5t179.5 154.5q84 39 159.5 40t126 -30.5t66.5 -94t-19.5 -151t-132 -200t-268.5 -240.5q8 -127 57.5 -190.5t118 -68.5t147.5 42t148.5 141.5t120.5 230.5t64 310q-43 20 -74 61.5t-45.5 98.5t-5 129t46.5 151l180 -102 q-35 -96 -43 -158.5t1 -95.5t30.5 -38t44 12.5t43 54.5t26.5 90q12 -4 50 -16.5t78 -29t70 -35.5t26 -38q-57 -246 -68.5 -426t34.5 -278.5t152.5 -107.5t284.5 87l18 -45q-141 -84 -256.5 -108.5t-202.5 0t-146.5 94t-89.5 173t-31 237.5t30 288q-55 -25 -110 -14 q-8 -109 -36 -235t-81 -238.5t-138 -198.5t-208 -115q-131 -33 -226.5 16.5t-150.5 144.5t-71.5 221zM225 436q102 94 167 168t98.5 125t40 83t-6.5 44q-16 16 -60 -4.5t-93 -74.5t-91.5 -140t-54.5 -201z" />
<glyph unicode="hr" horiz-adv-x="1775" d="M4 290q-4 124 7.5 260t37 277.5t58 273.5t68.5 247.5t69 201.5q70 -23 112.5 -46t64 -44.5t28 -39t2.5 -25.5q-23 -53 -48.5 -142.5t-53 -197t-53.5 -224t-47.5 -226t-36.5 -203t-19 -152.5q18 53 45.5 129t60.5 157.5t68.5 163.5t70.5 146.5t67 104.5t56 40q18 0 48 -7 t56.5 -17.5t45 -22.5t16.5 -20q-39 -164 -56.5 -299.5t-12 -236.5t35 -167.5t86.5 -93.5q63 -29 110.5 1t81.5 94.5t55.5 151.5t34.5 172t19 156.5t9 104.5q-43 20 -74 61t-45.5 98.5t-5 129t46.5 151.5l180 -102q-35 -96 -43 -158.5t1 -95.5t30.5 -38t44 12.5t43 54 t26.5 90.5q12 -4 50 -15.5t78 -29t70 -36t26 -36.5q-59 -246 -69.5 -426t34.5 -279.5t152.5 -108.5t285.5 87l18 -45q-141 -84 -256.5 -108.5t-202.5 0t-146.5 94t-89.5 173t-31 237.5t30 288q-57 -25 -110 -12q-4 -63 -12.5 -145.5t-22 -167.5t-36 -166t-57 -144.5 t-83 -102t-113.5 -40.5q-102 -2 -170 40t-107.5 108.5t-58 145t-25 148.5t-4.5 119t2 57q-59 -98 -112 -255t-125 -376q-10 -12 -36 -13t-54.5 6t-53 23.5t-30.5 39.5q-27 96 -31 220z" />
<glyph unicode="rr" horiz-adv-x="1597" d="M2 1039.5q-4 95.5 49 209.5l180 -104q-35 -96 -43 -158.5t1.5 -95.5t31 -38t44 12.5t43 54t26.5 90.5q12 -4 50 -15.5t78 -28t69.5 -36t25.5 -37.5q-61 -262 -64.5 -437t31.5 -264.5t93.5 -93.5t118 74t109.5 236.5t66 398.5q-41 20 -72.5 61t-45 99.5t-4 130t46.5 151.5 l180 -104q-35 -96 -43 -158.5t1 -95.5t30.5 -38t44 12.5t43 54t26.5 90.5q10 -4 48 -15.5t78 -28t71 -36t26 -37.5q-59 -246 -69 -426t35 -279.5t151.5 -108.5t284.5 87l18 -45q-213 -125 -364.5 -120t-239.5 106.5t-111.5 283.5t21.5 414q-59 -25 -111 -12q-4 -45 -14 -121 t-27.5 -163t-45 -176t-64.5 -162t-85 -121t-110 -50q-113 -6 -190.5 55.5t-119.5 170t-46 258t29 321.5q-70 -31 -134.5 -7.5t-103.5 85t-43 157z" />
<glyph unicode="or" horiz-adv-x="1593" d="M2 433q2 116 34 226.5t96.5 203.5t162.5 145q90 47 180 45t156 -72q38 -43 63 -100q-94 37 -167.5 23.5t-129 -59.5t-92.5 -118t-55.5 -150.5t-19.5 -158.5t15.5 -141.5t50.5 -98.5t83 -31q70 8 123 63.5t87 127.5t46 148.5t0 129.5q-10 2 -18.5 3.5t-18.5 3.5 q-82 10 -104.5 52t-8 84t56.5 67.5t91 4.5q47 -20 70.5 -60t29.5 -93q53 14 92 49t62 64q-37 25 -63.5 66.5t-37 97t0 123t44.5 143.5l181 -103q-35 -96 -43 -158.5t1 -95.5t30.5 -38t44 12.5t43 54.5t26.5 90q10 -4 48 -15.5t78 -28.5t70.5 -35.5t26.5 -37.5 q-59 -246 -69.5 -426t35 -279.5t152 -108.5t284.5 87l18 -45q-141 -84 -256 -108.5t-202 0t-146 94.5t-89 173t-31 237.5t30 287.5q-57 -25 -113 -12q-14 -18 -32.5 -42t-45 -44.5t-60.5 -37.5t-77 -24q-2 -63 -15 -124.5t-28 -106.5q-25 -82 -65.5 -153.5t-97 -126 t-127 -84t-154.5 -25.5q-82 4 -137.5 66.5t-83 157.5t-25.5 211z" />
<glyph unicode="gr" horiz-adv-x="1710" d="M2 449.5q6 115.5 40 225t94.5 200t150.5 135.5q80 41 157.5 35.5t133.5 -70.5v33.5t2 31.5q49 -10 93 -21t76.5 -21.5t52 -20.5t19.5 -21q-2 -20 -5 -75.5t-9 -132.5q59 -16 112.5 7t84.5 62q-37 25 -65 67t-38 97t0 122.5t45 143.5l180 -102q-35 -96 -43 -158.5 t1.5 -95.5t31 -38t44 12.5t43 54t26.5 90.5q12 -4 50 -15.5t78 -29t69.5 -37t25.5 -37.5q-57 -244 -68.5 -424t34.5 -279.5t152.5 -108.5t284.5 87l19 -45q-143 -84 -258 -108.5t-202 0t-146.5 94t-89 173t-30.5 237.5t30 288q-57 -25 -111 -12q-18 -25 -45 -48.5t-60.5 -39 t-74.5 -20.5t-86 9q-16 -201 -41 -402.5t-70 -397.5q-41 -164 -103.5 -258.5t-128 -134.5t-129 -34.5t-108.5 40t-64.5 90t3 115t92.5 113.5t205 87q12 53 24.5 113.5t22.5 126.5q-57 -76 -133 -118t-168 -32q-72 8 -119 72.5t-67.5 162t-14.5 213zM218 -344q-1 -29 11 -45 t36 -15t52.5 25.5t60 78.5t60.5 144q-78 -25 -125 -58.5t-70.5 -67t-24.5 -62.5zM250 401.5q0 -65.5 13 -113.5t42 -63q57 -29 104.5 15.5t80 123t50 177t13.5 180.5t-30 129t-79 27q-47 -18 -82.5 -70.5t-60.5 -120.5t-38 -143.5t-13 -141z" />
<glyph unicode="dr" horiz-adv-x="1929" d="M2 449.5q6 115.5 40 225t94.5 200t150.5 135.5q82 41 162.5 35.5t134.5 -76.5q2 -2 3 -4t3 -4q18 82 38.5 165.5t43 160.5t45 145.5t43.5 119.5q70 -23 111.5 -46t63 -44.5t28 -39t4.5 -27.5q-41 -154 -90.5 -328t-79.5 -348q-4 -29 -11.5 -86.5t-11.5 -125t0 -139 t22.5 -127t52.5 -88t93 -24.5q86 12 141.5 89t89 180.5t50 215t22.5 193.5q-43 20 -73.5 61t-45 98.5t-5.5 129t46 151.5l181 -102q-35 -96 -43.5 -158.5t1 -95.5t31 -38t44 12.5t43 54t26.5 90.5q12 -4 50 -15.5t78 -29t69.5 -36t25.5 -36.5q-59 -246 -69.5 -426 t34.5 -279.5t151.5 -108.5t285.5 87l18 -45q-141 -84 -256 -108.5t-202 0t-146 94t-89 173t-31 237.5t30 288q-59 -25 -111 -12q-4 -51 -10 -127t-20.5 -160t-39 -167t-65.5 -149.5t-100.5 -109.5t-143.5 -45q-123 -4 -207 61.5t-124 184.5q-29 -63 -68 -117.5t-86 -91.5 t-102.5 -55.5t-118.5 -12.5q-72 6 -119 71.5t-67.5 162t-14.5 212zM250 403.5q0 -65.5 13 -113.5t42 -63q57 -29 104.5 14.5t79 122t47 176t12.5 179.5t-29 130t-75 28q-47 -18 -82.5 -69.5t-60.5 -119t-38 -143.5t-13 -141.5z" />
<glyph unicode="qr" horiz-adv-x="1746" d="M2 482.5q6 115.5 40 225t94.5 199.5t150.5 135q82 41 162.5 35t134.5 -78q29 -37 47 -88q12 41 25.5 76t23.5 66q70 -23 112 -46.5t63.5 -45t27.5 -39t4 -27.5q-10 -35 -20.5 -72t-20.5 -78q59 -14 111.5 10.5t80.5 61.5q-37 25 -63.5 67t-36.5 97t0 122.5t45 143.5 l180 -102q-35 -96 -43 -158.5t1 -95.5t31 -38t44.5 12.5t43 54t26.5 90.5q12 -4 50 -15.5t78 -28t69.5 -36t25.5 -37.5q-59 -246 -69.5 -426t34.5 -279.5t152.5 -108.5t285.5 87l19 -45q-143 -84 -258 -108.5t-202 0t-146.5 94t-89 173t-31 237.5t29.5 288q-57 -25 -110 -12 q-18 -25 -46 -48.5t-62.5 -40t-75.5 -20.5t-89 10q-31 -115 -61.5 -235.5t-52.5 -239.5q-25 -145 -28 -274t19.5 -225.5t70.5 -150.5t128 -50l11 -41q-133 -37 -224.5 3t-146.5 133t-76.5 229.5t-11.5 291.5q-53 -53 -116.5 -80.5t-139.5 -19.5q-72 8 -119 72.5t-67.5 162 t-14.5 213zM250 434.5q0 -65.5 13 -114t42 -62.5q55 -27 102.5 16t80 122t50 177.5t14.5 179.5t-30 128.5t-78 27.5q-47 -18 -82.5 -70.5t-60.5 -120t-38 -143t-13 -141z" />
<glyph unicode="cr" horiz-adv-x="1589" d="M1 429q-1 112 29.5 221.5t93 204.5t157.5 155q88 53 187 54t181 -44l-121 -197q-78 18 -142 -27.5t-106 -124.5t-60.5 -175.5t-6.5 -181.5t57 -143t131 -58q133 0 225.5 70.5t152 176t88 229.5t36.5 230q-43 20 -73.5 61.5t-45 98.5t-5.5 129t46 152l181 -103 q-35 -96 -43.5 -158.5t1 -95.5t31 -38t44 12.5t43 54.5t26.5 90q12 -4 50 -15.5t78 -28.5t69.5 -35.5t25.5 -37.5q-59 -246 -69.5 -426t34.5 -279.5t152.5 -108.5t286.5 87l18 -45q-141 -84 -257 -108.5t-203 0t-146.5 94t-89 173t-30.5 238t30 287.5q-57 -25 -111 -12 q-6 -92 -25.5 -190.5t-52 -190.5t-82 -174t-119 -140.5t-160.5 -88t-208 -19.5q-98 8 -164.5 69.5t-99.5 153.5t-34 204z" />
<glyph unicode="tr" horiz-adv-x="1505" d="M0 1061q14 -2 33 -6q16 -4 36.5 -7.5t49.5 -7.5q27 98 54.5 185.5t51.5 152.5q70 -23 112 -45t63.5 -43.5t27.5 -39t4 -27.5q-14 -53 -28.5 -104.5t-28.5 -100.5q57 -2 114.5 2t110.5 14l4 -90q-59 -12 -123.5 -13t-128.5 5q-18 -74 -35.5 -147.5t-27.5 -151.5 q-35 -225 -9.5 -364.5t119.5 -182.5q55 -25 106.5 0t96.5 82t83 138t65.5 168t45 174t23.5 155q-43 20 -73.5 61t-45 98.5t-5 129t45.5 151.5l181 -102q-35 -96 -43.5 -158.5t1 -95.5t31 -39t44 11.5t43 55t26.5 91.5q12 -4 50 -16.5t78 -29t69.5 -36t25.5 -37.5 q-59 -246 -69.5 -426t34.5 -278.5t153 -107.5t286 87l18 -45q-141 -84 -257 -108.5t-203 0t-146 94t-89 173t-31 237.5t30 288q-56 -24 -111 -14q-8 -102 -30.5 -221t-62.5 -228t-100.5 -194t-142.5 -119q-125 -53 -223 -20.5t-162.5 126.5t-90 236.5t-5.5 310.5 q8 72 23.5 145.5t33.5 149.5q-23 4 -42 9t-31 9q-16 4 -27 9z" />
<glyph unicode="mr" horiz-adv-x="2215" d="M2 262.5q-4 116.5 5 249.5t31.5 269.5t57.5 246.5q137 -43 183.5 -70.5t39.5 -46.5q-16 -39 -36.5 -114.5t-39 -167.5t-34.5 -191.5t-23 -187.5q18 53 46 129t61 157.5t68.5 163.5t70.5 146.5t65.5 104.5t55.5 40q20 0 49 -7t56.5 -17.5t46 -22.5t16.5 -20 q-41 -174 -59.5 -315.5t-10.5 -246.5q33 92 77 202t90 204t89 158.5t74 64.5q18 0 48 -7t56.5 -17.5t45 -22.5t16.5 -20q-59 -250 -69.5 -431.5t36.5 -279.5q35 -68 83 -85t110 36q55 49 96 136t67.5 182.5t41 184.5t18.5 140q-41 20 -73 61t-45 98.5t-4 129t46 151.5 l180 -102q-35 -96 -43 -158.5t1.5 -95.5t31 -38t44 12.5t43 54t26.5 90.5q10 -4 48 -15.5t78 -29t70.5 -36t26.5 -36.5q-59 -246 -69.5 -426t34.5 -279.5t151.5 -108.5t284.5 87l19 -45q-141 -84 -256 -108.5t-202 0t-146.5 94t-89 173t-30.5 237.5t30 288q-59 -25 -111 -12 q-4 -49 -15.5 -126t-31 -163t-47 -173t-66.5 -157q-41 -72 -95 -111.5t-114.5 -46t-120 21.5t-110.5 93q-51 63 -74.5 149.5t-32 164t-6.5 135t2 65.5q-37 -59 -61.5 -114.5t-44 -109.5t-36.5 -111.5t-40 -121.5q-10 -29 -20.5 -55.5t-23.5 -40.5t-31.5 -10t-45.5 35 q-55 61 -81.5 148t-36 169t-7.5 142.5t2 68.5q-59 -98 -112.5 -255t-124.5 -376q-6 -12 -32 -14t-54.5 6t-54 24.5t-31.5 39.5q-23 76 -27 192.5z" />
<glyph unicode="nr" horiz-adv-x="1742" d="M1 262.5q-5 116.5 4 249.5t31.5 269.5t57.5 246.5q139 -43 185.5 -70.5t39.5 -46.5q-16 -39 -36.5 -114.5t-39 -167.5t-34.5 -191.5t-23 -187.5q18 53 46 129t61 157.5t68.5 163.5t70.5 146.5t65.5 104.5t55.5 40q20 0 49 -7t56.5 -17.5t46 -22.5t16.5 -20 q-39 -160 -57.5 -293t-14.5 -234.5t32 -169t83 -96.5q61 -33 106 -3t77 95.5t52.5 153.5t32.5 174t17.5 156.5t7.5 99.5q-41 20 -73 61t-45 98.5t-4 129t46 151.5l180 -102q-35 -96 -43 -158.5t1 -95.5t30.5 -38t44.5 12.5t43 54t27 90.5q10 -4 48 -15.5t78 -29t70.5 -36 t26.5 -36.5q-59 -246 -69.5 -426t34.5 -279.5t151.5 -108.5t284.5 87l19 -45q-141 -84 -256 -108.5t-202 0t-146.5 94t-89 173t-30.5 237.5t29 288q-59 -24 -110 -12q-6 -66 -10.5 -144t-14.5 -158.5t-26.5 -157.5t-46 -140.5t-72.5 -107.5t-107 -56q-109 -23 -179.5 12 t-113.5 101.5t-62 150.5t-26.5 159.5t-6.5 130t1 62.5q-59 -98 -112.5 -255t-124.5 -376q-12 -12 -39 -14t-54.5 6t-50 24.5t-28.5 39.5q-23 76 -28 192.5z" />
<glyph unicode="ar" horiz-adv-x="1835" d="M2 447.5q6 115.5 40 225t94.5 200t150.5 135.5q82 41 162.5 35.5t134.5 -76.5q2 -4 3 -5t3 -6q6 23 12 42.5t12 41.5q70 -23 114 -40t69.5 -31.5t34 -25.5t6.5 -21q-61 -260 -66.5 -428t24 -250t83 -82t108.5 74.5t101.5 219t60.5 351.5q-43 20 -74 61t-44 98.5t-5 129 t47 151.5l178 -102q-35 -96 -43 -158.5t1.5 -95.5t31 -38t44 12.5t43 54t26.5 90.5q12 -4 50 -15.5t78 -28t70.5 -36t26.5 -37.5q-59 -246 -69.5 -426t34.5 -279.5t151.5 -108.5t284.5 87l19 -45q-141 -84 -257 -108.5t-203 0t-145.5 94t-89 173t-31.5 237.5t30 288 q-55 -25 -111 -12q-6 -74 -19.5 -171.5t-38 -193.5t-60.5 -182t-87 -137q-61 -61 -123.5 -68.5t-119 22t-100.5 87t-69 124.5q-29 -63 -67.5 -116.5t-84.5 -90t-101.5 -54t-118.5 -11.5q-72 6 -119 71.5t-67.5 162t-14.5 212zM250 401.5q0 -65.5 13 -113.5t42 -63 q43 -20 80 -0.5t66.5 65.5t50 111.5t32 135t12.5 137t-9.5 117t-33 73.5t-59.5 10q-47 -18 -82.5 -69t-60.5 -119t-38 -143.5t-13 -141z" />
<glyph unicode="ir" horiz-adv-x="1374" d="M5 612.5q-13 -186.5 22.5 -324.5t120.5 -216t219 -72q84 2 142 44t97 107.5t61.5 149.5t35 171t18.5 171t10 152q56 -8 113 12q-45 -229 -22.5 -411.5t111.5 -285t240.5 -107.5t364.5 120l-18 45q-178 -96 -285 -86t-152 108.5t-34.5 278.5t69.5 426q4 18 -26.5 37.5 t-70.5 36t-78 29t-48 16.5q-10 -80 -47 -123t-66.5 -35t-36 76.5t45.5 214.5l-179 104q-37 -80 -46 -151.5t4.5 -129t44 -99.5t73.5 -62q-4 -59 -11 -136t-20.5 -159t-34 -161t-51 -139t-73.5 -97t-101 -35q-74 12 -112.5 74.5t-48 167t9 249t61.5 320.5q2 10 -6 21.5 t-32.5 25.5t-69.5 31.5t-115 40.5q-66 -213 -79 -399.5zM168 1247q8 92 53 199q70 -23 111 -46.5t62.5 -45t27.5 -39t4 -27.5q-8 -33 -19.5 -71.5t-23.5 -78.5t-24.5 -79t-20.5 -72q-55 14 -90 42t-53.5 63.5t-24.5 75.5t-2 79z" />
<glyph unicode="pr" horiz-adv-x="1714" d="M0 -278q0 116 10 264.5t26.5 315.5t39 322.5t49.5 287.5t53 210q35 -4 78 -12t79 -20.5t58.5 -24.5t18.5 -23q-4 -10 -10.5 -29.5l-14.5 -43.5q43 47 90 71q80 41 156 13.5t131 -99.5q35 -45 55.5 -99t28.5 -114q49 -2 91 20.5t69 55.5q-37 25 -65 67t-38 97t0 122.5 t45 143.5l180 -102q-35 -96 -43 -158.5t1.5 -95.5t31 -38t44 12.5t43 54t26.5 90.5q12 -4 50 -16.5t78 -29t69.5 -36t25.5 -37.5q-57 -246 -68.5 -426t34.5 -278.5t152.5 -107.5t285.5 87l18 -45q-143 -84 -258 -108.5t-202 0t-146.5 94t-89 173t-30.5 237.5t30 288 q-55 -25 -111 -14q-31 -41 -88 -77t-131 -30q6 -127 -32 -259t-101.5 -234.5t-142 -158t-158.5 -28.5q-68 23 -113 70t-72 110q-20 -127 -32.5 -246.5t-18.5 -218t-6 -164t6 -83.5q2 -10 -22.5 -8.5t-56 13t-60.5 31t-33 43.5q-10 55 -10 171zM297 305.5q6 -61.5 30.5 -98.5 t71.5 -37q31 0 66 44t64.5 113.5t52 153.5t29.5 165t-2 148.5t-44 104.5q-29 31 -61.5 15.5t-64 -60.5t-60.5 -114.5t-49.5 -145.5t-29.5 -151.5t-3 -137z" />
<glyph unicode="lr" horiz-adv-x="1396" d="M4 439q-10 128 12 280q14 98 40 214t56.5 229.5t62.5 215t61 170.5q70 -23 111.5 -46t63 -44.5t26.5 -39t3 -27.5q-18 -76 -42.5 -164t-49 -180.5t-48.5 -184.5t-38 -178q-39 -227 -23.5 -360.5t61.5 -183.5t112.5 -25.5t129 113.5t110.5 236.5t59 342.5q-43 20 -74 62 t-45 99.5t-5 129t46 151.5l180 -104q-35 -96 -43 -158.5t1 -94.5t30.5 -38t44 11.5t43 55t26.5 91.5q12 -4 50.5 -16.5t78 -29t69.5 -36t26 -37.5q-59 -246 -69.5 -426t34.5 -278.5t151.5 -107.5t284.5 87l21 -47q-213 -125 -366 -120t-241 107.5t-111.5 284.5t21.5 414 q-57 -24 -110 -14q-4 -61 -17.5 -145.5t-35 -174.5t-54.5 -177t-78 -154.5t-103 -107.5t-132 -34q-98 8 -169 64.5t-111 151.5t-50 223z" />
<glyph unicode="wr" horiz-adv-x="1945" d="M3 514q-5 133 2 269.5t30 246.5q143 -43 192 -71.5t43 -47.5q-12 -39 -23 -113.5t-20.5 -166.5t-14.5 -191.5t-1 -187.5q14 63 48 171.5t76 224.5t87 220.5t80 161.5q143 -43 192 -71.5t43 -47.5q-12 -39 -23.5 -113.5t-20.5 -166.5t-14 -191.5t-1 -187.5 q10 45 30.5 112.5t46 145.5t56.5 160t60.5 155.5t58 131t51.5 87.5q4 2 10 3h10.5t16.5 -3q27 0 53.5 -14t24.5 -41q-8 -66 0 -116t25.5 -72.5t41 -15t47.5 56.5q-59 57 -74.5 163.5t48.5 241.5l180 -102q-35 -96 -43 -158.5t1 -95.5t30.5 -38t44 12.5t43 54t26.5 90.5 q12 -4 50 -15.5t78 -29t70 -36t26 -36.5q-59 -246 -69.5 -426t34.5 -279.5t151.5 -108.5t284.5 87l18 -45q-141 -84 -255.5 -108.5t-201.5 0t-146.5 94t-89.5 173t-31 237.5t30 288q-90 -37 -166 8q-47 -78 -89 -84t-73.5 23.5t-50 81t-14.5 88.5q-47 -72 -93 -176.5 t-87 -226.5t-73 -251t-50 -252q-8 -12 -34 -14t-55.5 6t-56 24.5t-34.5 39.5q-23 55 -37.5 133t-23.5 168t-11 189.5t4 195.5q-35 -78 -68.5 -168t-62.5 -186.5t-51.5 -194.5t-36.5 -193q-6 -12 -31.5 -14t-55.5 6t-57.5 24.5t-35.5 39.5q-29 76 -46.5 192.5t-22.5 249.5z " />
<glyph unicode="Cr" horiz-adv-x="1935" d="M1 566q-3 124 24.5 255t83 251t139.5 222.5t196 171.5q74 47 150 67.5t147 16.5q117 -4 195 -59t112.5 -131t23.5 -159t-72.5 -143.5t-174 -84t-282.5 17.5q131 16 220 57.5t141 91.5t69.5 105t6.5 101.5t-50 75t-99 28.5q-98 -2 -184 -65.5t-153.5 -165t-113.5 -228.5 t-64.5 -256t-6 -248.5t60.5 -206.5t135 -130.5t218 -16.5q115 23 198 93.5t141 168t92 213t50 230.5q-31 29 -51 70.5t-26.5 94t4 115t43.5 129.5l180 -102q-35 -96 -43 -158.5t1 -95.5t30.5 -38t44 12.5t43 54t26.5 90.5q10 -4 48 -15.5t79 -29t70.5 -37t25.5 -37.5 q-59 -244 -69.5 -424t35 -279.5t152 -108.5t284.5 87l18 -45q-141 -84 -255.5 -108.5t-202 0t-146.5 94t-89 173t-31 237.5t30 288q-39 -16 -75 -16.5t-68 12.5q-29 -152 -91.5 -292t-156.5 -251t-219 -182.5t-279 -85.5q-127 -12 -223 29.5t-159.5 122.5t-96.5 190.5 t-36 233.5z" />
<glyph unicode="Dr" horiz-adv-x="2304" d="M13.5 862q-27.5 125 2 249t104.5 224.5t186.5 167t246.5 76.5q188 16 332.5 -30t246 -135t163 -210t83 -255t5 -271t-67.5 -260q51 23 98 56.5t87 81.5t71 109.5t49 139.5q-43 20 -75 61t-45 99.5t-5 130t47 151.5l178 -102q-35 -96 -43 -158.5t1.5 -95.5t31 -38t45 12.5 t43 54t27.5 90.5q10 -4 48 -15.5t78 -29t70.5 -36t26.5 -36.5q-59 -246 -69.5 -426t34.5 -279.5t151.5 -108.5t284.5 87l19 -45q-141 -84 -257 -108.5t-203 0t-145.5 94t-89 173t-31.5 237.5t30 288q-45 -18 -86 -17q-18 -86 -57.5 -153.5t-90.5 -117.5t-113.5 -86 t-130.5 -58q-68 -135 -177 -232.5t-263 -130.5q-109 -25 -190.5 -1t-138 82.5t-87 143t-37.5 185.5q-172 86 -266 201.5t-121.5 240.5zM93.5 1002.5q-19.5 -95.5 7 -190.5t101 -181t201.5 -144q2 12 4.5 32t4.5 39.5t4 36.5t4 26q14 82 39.5 178t56.5 190t62.5 178t60.5 142 q70 -18 112 -38t63.5 -37t26.5 -31.5t3 -22.5q-8 -29 -34 -114t-56.5 -196.5t-59 -235.5t-43.5 -235q63 -18 137 -28q63 -10 143.5 -14.5t168.5 5.5q35 98 50 214t5 232t-46 221.5t-102.5 184t-166 122.5t-234.5 36q-147 -10 -255.5 -63.5t-173 -132t-84 -174zM643 332 q-2 -72 7 -129.5t36 -93t71 -46t111 12.5q70 23 124 89.5t93 160.5q-41 -6 -97 -9.5t-117.5 -3.5t-122 4.5t-105.5 14.5z" />
<glyph unicode="Er" horiz-adv-x="1787" d="M1 447.5q5 97.5 43 189.5t107.5 171t172.5 128q-88 78 -118 166t-14.5 171t70.5 153.5t136 113.5t179.5 51t202.5 -32q55 -23 95 -74t44.5 -106.5t-36.5 -100.5t-148 -55q43 57 64.5 113.5t15.5 99.5t-44 70.5t-114 27.5q-74 0 -130 -29.5t-88.5 -80t-39 -116t20 -138 t89 -147.5t167.5 -142q-86 -6 -163 -55.5t-136.5 -124t-94 -165t-35.5 -178.5t39 -165.5t130 -126.5q55 -29 126.5 -21t146.5 49t146.5 111.5t125 166t83 211t19.5 246.5q-33 27 -55.5 69t-29.5 96.5t3 118t43 134.5l180 -102q-35 -96 -43 -158.5t1 -95.5t30.5 -38 t44.5 12.5t43 54t27 90.5q12 -4 50 -15.5t78 -29t69.5 -36t25.5 -36.5q-59 -246 -69.5 -426t34.5 -279.5t151.5 -108.5t284.5 87l21 -45q-141 -84 -257 -108.5t-203 0t-146.5 94t-89 173t-31 237.5t29.5 288q-59 -25 -112 -12q0 -59 -17.5 -152.5t-58.5 -194t-106.5 -195.5 t-162 -160.5t-223 -89.5t-290.5 22q-100 27 -165 92t-94.5 150t-24.5 182.5z" />
<glyph unicode="Gr" horiz-adv-x="2025" d="M2 655q6 125 39 251t92 237q74 139 163 222t180 121t179 36t162 -33q102 -43 152.5 -107.5t56.5 -135t-27.5 -135t-100.5 -107.5t-162 -53.5t-210 28.5q84 4 155 37t122 81t81.5 104t34 107.5t-24.5 89.5t-89 48q-66 12 -132.5 -18.5t-123.5 -83t-102.5 -117 t-69.5 -119.5q-29 -70 -52.5 -160t-37 -188t-14.5 -196.5t16.5 -182.5t55.5 -148.5t101 -93.5q80 -39 139.5 -11t100.5 95.5t66.5 160.5t40 188.5t19.5 180.5t5 132q49 -10 93 -20.5t78 -20.5t53.5 -20.5t19.5 -20.5q-10 -195 -32.5 -394.5t-61.5 -392.5q68 66 129 163 t107 208t73 226.5t24 217.5q-33 27 -55 69t-29.5 95.5t3 117t45.5 134.5l178 -102q-35 -96 -43 -158.5t1 -95.5t30.5 -38t44 12.5t43 54t26.5 90.5q12 -4 50 -15.5t78 -29t70 -36t25 -36.5q-57 -246 -68 -426t35 -279.5t152.5 -108.5t284.5 87l18 -45 q-141 -84 -256.5 -108.5t-203 0t-145.5 94t-89 173t-32 237.5t30 288q-31 -14 -60.5 -16.5t-58.5 4.5q2 -113 -36 -239t-99 -243.5t-138 -217t-151 -159.5q-2 -12 -4 -23t-6 -22q-41 -164 -102.5 -258t-128 -134t-129 -34.5t-107.5 40t-64.5 90t2 115t92 113.5t206.5 87 q18 78 33.5 162t27.5 174q-29 -49 -65.5 -97.5t-81.5 -85t-99.5 -57t-117.5 -14.5q-109 10 -188 68.5t-128 149.5t-71.5 206.5t-16.5 240.5zM470 -367.5q5 -29.5 28 -38.5q16 -6 38.5 1.5t49 36t53 78.5t51.5 130q-88 -29 -137 -66.5t-68.5 -74.5t-14.5 -66.5z" />
<glyph unicode="Hr" horiz-adv-x="2058" d="M4 1290q10 76 45 131q35 57 99.5 90t136 37t139.5 -21.5t111 -82.5q39 -53 54 -121t15 -147.5t-11 -171t-30 -195.5q63 -25 124 -43t120 -33q16 121 38.5 249t43 236.5t36 183.5t17.5 89q70 -23 119 -46.5t77.5 -47t41 -42t10.5 -26.5q-27 -100 -51 -211 q-23 -94 -46.5 -208.5t-39.5 -229.5q86 -23 141 -15.5t87 30t47 56t22 68.5q-37 25 -63.5 67t-37 97t0 123t44.5 141l181 -102q-35 -96 -43.5 -158.5t1 -95.5t31 -38t44 12.5t43 54t26.5 90.5q12 -4 50 -15.5t78 -29t69.5 -36t25.5 -36.5q-59 -246 -69.5 -426t34.5 -279.5 t152.5 -108.5t286.5 87l18 -45q-141 -84 -257 -108.5t-203 0t-146.5 94t-89 173t-30.5 237.5t30 288q-61 -27 -125 -10q-14 -41 -41 -81t-71 -69t-105.5 -44t-143.5 -7q-10 -68 -13 -120t-3 -105q2 -131 29.5 -195.5t72.5 -84t106.5 -3.5t131.5 47q2 2 3 -15.5t1 -23.5 q-141 -78 -255 -91t-190.5 35t-114.5 157.5t-30 279.5q4 41 6 75t11 87q-14 2 -43 9t-65 17.5t-75 22.5t-69 25q-10 -41 -28.5 -127t-39 -181.5t-40 -185.5t-29.5 -139q-6 -29 -34 -46.5t-69 -24.5t-89 -5t-93 10q31 98 66.5 218t66.5 234t53.5 206t30.5 133 q-139 74 -214 160t-102.5 168.5t-17.5 158.5zM64.5 1240q9.5 -77 75.5 -168t218 -183q31 170 21 281.5t-42 176t-77 85t-88 8.5q-49 -14 -83 -68.5t-24.5 -131.5z" />
<glyph unicode="Ir" horiz-adv-x="1622" d="M0 993q104 -23 188 -24q39 150 78 271.5t105 225.5q57 66 114.5 85.5t108.5 3t91 -62.5t61.5 -106.5t18.5 -131t-38 -138t-106.5 -126t-186.5 -95.5q-31 -137 -53.5 -277t-24.5 -249q-2 -119 19.5 -185.5t60.5 -95.5q35 -25 78 6t90 97.5t92 156.5t83 183.5t64.5 178.5 t35.5 140q-53 59 -66.5 163.5t47.5 233.5l180 -102q-35 -96 -43 -158.5t1.5 -95.5t31 -38t44 12.5t43 54t26.5 90.5q12 -4 50 -16.5t78 -29t69.5 -36t25.5 -37.5q-59 -244 -69.5 -424t34.5 -279.5t151.5 -108.5t284.5 87l19 -45q-141 -84 -256 -108.5t-202 0t-146.5 94 t-89 173t-30.5 237.5t30 288q-72 -31 -140 -4q-14 -43 -42.5 -117t-68.5 -161t-89.5 -177t-102.5 -163.5t-108.5 -124t-108.5 -56.5q-168 -20 -253 98.5t-66 374.5q4 47 12 111.5t18 124.5q10 68 25 141q-29 -2 -60.5 -2h-64.5q-4 0 -10 21.5t-12.5 48t-11.5 49t-9 24.5z M457 989q98 27 155.5 80t84 112.5t25.5 115t-20 85.5q-16 25 -44.5 24t-62.5 -43t-69.5 -132t-68.5 -242z" />
<glyph unicode="Jr" horiz-adv-x="1781" d="M3 -297q5 72 34 144.5t74 144t98 134t106.5 112t98.5 77.5q18 55 35.5 141.5t32 167.5t24.5 142t10 68q-106 66 -159.5 154.5t-61.5 181t22.5 175t92 136t146.5 63.5t185 -41q39 -20 57.5 -65t23.5 -105.5t0 -128t-14 -132t-19.5 -120t-16.5 -90.5q8 -8 39 -15t70 -9 t77.5 5t61.5 27q-45 61 -51 158.5t49 218.5l180 -102q-35 -96 -43 -158.5t1 -95.5t30.5 -38t44 12.5t43 54t26.5 90.5q12 -4 50.5 -15.5t78 -29t69.5 -37t26 -37.5q-57 -244 -68.5 -424t34.5 -279.5t152.5 -108.5t284.5 87l19 -45q-141 -84 -257 -108.5t-203 0t-146.5 94 t-89 173t-31 237.5t29.5 288q-53 -23 -103 -14.5t-91 40.5q-49 -57 -133 -74.5t-166 -2.5q-33 -184 -71 -379t-87 -366t-115.5 -303t-154.5 -191q-47 -33 -93.5 -41.5t-87.5 2t-72.5 36t-49.5 60.5q-27 59 -22 131zM58 -284q-5 -46 16 -83q14 -27 41.5 -25.5t58.5 28 t63.5 78.5t61.5 132q14 45 25.5 81t20.5 71t18.5 70.5t19.5 83.5q-35 -23 -76 -61t-83 -83t-77.5 -96t-59.5 -100.5t-29 -95.5zM356 1249q0 -82 41 -165t135 -130q6 35 15.5 86.5t14.5 108.5t6 113.5t-7 100.5t-26.5 70.5t-51.5 24.5q-57 -4 -92 -65.5t-35 -143.5z" />
<glyph unicode="Mr" horiz-adv-x="2668" d="M2 261.5q-8 68.5 23.5 130t108.5 107.5t210 60q45 215 75 437.5t52 439.5q0 10 21.5 21t52 22.5t67.5 17.5t68 7t53.5 -8t24.5 -30q6 -45 16 -109.5t24.5 -137t31 -147.5t33 -142.5t31.5 -122.5t30 -88q4 -12 38.5 22.5t85 98t108.5 147.5t113.5 172t99.5 169t63 140 q6 18 28.5 17.5t52 -13t61.5 -32t58.5 -41t43 -41t14.5 -29.5q-41 -190 -70 -373q-12 -78 -24.5 -160.5t-20.5 -163.5t-12 -156t-2 -136q8 -166 39.5 -223.5t75.5 -37t94.5 101.5t94.5 188.5t74.5 225.5t36.5 214q-41 23 -70.5 64.5t-42 98t-3 127t46.5 148.5l178 -102 q-35 -96 -43 -158.5t1 -95.5t30.5 -38t45 12.5t43 54t27.5 90.5q10 -4 48 -15.5t78 -29t71 -36t27 -36.5q-59 -246 -69.5 -426t34.5 -279.5t151.5 -108.5t284.5 87l18 -45q-141 -84 -256.5 -108.5t-202.5 0t-145.5 94t-89.5 173t-32 237.5t30 288q-43 -20 -94 -17 q-2 -47 -21.5 -131t-52.5 -180t-79 -191.5t-105.5 -166t-131 -102t-153.5 -1.5q-98 37 -148.5 151t-45.5 306q2 113 14 223.5t37 261.5q-20 -18 -59.5 -71t-88.5 -115.5t-102 -124t-102.5 -99.5t-88 -42t-57.5 49q-63 172 -103 323.5t-63 249.5q-23 -150 -46 -299t-52 -297 q68 -23 88 -52t10 -103q-59 33 -121 55q-18 -80 -39.5 -150.5t-46.5 -119.5q-51 -98 -113.5 -136t-124 -33t-115.5 45t-88 97.5t-42 126zM45 308q-8 -42 1 -78.5t31.5 -63.5t51.5 -31q39 -6 73 36t58.5 100.5t41 116.5t22.5 87q-92 -4 -150.5 -28.5t-89.5 -60.5t-39 -78z " />
<glyph unicode="Pr" horiz-adv-x="2258" d="M0 164q2 6 17.5 20.5t17.5 12.5q55 -51 99 -82t84 -25t79 58.5t82 168.5q23 57 42 135t38 169q-51 27 -68.5 59.5t-8.5 63t40 54t76 31.5q16 102 29.5 196.5t23.5 168.5q10 86 20 162q0 8 17.5 21.5t52.5 23.5t88 16t127 2q-2 -12 -11 -70.5t-24.5 -147.5t-35 -200.5 t-42.5 -226.5q18 -6 38 -20.5t37.5 -28.5t29.5 -25l12 -10q94 35 158.5 104.5t95.5 156.5t26 181.5t-50.5 175.5t-131.5 140t-217 78q-119 16 -217 -33t-157.5 -138t-71.5 -205t41 -230q-39 8 -66.5 25.5t-46 35.5t-27 33.5t-10.5 23.5q-25 113 18.5 212.5t129.5 175 t202.5 122.5t242.5 56.5t248 -26.5t218 -126q84 -80 112.5 -188.5t5 -222t-96 -218t-189.5 -172.5q-35 -18 -70.5 -32.5t-72.5 -24.5q102 -117 201.5 -142.5t184.5 14.5t147.5 133t88.5 216q-39 25 -66.5 67t-37.5 97t-1 123.5t46 144.5l178 -102q-35 -96 -43 -158.5 t1 -95.5t31 -38t44.5 12.5t43 54t26.5 90.5q12 -4 50 -15.5t78 -29t70.5 -36t26.5 -36.5q-59 -246 -69.5 -426t34.5 -279.5t151.5 -108.5t284.5 87l19 -45q-141 -84 -257 -108.5t-203 0t-145.5 94t-89 173t-32 237.5t29.5 288q-61 -27 -124 -10q-25 -94 -73 -174 t-112.5 -137.5t-140.5 -87t-157 -23.5t-160.5 53t-151.5 145q-27 -2 -52.5 -2h-52.5q-16 -70 -29.5 -130t-27.5 -107q-47 -156 -114.5 -239t-151.5 -101.5t-180.5 26.5t-198.5 146zM419 728q-5 -17 6 -34.5t42 -29.5q6 31 12 60.5t10 59.5q-29 -8 -47 -23.5t-23 -32.5z M721 653l31 6q-4 4 -5.5 7.5t-5.5 7.5t-7 10t-7 10q-2 -10 -3 -20t-3 -21z" />
<glyph unicode="Sr" horiz-adv-x="1687" d="M1 275.5q-7 76.5 41 140t155.5 103.5t287.5 32q-33 47 -79 90t-84 90q-51 63 -90 134t-60.5 146.5t-23 155.5t25.5 160q20 66 61 114t94.5 78.5t116 44t127.5 11.5q98 -4 161 -51t89.5 -114t18.5 -137.5t-55.5 -118.5t-132.5 -60.5t-208 36.5q96 25 160 64t99.5 83t44 87 t-5 77t-48.5 54t-86 18q-106 -4 -160.5 -58t-69.5 -131t3 -162t57 -150q37 -61 79 -110.5t84 -97.5t80 -100.5t67 -121.5l4 -13q2 -6 4 -10q86 16 153.5 81t92.5 165q-43 20 -75 61t-46.5 99.5t-5 130t46.5 151.5l180 -102q-35 -96 -43 -158.5t1 -95.5t30.5 -38t44 12.5 t43 54t26.5 90.5q12 -4 50 -15.5t78 -29t70 -37t26 -37.5q-59 -244 -69.5 -424t34.5 -279.5t152.5 -108.5t285.5 87l18 -45q-141 -84 -256.5 -108.5t-202.5 0t-146.5 94t-89.5 173t-31 237.5t30 288q-47 -18 -88 -17q-33 -102 -108.5 -180t-190.5 -86q31 -106 16.5 -198.5 t-64.5 -163t-135 -113.5t-196 -49q-111 -8 -198 33t-135 104.5t-55 140zM104 245.5q-2 -65.5 29 -114.5t88.5 -72.5t134.5 2.5q61 20 105.5 69.5t65 112t16.5 134t-37 137.5q-141 -2 -228.5 -43t-129.5 -100.5t-44 -125z" />
<glyph unicode="Tr" horiz-adv-x="1808" d="M2 1143q-8 76 16.5 145.5t81 128t148.5 88.5q94 31 190.5 29t195.5 -20.5t203.5 -44t215 -40t229.5 -8.5t248 49q-27 -53 -62.5 -107t-89.5 -77q-53 -23 -115.5 -27t-128 3.5t-129 21.5t-120.5 29q-6 -25 -20.5 -84.5t-33 -140t-37 -175t-35 -191.5t-25.5 -188t-7 -165 q2 -170 27.5 -227.5t62.5 -38t81 100.5t84 187.5t71.5 222t46.5 205.5q-37 25 -63.5 66t-37 96t0 122.5t44.5 143.5l181 -102q-35 -96 -43 -158.5t1 -95.5t30.5 -38t44 12.5t43 54t26.5 90.5q12 -4 50 -15.5t78 -29t69.5 -37t25.5 -37.5q-59 -244 -69.5 -424t35 -279.5 t152 -108.5t284.5 87l20 -45q-141 -84 -257 -108.5t-203 0t-146 94t-89 173t-31 237.5t30 288q-53 -25 -109 -14q-10 -70 -36.5 -162t-64.5 -187.5t-84 -183.5t-99.5 -151.5t-109.5 -93t-111 -5.5q-94 39 -142.5 159t-40.5 308q2 61 15.5 144t33 171.5t42 178.5t45 167.5 t42 136t31.5 87.5q-78 25 -150.5 50.5t-138 38.5t-124 8t-105.5 -40q-76 -55 -87 -136t35 -155.5t147.5 -129t248.5 -56.5q8 0 -3 -21.5t-39 -46t-71 -41t-98 -6.5q-90 16 -154.5 64.5t-101.5 113t-45 140.5z" />
<glyph unicode="Ur" horiz-adv-x="2215" d="M2 1223q0 98 52 174t128 114.5t160 35.5t147.5 -59t92 -174t-8.5 -306q23 8 45 16q16 6 34 10t24 6q4 2 6 -20.5t-9 -52t-41 -56t-87 -32.5q-31 -139 -51.5 -269.5t-22.5 -240.5q-2 -154 27.5 -222.5t76 -74.5t101.5 40t105 119.5t89 163.5t52 174q6 41 21 122 t33.5 179.5t40 204t39 194.5t31 149.5t15.5 72.5q70 -23 117 -46.5t75.5 -47t40 -42t8.5 -26.5q-51 -184 -92 -358q-18 -74 -34.5 -155t-29.5 -159.5t-22.5 -152.5t-9.5 -135q0 -104 16.5 -168t47.5 -97q23 -25 68.5 12.5t97 128.5t95.5 231t60 325q-43 18 -76.5 59 t-49 99.5t-7.5 131t47 156.5l178 -102q-51 -145 -45 -214t36 -78t66.5 34t47.5 123q10 -4 48 -15.5t78 -29t70.5 -36t26.5 -36.5q-59 -246 -69.5 -426t34.5 -279.5t151.5 -108.5t284.5 87l19 -45q-141 -84 -257 -108.5t-203 0t-145.5 94t-88 173t-30.5 237.5t30 288 q-43 -16 -76 -17q-6 -55 -27.5 -138t-54.5 -172t-75 -177t-91 -156.5t-103.5 -108.5t-109.5 -34q-94 10 -153.5 77.5t-77.5 192.5q-72 -98 -154 -163.5t-163 -92t-153.5 -15.5t-125 66.5t-80 156t-15.5 251.5q6 86 22.5 189.5t39.5 220.5q-78 16 -133.5 52t-89 83t-49 100.5 t-15.5 102.5zM65.5 1230.5q6.5 -63.5 57.5 -123.5t170 -95q16 -4 14 -4h2q27 160 20 255t-33 141t-63.5 51t-74.5 -19q-41 -29 -70 -85.5t-22.5 -120z" />
<glyph unicode="Yr" horiz-adv-x="1998" d="M3 1228q-9 75 13.5 138.5t63.5 99.5q51 47 125 68.5t143.5 18.5t119.5 -29.5t54 -75.5q2 -45 -5 -101.5t-18.5 -119t-25.5 -128t-24 -128.5q33 -10 61 -19q25 -8 50.5 -14t41.5 -10q-20 -45 -49 -62.5t-55.5 -20.5t-46 3t-23.5 6q-14 -53 -26.5 -124t-20.5 -146.5 t-10 -150.5t4 -135t21 -102.5t44 -50.5q53 -16 98.5 23t83 115.5t68.5 183t55.5 224.5t42 237t29.5 222t18.5 182t6.5 116q49 -10 93 -20.5t76.5 -20.5t52 -20.5t19.5 -20.5q-8 -166 -25.5 -345t-42 -360.5t-57 -360.5t-69.5 -345q135 41 215 138t123 219t57 254t19 245 q-41 23 -70 65t-40 98t-3 125.5t45 147.5l180 -102q-35 -96 -43 -158.5t1 -95.5t30.5 -38t44 12.5t43 54t27.5 90.5q12 -4 50 -15.5t78 -29t69.5 -36t25.5 -36.5q-57 -246 -68.5 -426t34.5 -279.5t152.5 -108.5t284.5 87l19 -45q-141 -84 -257 -108.5t-203 0t-146.5 94 t-89 173t-30.5 237.5t29 288q-43 -20 -94 -17q-8 -117 -34.5 -255t-84 -267t-149.5 -232.5t-234 -150.5l-4 -18q-43 -158 -104.5 -247t-127 -126t-128 -28.5t-105.5 43t-61 90t4.5 114t93 111.5t203.5 86q8 39 21.5 105.5t26.5 140t23.5 143.5t16.5 115q-10 -61 -38.5 -135 t-72 -138.5t-99.5 -106.5t-120 -36q-106 10 -162.5 76.5t-80 163t-20.5 209t16.5 213t29 175t17.5 97.5q-94 68 -140.5 145.5t-55.5 152.5zM73.5 1242q10.5 -52 46 -101t101.5 -86q0 -2 7.5 36.5t16.5 87t17 89.5t8 43q18 76 8 116.5t-35.5 51t-61.5 -6t-66 -51.5 q-29 -31 -40.5 -79t-1 -100zM402 -349q-1 -30 14 -46q12 -16 35.5 -14.5t52 27.5t59.5 79t60 143q-78 -25 -125 -58.5t-71 -67t-25 -63.5z" />
<glyph unicode="tt" horiz-adv-x="1132" d="M0 1217q20 -12 47 -25q23 -10 58.5 -24.5t82.5 -30.5q18 63 39 123.5t41 119.5q70 -23 112 -46t63.5 -44.5t27.5 -39t4 -27.5q-10 -37 -20.5 -74t-20.5 -76q96 -18 219 -31q29 98 56.5 185.5t50.5 152.5q70 -23 111.5 -46t63 -44.5t28 -39t4.5 -25.5q-14 -53 -26.5 -98.5 t-27.5 -96.5q35 2 76 10q35 6 80 16.5t92 26.5l10 -65q-47 -23 -96 -33t-90 -14q-49 -6 -92 -6q-18 -74 -37.5 -161t-32.5 -165q-27 -180 -16.5 -307t64 -191.5t153.5 -61.5t252 87l20 -45q-197 -115 -340 -119t-235 74q-178 -86 -307 -75t-209 98t-109.5 238.5t-7.5 346.5 q12 94 32.5 192.5t49.5 198.5q-49 16 -81 29.5t-52 23.5q-23 12 -35 23zM313 352q6 -121 47 -189.5t121 -81.5t201 36q-72 90 -97.5 235.5t-2.5 331.5q8 70 22 144.5t33 150.5q-63 8 -117.5 16.5t-101.5 18.5q-27 -94 -48.5 -186.5t-37.5 -190.5q-25 -164 -19 -285z" />
<glyph unicode="a&#x7a;" horiz-adv-x="1708" d="M2 447.5q6 115.5 40 225t94.5 200t150.5 135.5q82 41 161.5 35.5t133.5 -76.5l8 -11q4 23 10 42.5t12 41.5q70 -23 115 -40t69.5 -31.5t33 -25.5t6.5 -21q-61 -258 -66.5 -425t23 -250t82 -85t108.5 69.5t101 211t63 339.5q-47 27 -79 74t-44 105.5t-2 123t49 127.5 l180 -104q-39 -98 -39 -154.5t22.5 -82t59.5 -22.5t73 20.5t63.5 47t31.5 60.5q12 -4 41 -20.5t56.5 -37t45 -41t3.5 -30.5l-99 -152q-37 -57 -65.5 -105t-24.5 -52q139 -133 208 -280.5t59 -340.5q-12 -102 -54.5 -187t-100.5 -143.5t-127 -86t-132 -15.5q-45 8 -79 42 t-49.5 80t-8 99t43 103.5t103.5 90.5t174 60q-2 102 -45 177t-92 124t-90 73.5t-41 29.5q10 39 41 94t67.5 115.5t71.5 122t53 112.5q-63 -43 -122.5 -52t-108.5 7q-6 -76 -21.5 -169t-40 -185.5t-59.5 -172t-84 -128.5q-61 -61 -123.5 -68.5t-118 22t-100.5 86.5t-70 123 q-29 -61 -66.5 -114.5t-84.5 -90t-102.5 -54t-118.5 -11.5q-72 6 -118 71.5t-66.5 162t-14.5 212zM250 401.5q0 -65.5 13 -113.5t42 -63q43 -20 80 -0.5t65.5 65.5t49 111.5t32 135t12.5 137t-9.5 117t-33 73.5t-57.5 10q-47 -18 -82.5 -69t-60.5 -119t-38 -143.5t-13 -141z M1219.5 -296q-5.5 -32 5.5 -56q12 -31 41.5 -41t63.5 12.5t67 85.5t51 180q-78 -23 -126 -53.5t-72.5 -63t-30 -64.5z" />
<glyph unicode="b&#x7a;" horiz-adv-x="1550" d="M2 589q2 93 14 175q14 98 39 208.5t53.5 218t59.5 205t57 165.5q70 -23 112 -46.5t63.5 -45t27.5 -39t4 -25.5q-29 -109 -62.5 -225.5t-62.5 -239.5q59 78 123 111q78 41 153.5 13t133.5 -99q35 -45 54.5 -99.5t27.5 -113.5q45 -4 84 14t65 47q-35 33 -57.5 78t-28.5 98 t6.5 110.5t46.5 112.5l179 -104q-39 -98 -39 -154.5t22.5 -82t59.5 -22.5t73.5 20.5t64.5 47t32 60.5q10 -4 38.5 -20.5t56.5 -37t45 -41t3 -30.5q-57 -84 -98 -152q-37 -57 -66 -105t-24 -52q137 -133 207.5 -281.5t58.5 -339.5q-10 -102 -52 -187t-101.5 -143.5t-127 -86 t-131.5 -15.5q-45 8 -78.5 42t-49 80t-8.5 99t42 103.5t103.5 90.5t174.5 60q-4 102 -46 177t-92 124t-90 73.5t-40 29.5q10 39 41 94t68 115.5t70.5 122t52.5 112.5q-72 -51 -140.5 -56t-122.5 23q-35 -35 -84 -61.5t-112 -20.5q4 -111 -24.5 -226.5t-79 -212.5 t-116 -163.5t-134.5 -81.5q-111 -23 -189 2t-130 81.5t-80.5 138t-40 173t-9.5 184.5zM248 315.5q6 -61.5 31.5 -98.5t72.5 -37q31 0 65 44t64.5 114t52 153.5t29.5 164.5t-2 148.5t-45 104.5q-29 31 -61.5 15.5t-64.5 -60.5t-60.5 -114.5t-49 -145.5t-29.5 -151.5t-3 -137z M1063 -288.5q-6 -30.5 2 -55.5q10 -33 39 -47.5t64.5 7.5t69.5 85t54 184q-76 -20 -123 -50t-73.5 -61.5t-32.5 -62z" />
<glyph unicode="c&#x7a;" horiz-adv-x="1462" d="M1 429q-1 112 29.5 221.5t93.5 205t157 154.5q88 53 187 54t181 -44l-121 -197q-78 18 -142 -27.5t-106 -124.5t-60.5 -175.5t-6.5 -181.5t57 -143t131 -58q129 0 219.5 65.5t148.5 164.5t89 217t41 224q-45 27 -76.5 74t-44 104.5t-1.5 122t50 127.5l179 -104 q-37 -98 -38 -154.5t21.5 -82t59 -22.5t73.5 20.5t64.5 47t32.5 60.5q10 -4 39.5 -20.5t57 -37t44 -41t2.5 -30.5q-57 -84 -98 -152q-37 -57 -66 -105t-24 -52q139 -133 208.5 -280.5t57.5 -340.5q-10 -102 -52 -187t-101.5 -143.5t-127 -86t-131.5 -15.5q-45 8 -79 42 t-49 80t-8 99t42 103.5t103.5 90.5t174.5 60q-4 102 -46 177t-92 124t-90 73.5t-40 29.5q10 39 41 94t68 115.5t71.5 122t53.5 112.5q-66 -43 -125.5 -52t-110.5 7q-12 -135 -52 -276.5t-115 -254t-191.5 -179t-284.5 -52.5q-98 8 -164.5 69.5t-99.5 153.5t-34 204z M975 -332q6 -35 29 -51q18 -16 45.5 -12t57.5 32.5t55.5 89t41.5 158.5q-94 -27 -145 -65.5t-70.5 -77.5t-13.5 -74z" />
<glyph unicode="d&#x7a;" horiz-adv-x="1787" d="M2 447.5q6 115.5 40 225t94.5 200t148.5 135.5q82 41 162.5 35.5t134.5 -76.5l6 -9q18 82 38.5 165t43 161t45 145.5t43.5 120.5q70 -23 111.5 -46t63 -44.5t28 -39t4.5 -27.5q-41 -152 -90.5 -327t-77.5 -349q-6 -29 -13.5 -86.5t-10.5 -125t0 -139t21.5 -127t52.5 -88 t93 -24.5q82 12 137.5 83t89 168t51 204.5t23.5 191.5q-49 25 -85 72t-50 106.5t-5 127t50 132.5l180 -104q-39 -98 -39 -154.5t22.5 -82t59.5 -22.5t73 20.5t63.5 47t31.5 60.5q12 -4 41 -20.5t56.5 -37t45 -41t3.5 -30.5l-99 -152q-37 -57 -65.5 -105t-24.5 -52 q139 -133 207.5 -280.5t58.5 -340.5q-12 -102 -54 -187t-100.5 -143.5t-127 -86t-131.5 -15.5q-45 8 -79 42t-49.5 80t-8 99t43 103.5t103.5 90.5t174 60q-2 102 -45 177t-92 124t-90 73.5t-41 29.5q10 39 40.5 94t67.5 115.5t72 122t53 112.5q-59 -41 -114.5 -51t-102.5 2 q-4 -57 -11 -132t-22.5 -155t-41 -157.5t-65.5 -140t-98.5 -101.5t-138.5 -41q-123 -4 -206 61.5t-126 184.5q-29 -63 -66.5 -118t-84.5 -91.5t-103.5 -55t-119.5 -12.5q-72 6 -118 71.5t-66.5 162t-14.5 212zM250 401.5q0 -65.5 13 -113.5t42 -63q57 -29 103.5 14.5t79 122 t48 176t12.5 179.5t-29 129.5t-75 27.5q-47 -18 -82.5 -69t-60.5 -119t-38 -143.5t-13 -141zM1302.5 -347q12.5 -34 40.5 -44q20 -8 47 0t52.5 40t48.5 89t37 147q-100 -29 -152.5 -71.5t-69 -84.5t-4 -76z" />
<glyph unicode="e&#x7a;" horiz-adv-x="1441" d="M6.5 394q-16.5 126 9 250t93 227.5t178.5 154.5q84 39 159.5 40t126 -30.5t66.5 -94t-19.5 -151t-132 -200t-268.5 -240.5q8 -125 56.5 -188.5t116 -70.5t145 38t147.5 135t121 223.5t67 300.5q-43 27 -73.5 74t-40.5 103.5t0 121t49 125.5l178 -104q-39 -98 -39 -154.5 t22.5 -82t59.5 -22.5t74 20.5t64.5 47t31.5 60.5q10 -4 39 -20.5t56.5 -37t45 -41t2.5 -30.5q-57 -84 -98 -152q-37 -57 -65.5 -105t-24.5 -52q137 -133 208 -281.5t58 -339.5q-10 -102 -52 -187t-101.5 -143.5t-127 -86t-130.5 -15.5q-45 8 -79 42t-49.5 80t-8 99t42 103.5 t103 90.5t175.5 60q-4 102 -46 177t-92 124t-90 73.5t-40 29.5q10 39 40.5 94t67.5 115.5t71 122t52 112.5q-66 -45 -126 -53t-114 10q-10 -109 -38.5 -229.5t-83 -228t-137.5 -187.5t-201 -109q-131 -33 -226.5 16.5t-150.5 144.5t-71.5 221zM223 436q106 98 172 173 t98.5 127t37 83t-10.5 41q-20 12 -64 -10.5t-92.5 -77.5t-88.5 -140t-52 -196zM953 -328.5q5 -33.5 26 -52.5q18 -16 47 -14t58.5 30.5t56.5 89t43 160.5q-92 -27 -143.5 -64.5t-72 -76.5t-15.5 -72.5z" />
<glyph unicode="f&#x7a;" horiz-adv-x="1591" d="M9.5 -379q-19.5 57 3 117.5t93 117t205.5 89.5q29 115 47.5 244.5t32.5 271.5q-63 -6 -95 -7t-49.5 10t-26.5 36.5t-25 74.5q25 -14 55 -22q27 -10 63.5 -16.5t83.5 -8.5q4 39 6.5 115t10.5 166t23.5 182t46 166t77.5 116t119 30q63 -10 99 -53.5t48.5 -107t3 -141 t-33 -159.5t-60.5 -161t-80 -144q49 10 93.5 21t80.5 24q2 -18 1 -30.5t-11 -16.5q-47 -16 -92 -31t-98 -27q-14 -123 -29.5 -239.5t-42.5 -243.5q106 35 189 130t141.5 215t92.5 246t44 220q-45 27 -75.5 74t-42 104t-1 121.5t48.5 126.5l181 -103q-39 -98 -39 -155.5 t21.5 -82t58 -22.5t73.5 20.5t64.5 48.5t32.5 60q10 -4 39.5 -20t57.5 -36.5t44 -41t2 -33.5q-57 -84 -98 -151q-37 -57 -66 -105.5t-24 -52.5q139 -133 208.5 -280.5t57.5 -339.5q-10 -102 -52 -187.5t-101.5 -144t-127 -86t-131.5 -15.5q-45 8 -79 42t-49 80t-8 99.5 t42 103.5t103.5 91t174.5 62q-2 100 -45 174.5t-92 125t-90 75t-41 28.5q10 37 41 92t68 116.5t71.5 123t53.5 112.5q-66 -45 -126.5 -54t-111.5 9q-16 -170 -63.5 -318.5t-119 -264t-160.5 -193.5t-187 -104q-41 -164 -102.5 -257t-128 -132t-129 -31t-106.5 44t-63.5 93z M68 -331.5q-2 -28.5 10 -45.5q12 -16 35.5 -16t53.5 24.5t60.5 79t59.5 146.5q-78 -25 -124 -59t-69.5 -67.5t-25.5 -62zM639 567q61 102 92 214t40 202t1 147.5t-22 53.5q-18 -4 -33 -46t-26 -103.5t-20 -134.5t-15.5 -139.5t-10.5 -120t-6 -73.5zM1102 -294q0 -34 16 -54 q16 -25 45 -29t60.5 21.5t61.5 88t48 173.5q-86 -25 -135 -59.5t-72.5 -70.5t-23.5 -70z" />
<glyph unicode="g&#x7a;" horiz-adv-x="1589" d="M2 455.5q6 115.5 40 225.5t94.5 200t150.5 135q78 41 156.5 36t134.5 -71v66q49 -10 93 -20.5t77.5 -21t53 -20.5t19.5 -20q-2 -20 -5 -75.5t-11 -133.5q57 -16 107.5 4t80.5 55q-37 31 -60.5 77t-30.5 100.5t4.5 112.5t45.5 116l181 -105q-39 -98 -39 -154.5t22.5 -82 t59 -22.5t72.5 20.5t63.5 47t31.5 60.5q12 -4 41 -20.5t56.5 -37t45 -41t3.5 -30.5q-57 -84 -98 -151q-37 -57 -66 -105.5t-25 -52.5q139 -133 208 -280.5t59 -340.5q-12 -102 -54.5 -187t-100.5 -143.5t-125.5 -86t-131.5 -15.5q-45 8 -79 42t-49 80t-9 99.5t42 103.5 t103.5 90t173.5 60q-2 102 -45 177t-92 124t-90 74t-41 29q10 39 42 94t69 115.5t70.5 122t52.5 112.5q-70 -47 -134.5 -54t-117.5 17q-41 -43 -104.5 -72.5t-145.5 -7.5q-16 -201 -42 -401.5t-71 -396.5q-41 -166 -102.5 -259.5t-127 -132t-129 -31.5t-107.5 44t-62.5 93 t3 117.5t92.5 117t206 88.5q14 51 23.5 103t19.5 118q-57 -76 -133 -118t-168 -32q-72 6 -119 71.5t-67.5 162t-14.5 212zM219 -329.5q-4 -28.5 6 -47.5q12 -18 36 -20t53.5 21.5t62 79t61.5 149.5q-76 -25 -122 -57t-69.5 -64.5t-27.5 -61zM250 409.5q0 -65.5 13 -114 t42 -62.5q43 -20 81 -0.5t67.5 66.5t51 112.5t34 135t14.5 137.5t-9.5 117t-36 73.5t-63.5 8.5q-47 -18 -82.5 -69.5t-60.5 -119t-38 -143.5t-13 -141.5zM1100 -323.5q6 -34.5 28 -51.5q20 -16 48 -13t57 32.5t54.5 90.5t41.5 159q-92 -27 -143 -66t-71.5 -78t-14.5 -73.5z " />
<glyph unicode="h&#x7a;" horiz-adv-x="1636" d="M3 288q-5 124 7.5 260t38 278.5t57 274.5t67.5 247.5t71 201.5q70 -23 111.5 -46t64 -44.5t29 -40t2.5 -26.5q-23 -53 -49.5 -142.5t-53 -196t-52.5 -224t-47.5 -226t-36.5 -202t-19 -152.5q18 53 45.5 129t60.5 157.5t68.5 162.5t70.5 145.5t66.5 104.5t56.5 42 q18 0 48 -8t56.5 -18.5t45 -21.5t16.5 -19q-39 -164 -57.5 -299.5t-13 -237.5t36 -168.5t87.5 -93.5q59 -27 104.5 -1t78 83t55 136t36 161t20.5 154.5t11 117.5q-49 25 -83.5 72t-48 106.5t-4.5 126t50 131.5l181 -104q-39 -98 -39 -154.5t22.5 -82t59.5 -22.5t72.5 20.5 t63 47t32.5 60.5q12 -4 40.5 -20.5t56.5 -37t45 -41t3 -30.5q-57 -84 -98 -152q-37 -57 -66 -105t-24 -52q137 -133 206.5 -281.5t59.5 -339.5q-12 -102 -54 -187t-100.5 -143.5t-126 -86t-131.5 -15.5q-45 8 -78.5 41t-49 79t-9.5 100t42 104.5t103.5 90.5t173.5 60 q-2 102 -45 177t-92 124t-90 73.5t-41 29.5q10 39 41 94t68 115.5t71.5 122t53.5 112.5q-59 -41 -115.5 -51t-106.5 2q-4 -66 -12 -145.5t-22.5 -160.5t-37 -157t-57 -136.5t-82 -96t-110.5 -37.5q-102 -4 -170 39t-108 109.5t-58 144t-24.5 147.5t-4.5 119t2 57 q-59 -98 -112 -254t-125 -375q-10 -12 -36 -14t-53.5 5t-52 23.5t-30.5 39.5q-27 96 -32 220zM1151 -280q-14 -44 3 -77.5t50 -37.5q20 -4 45 9t48.5 45t45 87t33.5 139q-106 -31 -158.5 -76t-66.5 -89z" />
<glyph unicode="i&#x7a;" horiz-adv-x="1249" d="M5 612.5q13 186.5 79 399.5q70 -23 114 -40.5t69.5 -31.5t33.5 -25.5t6 -21.5q-43 -178 -61.5 -322.5t-9 -249t47.5 -167t111 -74.5q55 -2 98.5 32.5t74 92t51 132.5t34 153.5t21.5 154.5t12 137q-47 27 -79 74t-44 105.5t-1 123t50 127.5l181 -104q-37 -98 -38 -154.5 t21.5 -82t59 -22.5t72.5 20.5t63.5 47t32.5 60.5q12 -4 40.5 -20.5t56 -37t45 -41t3.5 -30.5l-98 -152q-37 -57 -65.5 -105t-24.5 -52q137 -133 206.5 -280.5t59.5 -340.5q-12 -102 -54.5 -187t-101.5 -143.5t-126.5 -86t-131.5 -15.5q-45 8 -79 42t-49 80t-8 99t42 103.5 t103.5 90.5t174.5 60q-2 102 -45 177t-92 124t-90 73.5t-41 29.5q10 39 41 94t67.5 115.5t71.5 122t54 112.5q-63 -43 -123 -52t-111 7q-4 -68 -10 -151t-19.5 -167t-37 -162.5t-62.5 -141t-96.5 -101.5t-136.5 -41q-133 -6 -218.5 72t-121 216t-22.5 324.5zM166 1245 q8 92 53 199q70 -23 112 -46.5t63.5 -45t27.5 -39t4 -25.5q-8 -35 -19.5 -73.5t-23.5 -78.5t-24.5 -79t-20.5 -72q-55 14 -91 42t-54.5 63.5t-24.5 75.5t-2 79zM760 -338q8 -35 33 -49q20 -12 47.5 -7t55.5 34.5t52.5 89t40.5 155.5q-96 -27 -147 -66.5t-70.5 -80.5 t-11.5 -76z" />
<glyph unicode="j&#x7a;" horiz-adv-x="1445" d="M8.5 -397.5q-18.5 55.5 3 114t92 113.5t205.5 88q31 117 52.5 269.5t36 305t22.5 287.5t8 215q49 -10 93 -20t78 -20.5t53.5 -20.5t19.5 -21q-2 -16 -5 -57t-8 -98q57 -16 108.5 2t84.5 53q-37 31 -61.5 77t-32.5 100t4 113.5t47 117.5l180 -105q-39 -98 -39 -154.5 t22.5 -82t59.5 -22.5t73 20.5t63.5 47t31.5 60.5q10 -4 40 -20.5t57.5 -37t44 -41t1.5 -30.5q-57 -84 -98 -151q-37 -57 -65.5 -105.5t-24.5 -52.5q139 -133 209 -280.5t59 -340.5q-12 -102 -54 -187t-101.5 -143.5t-127 -86t-130.5 -15.5q-45 8 -79 42t-49.5 80t-8 99.5 t42 103.5t103 90t175.5 60q-2 102 -45 177t-92 124t-90 74t-41 29q10 39 40.5 94t67.5 115.5t72 122t53 112.5q-70 -47 -133 -54t-117 15q-20 -23 -46.5 -41t-59.5 -30.5t-70 -14.5t-78 13q-8 -94 -18 -198t-23.5 -209t-31 -206.5t-41.5 -191.5q-41 -166 -103.5 -260.5 t-128 -134.5t-129 -33.5t-108.5 41t-63.5 90zM71 -359.5q5 -29.5 27 -37.5q14 -6 38 1t49.5 35.5t53 79.5t52.5 131q-88 -29 -137.5 -66.5t-68.5 -75.5t-14 -67.5zM471 1266q-6 92 25 204q72 -12 116.5 -28.5t69.5 -34.5t33 -34.5t6 -26.5q-6 -70 -20.5 -157t-24.5 -155 q-57 6 -96 28.5t-61.5 54.5t-34 71t-13.5 78zM956 -297q-2 -33 11 -55q14 -27 43.5 -34t62.5 17.5t64 87t49 175.5q-82 -23 -131 -56t-73 -67.5t-26 -67.5z" />
<glyph unicode="k&#x7a;" horiz-adv-x="1576" d="M4 290q-4 124 7.5 260t37 277.5t58 273.5t68.5 247.5t69 201.5q70 -23 112.5 -46t64 -44.5t28 -39t2.5 -25.5q-23 -53 -49.5 -142.5t-53 -197t-52.5 -224t-47.5 -226t-36.5 -203t-19 -152.5q18 53 45.5 129t60.5 157.5t68.5 163.5t70.5 146.5t66.5 104.5t56.5 40 q39 2 57.5 0t38.5 -2q-41 -45 -77 -98q-33 -45 -69 -104.5t-65 -124.5q-6 -68 4.5 -140.5t34 -139.5t60.5 -124t84 -94q57 -43 106 -26.5t90 69.5t74 133t56.5 163t38 158.5t20.5 120.5q-47 27 -78 74t-43 105.5t-2 123t49 127.5l180 -104q-39 -98 -39 -154.5t22.5 -82 t59.5 -22.5t73 20.5t63.5 47t31.5 60.5q12 -4 41 -20.5t56.5 -37t45 -41t3.5 -30.5l-99 -152q-37 -57 -65.5 -105t-24.5 -52q139 -133 208 -280.5t58 -340.5q-12 -102 -54 -187t-100.5 -143.5t-127 -86t-131.5 -15.5q-45 8 -79 42t-49.5 80t-8 99t43 103.5t103.5 90.5 t174 60q-2 102 -45 177t-92 124t-90 73.5t-41 29.5q10 39 40.5 94t67.5 115.5t72 122t53 112.5q-63 -43 -122.5 -52t-110.5 7q-4 -41 -12.5 -110.5t-26 -151.5t-45 -166t-67.5 -152.5t-93 -113.5t-125 -47q-82 -4 -142.5 19.5t-105.5 65.5t-76.5 96t-52.5 109 q-25 -68 -50 -142.5t-52 -156.5q-4 -12 -29.5 -14t-55.5 6t-56.5 24.5t-32.5 39.5q-27 96 -31 220zM1086 -316.5q1 -33.5 18 -54.5q16 -23 46 -25.5t60.5 24t60.5 87.5t46 170q-86 -25 -136.5 -59.5t-73 -71.5t-21.5 -70.5z" />
<glyph unicode="l&#x7a;" horiz-adv-x="1277" d="M2.5 439q-9.5 128 13.5 280q14 98 39 214t55.5 229.5t62.5 216t58 169.5q70 -23 112 -46t64.5 -44.5t27.5 -39t3 -25.5q-20 -78 -44.5 -166t-49.5 -180.5t-46.5 -184.5t-35.5 -178q-39 -225 -24.5 -357t60.5 -184.5t110.5 -29t127 109.5t110.5 230.5t61 334.5 q-43 29 -74 76t-41 103.5t1 120t48 124.5l180 -102q-37 -100 -38 -156.5t21.5 -81t59.5 -22.5t73 20.5t63.5 48t31.5 60.5q12 -4 41 -20.5t56.5 -37t45 -41t3.5 -32.5l-99 -152q-37 -57 -65.5 -105t-24.5 -52q139 -133 208 -280.5t58 -340.5q-12 -102 -54 -187 t-100.5 -143.5t-127 -86t-131.5 -15.5q-45 8 -79 42t-49.5 80t-8 99t43 103.5t103.5 91.5t174 61q-2 100 -45 175t-92 125t-90 74.5t-41 29.5q10 37 40.5 92t67.5 116.5t72 123t53 112.5q-66 -47 -127 -55t-114 12q-6 -63 -19.5 -147t-36 -171.5t-55.5 -170t-78 -146 t-101.5 -101.5t-125.5 -32q-100 8 -171 64.5t-111 151.5t-49.5 223zM787 -316.5q1 -33.5 18 -54.5q18 -23 47 -24.5t60.5 25t60.5 87.5t45 170q-86 -25 -136.5 -60.5t-73 -72.5t-21.5 -70.5z" />
<glyph unicode="m&#x7a;" horiz-adv-x="2086" d="M2 262.5q-4 116.5 5 249.5t31.5 269.5t57.5 246.5q137 -43 183.5 -70.5t39.5 -46.5q-16 -39 -36.5 -114.5t-39 -167.5t-34.5 -191.5t-23 -187.5q18 53 46 129t61 157.5t68.5 163.5t70.5 146.5t65.5 104.5t55.5 40q20 0 49 -7t56.5 -17.5t46 -22.5t16.5 -20 q-41 -174 -59.5 -315.5t-10.5 -246.5q33 92 77 202t90 204t89 158.5t74 64.5q18 0 48 -7t56.5 -17.5t45 -22.5t16.5 -20q-59 -250 -69.5 -431.5t36.5 -279.5q35 -70 83 -86t110 37q51 45 91 126t66.5 170t42 176t21.5 144q-47 27 -80 74t-45 105.5t-2 124t49 128.5l180 -104 q-37 -98 -38 -154.5t21.5 -82t59.5 -22.5t73 20.5t63.5 47t31.5 60.5q12 -4 41 -20.5t56.5 -37t45 -41t3.5 -30.5q-57 -84 -99 -152q-37 -57 -65.5 -105t-24.5 -52q139 -133 208 -280.5t58 -340.5q-12 -102 -54 -187t-100.5 -143.5t-126 -86t-130.5 -15.5q-45 8 -79 41 t-49.5 79t-9 100t42 104.5t103.5 90.5t174 60q-2 102 -45 177t-92 124t-90 73.5t-41 29.5q10 39 40.5 94t67.5 115.5t72 122t53 112.5q-61 -43 -119.5 -53.5t-109.5 6.5q-4 -53 -16.5 -127t-31 -155t-46 -161.5t-62.5 -144.5q-41 -72 -95 -111.5t-114.5 -46t-120 21.5 t-110.5 93q-51 63 -74.5 149.5t-32 164t-6.5 135t2 65.5q-37 -61 -61.5 -115.5t-44 -108.5t-36.5 -111.5t-40 -121.5q-10 -31 -20.5 -57.5t-23.5 -39.5t-31.5 -10t-45.5 34q-55 63 -81.5 150t-36 169t-7.5 142.5t2 68.5q-59 -98 -112.5 -255t-124.5 -376q-6 -12 -32 -14 t-54.5 6t-54 24.5t-31.5 39.5q-23 76 -27 192.5zM1597.5 -324.5q4.5 -33.5 22.5 -52.5q18 -18 47 -19t58.5 27.5t57.5 89t44 164.5q-90 -25 -140.5 -61.5t-72 -75.5t-17 -72.5z" />
<glyph unicode="n&#x7a;" horiz-adv-x="1613" d="M2 261.5q-4 117.5 5 250.5t31.5 269.5t57.5 246.5q137 -43 184.5 -71.5t38.5 -47.5q-16 -39 -36.5 -113.5t-39 -166.5t-34.5 -191.5t-23 -187.5q18 53 46 129t61 157.5t68.5 162.5t70.5 145.5t66.5 104.5t56.5 42q18 0 48 -7t56.5 -18.5t45 -22.5t16.5 -19 q-78 -322 -71 -529t116 -264q57 -31 100 -6t74 82t52.5 138t34.5 164t19.5 155.5t10.5 115.5q-47 27 -81 73t-46 104.5t-2 124t49 130.5l180 -104q-37 -98 -38 -154.5t21.5 -82t59.5 -22.5t73 20.5t63.5 47t31.5 60.5q12 -4 41 -20.5t56.5 -37t45 -41t2.5 -32.5l-98 -152 q-37 -57 -65.5 -104t-24.5 -51q139 -135 208 -282.5t58 -340.5q-12 -102 -54 -187t-100.5 -143.5t-127 -86t-131.5 -15.5q-45 8 -79 42t-49.5 80t-8 100t43 104.5t103 90.5t174.5 60q-2 102 -45 177t-92 124t-90 73.5t-41 29.5q10 39 40.5 94t67.5 115.5t72 122t53 112.5 q-61 -43 -119.5 -53.5t-107.5 6.5q-6 -98 -16.5 -218t-37 -227.5t-77.5 -188.5t-144 -99q-106 -23 -176.5 12t-113.5 100.5t-63.5 149.5t-28 159.5t-6.5 130t1 62.5q-59 -96 -111.5 -253t-123.5 -376q-14 -12 -41 -14t-54.5 5t-50 23.5t-28.5 39.5q-23 76 -27 193.5z M1124 -324.5q4 -33.5 23 -52.5q18 -18 47 -19t58.5 27.5t57.5 89t44 164.5q-90 -25 -140.5 -61.5t-72 -75.5t-17.5 -72.5z" />
<glyph unicode="o&#x7a;" horiz-adv-x="1480" d="M1 435q1 116 33 226.5t96.5 203.5t162.5 145q90 47 180 45t156 -72q37 -37 63 -100q-94 37 -167.5 23.5t-129 -59.5t-92.5 -118t-55.5 -150.5t-19.5 -158.5t15.5 -141.5t50.5 -98.5t83 -30q70 8 123 63t87 127t46 148.5t0 129.5q-8 2 -16.5 3.5t-18.5 3.5q-53 6 -82 28.5 t-36 50t3.5 57.5t32 50t52 28.5t63.5 -5.5q49 -20 71.5 -60.5t28.5 -93.5q53 12 90 45t60 61q-35 33 -58.5 78t-30 98.5t6 112t47.5 113.5l178 -103q-39 -100 -39 -156.5t22.5 -81t59.5 -22.5t74 19.5t64.5 47.5t31.5 60q10 -4 40 -20.5t57.5 -37t44 -40.5t1.5 -31 q-57 -84 -98 -151q-37 -57 -65.5 -105.5t-24.5 -52.5q139 -133 208.5 -280t57.5 -340q-10 -102 -52 -187.5t-101.5 -144t-127 -86t-130.5 -15.5q-45 8 -79 42t-49.5 80t-8 99.5t42 103.5t103 91t175.5 62q-4 100 -46 174.5t-92.5 124t-90 74t-39.5 28.5q10 39 40.5 94 t67.5 116.5t71 123t52 110.5q-72 -49 -138.5 -55t-119.5 21q-29 -37 -76 -77t-125 -52q-4 -63 -17 -125t-28 -107q-25 -82 -65.5 -153.5t-97 -126t-127 -84t-154.5 -25.5q-80 4 -135.5 66.5t-83 157.5t-26.5 211zM992 -325.5q-3 -32.5 9 -55.5q14 -29 43 -37t63 15.5t66 86 t50 177.5q-80 -23 -129.5 -54.5t-74 -65.5t-27.5 -66.5z" />
<glyph unicode="p&#x7a;" horiz-adv-x="1603" d="M0 -275.5q0 115.5 10 264t26.5 315.5t39 323.5t48.5 288t54 208.5q35 -4 78 -12t79 -20.5t58.5 -24.5t18.5 -20q-10 -29 -25 -76q43 47 90 71q80 41 156 13.5t131 -99.5q35 -45 55.5 -98t28.5 -113q47 -4 86 16.5t65 51.5q-35 33 -56 78t-27.5 98t5 110.5t46.5 112.5 l180 -104q-39 -98 -39 -154.5t22.5 -82t59.5 -22.5t72.5 20.5t63.5 47t32 60.5q12 -4 40.5 -20.5t56.5 -37t45.5 -41t2.5 -32.5q-57 -84 -98 -152q-37 -57 -65.5 -104t-24.5 -51q139 -135 207.5 -282.5t58.5 -340.5q-12 -102 -54 -187t-100.5 -143.5t-127 -86t-132.5 -15.5 q-45 8 -78.5 42t-49 80t-8.5 100t43 104.5t103.5 90.5t174.5 60q-2 102 -45 177t-92.5 124t-90.5 73.5t-41 29.5q10 39 41 94t68 115.5t71.5 122t53.5 112.5q-72 -51 -140.5 -56t-121.5 21q-35 -35 -86 -63.5t-117 -22.5q4 -84 -12.5 -173t-47 -171t-73.5 -151.5t-92 -116.5 t-102.5 -66.5t-106.5 -1.5q-68 23 -113 70t-72 110q-20 -127 -32.5 -246.5t-18.5 -218t-6 -165t6 -84.5q2 -10 -22.5 -8t-56 13t-60.5 30.5t-33 44.5q-10 55 -10 170.5zM297 308.5q6 -60.5 30.5 -98.5t71.5 -36q33 0 67 44t63.5 112.5t52 152.5t29.5 165t-2 149.5t-44 105.5 q-29 31 -61.5 15.5t-64 -61.5t-60.5 -114.5t-49.5 -144.5t-29.5 -152.5t-3 -137zM1115 -328.5q5 -33.5 26 -52.5q18 -16 47 -15t57.5 30.5t55 90t42.5 160.5q-92 -27 -143 -64.5t-70.5 -76.5t-14.5 -72.5z" />
<glyph unicode="q&#x7a;" horiz-adv-x="1599" d="M2 480.5q6 115.5 39 225t93.5 199.5t150.5 135q82 41 162.5 35t134.5 -78q31 -41 47 -88q12 41 25.5 77t23.5 65q70 -23 111.5 -46.5t63 -45t28 -39t4.5 -25.5q-10 -37 -20.5 -74t-20.5 -76q59 -14 111.5 9.5t80.5 60.5q-47 27 -77.5 74t-43 105.5t-2 123t49.5 127.5 l180 -104q-39 -98 -39 -154.5t22.5 -82t59.5 -22.5t72.5 20.5t63.5 47t32 60.5q12 -4 40.5 -20.5t56.5 -37t45 -41t3 -30.5l-98 -152q-37 -57 -65.5 -105.5t-24.5 -52.5q139 -135 207.5 -282t58.5 -340q-12 -102 -54 -186.5t-100.5 -142.5t-127 -87t-132.5 -16 q-45 8 -78.5 41.5t-49 80t-8.5 100.5t43 104.5t103.5 90t174.5 60.5q-2 102 -45 177t-92.5 124t-90.5 73.5t-41 28.5q10 39 41 94.5t68 116t71.5 122t53.5 112.5q-57 -41 -110.5 -51.5t-100.5 0.5q-18 -25 -46 -48.5t-61.5 -39t-75.5 -19.5t-88 10q-33 -117 -63.5 -236.5 t-50.5 -240.5q-25 -145 -29 -274t18.5 -225.5t70.5 -149.5t128 -49l10 -43q-133 -37 -224 3t-146.5 134t-77 230.5t-10.5 289.5q-53 -53 -117 -80.5t-139 -19.5q-72 8 -118 72.5t-66.5 162t-14.5 213zM248 434.5q0 -65.5 13 -115t42 -61.5q57 -29 103.5 15t79 123t50 176.5 t14.5 179.5t-30 128.5t-78 26.5q-47 -18 -82.5 -69.5t-60.5 -119t-38 -143t-13 -141zM1109 -277.5q-1 -33.5 13 -54.5q16 -25 45 -31t62 20t62.5 88t47.5 173q-84 -25 -133 -58.5t-72.5 -68.5t-24.5 -68.5z" />
<glyph unicode="r&#x7a;" horiz-adv-x="1466" d="M1 1038.5q-3 94.5 50 208.5l178 -102q-51 -145 -45 -214t36 -78t67 34t47 123q10 -4 48 -15.5t78 -28t70.5 -36t26.5 -37.5q-61 -260 -64.5 -434t29.5 -263.5t90.5 -96.5t116.5 67t110.5 227.5t69.5 386.5q-47 27 -80.5 74t-46 105.5t-2 124t48.5 128.5l181 -104 q-39 -98 -39 -154.5t22.5 -82t59.5 -22.5t72.5 20.5t63.5 47t32 60.5q12 -4 40.5 -20.5t56.5 -37t45 -41t3 -30.5l-98 -152q-37 -57 -65.5 -105t-24.5 -52q137 -133 206.5 -280.5t59.5 -340.5q-12 -102 -54 -187t-101.5 -143.5t-127 -86t-131.5 -15.5q-45 8 -78.5 42t-49 80 t-8.5 99t43 103.5t103.5 90.5t173.5 60q-2 102 -45 177t-92 124t-90 73.5t-41 29.5q10 39 41 94t68 116.5t71.5 123t53.5 110.5q-61 -41 -120 -52.5t-108 5.5q-6 -51 -16 -128t-29.5 -160t-46 -167t-63.5 -150.5t-84 -110.5t-105 -46q-113 -6 -190.5 55.5t-118.5 170 t-46 258t30 321.5q-70 -31 -134.5 -7.5t-104.5 85t-43 156zM976 -327.5q5 -34.5 25 -53.5q18 -16 47 -14t59 30.5t56.5 89t42.5 160.5q-92 -25 -143 -62.5t-71.5 -76.5t-15.5 -73.5z" />
<glyph unicode="t&#x7a;" horiz-adv-x="1400" d="M0 1065q14 -2 33 -6q16 -4 36.5 -8t49.5 -9q27 98 54.5 186.5t51.5 153.5q70 -23 112 -46t63.5 -44.5t27.5 -39t4 -25.5q-14 -53 -28.5 -104.5t-28.5 -102.5q57 -2 114.5 2t110.5 16l4 -90q-59 -14 -123.5 -15t-128.5 5q-18 -72 -35.5 -145.5t-27.5 -151.5 q-35 -227 -9.5 -366.5t119.5 -180.5q55 -25 106.5 -1t95.5 80t82 135t65.5 166t45 172t23.5 155q-41 31 -67.5 77t-34.5 101t3 115.5t48 119.5l178 -102q-39 -98 -39 -155.5t22.5 -82t59.5 -22.5t74 20.5t64.5 48t31.5 60.5q10 -4 40 -20.5t57.5 -37t44 -41t1.5 -32.5 q-57 -84 -98 -152q-37 -57 -65.5 -105t-24.5 -52q139 -133 209 -280.5t57 -340.5q-10 -102 -52 -187t-101.5 -143.5t-127 -86t-130.5 -15.5q-45 8 -79 42t-49.5 80t-8 99t42 103.5t103 91.5t175.5 61q-4 100 -46 175t-92 125t-90 75t-40 29q10 37 40.5 92t67.5 116.5t72 123 t53 112.5q-72 -49 -137.5 -55t-118.5 16q-8 -102 -31.5 -219t-63.5 -221.5t-99.5 -186t-139.5 -116.5q-125 -53 -223 -20.5t-162.5 126.5t-90 237.5t-5.5 311.5q8 70 23.5 144.5t33.5 150.5q-23 4 -42 9t-31 9q-16 4 -27 9zM912.5 -327.5q5.5 -34.5 27.5 -51.5 q20 -16 48 -13t57.5 31.5t55.5 89t42 160.5q-92 -27 -144.5 -65.5t-72 -77.5t-14 -73.5z" />
<glyph unicode="u&#x7a;" horiz-adv-x="1693" d="M3 596q9 207 75 461q70 -23 115 -40.5t69.5 -31.5t32.5 -26.5t6 -20.5q-37 -139 -54.5 -272.5t-16.5 -235.5t16.5 -161.5t44.5 -53.5q25 6 49.5 60.5t50 133t49 175t44 187.5t38 167t29.5 117q70 -23 114 -40.5t69.5 -31.5t33.5 -25.5t6 -21.5q-74 -307 -71.5 -510 t98.5 -272q66 -47 114 -28t82.5 78.5t57 145.5t37 174t21.5 164t9 113q-43 29 -73.5 76t-41 103t1 119.5t48.5 125.5l180 -105q-39 -98 -39 -154.5t22.5 -82t59.5 -22.5t73 20.5t63.5 47t31.5 60.5q12 -4 41 -20.5t56.5 -37t45 -41t2.5 -30.5l-98 -151q-37 -57 -65.5 -105.5 t-24.5 -52.5q139 -133 207.5 -280.5t58.5 -340.5q-12 -102 -54 -187t-100.5 -143.5t-127 -86t-132.5 -15.5q-45 8 -78.5 42t-49 80t-8.5 99.5t43 103.5t103.5 90t174.5 60q-2 102 -45 177t-92.5 124.5t-90 74t-40.5 28.5q10 39 40.5 94t67.5 115.5t72 122t53 112.5 q-66 -45 -128 -53t-114 10q-4 -61 -10 -141t-17.5 -162t-31 -159.5t-52 -139t-81.5 -98.5t-117 -35q-80 0 -147.5 37t-115.5 106.5t-71.5 171t-17.5 232.5q-51 -268 -122 -407.5t-140.5 -172.5t-128 31.5t-89 206t-21.5 348.5zM1205 -321.5q7 -34.5 30 -51.5q20 -14 48 -10 t56.5 34t53.5 89.5t41 157.5q-94 -27 -145.5 -66t-71 -79t-12.5 -74.5z" />
<glyph unicode="v&#x7a;" horiz-adv-x="1378" d="M3 512q3 133 18.5 269.5t44.5 246.5q141 -43 189 -71.5t40 -45.5q-14 -39 -30.5 -114.5t-31 -167.5t-25.5 -191.5t-13 -187.5q12 45 37.5 112.5t56 145.5t65.5 160t70 155.5t66.5 131t56.5 87.5q33 8 69.5 -3t32.5 -50q-8 -63 -1 -111.5t23.5 -73t39 -20.5t47.5 47 q-31 33 -48.5 78t-21.5 95.5t9.5 103.5t43.5 104l181 -104q-37 -98 -38 -154.5t21.5 -82t59 -22.5t72.5 20.5t63.5 47t32.5 60.5q12 -4 40.5 -20.5t56 -37t45 -41t3.5 -30.5q-57 -84 -98 -152q-37 -57 -66 -105t-24 -52q139 -133 207.5 -280.5t58.5 -340.5 q-12 -102 -54 -187t-100.5 -143.5t-126 -86t-131.5 -15.5q-45 8 -79 42t-49 80t-9 99t42 103.5t103.5 90.5t173.5 60q-2 102 -45 177t-92 124t-90 73.5t-41 29.5q10 39 41 94t68 115.5t71.5 122t53.5 112.5q-86 -59 -164 -56t-135 46q-43 -66 -82 -70t-70 23.5t-49.5 73.5 t-18.5 83q-49 -74 -100 -177t-99 -223t-88 -248t-65 -247q-6 -12 -31.5 -14t-55.5 6t-55.5 24.5t-33.5 39.5q-25 76 -35 192.5t-7 249.5zM888 -320.5q3 -33.5 21 -54.5q18 -20 47 -21t60 26.5t58.5 89t43.5 165.5q-88 -25 -139 -60.5t-72.5 -73.5t-18.5 -71.5z" />
<glyph unicode="w&#x7a;" horiz-adv-x="1818" d="M3 514q-5 133 2 268.5t30 245.5q72 -23 119 -40t74.5 -30.5t36.5 -25.5t7 -21q-12 -39 -24 -113.5t-21.5 -166.5t-13.5 -192.5t-2 -188.5q10 43 29.5 106.5t44 137t53.5 152.5t57.5 150.5t56 132t50.5 99.5q72 -23 119 -40t74.5 -30.5t36.5 -25.5t7 -21 q-12 -39 -24.5 -113.5t-21.5 -166.5t-13 -192.5t-2 -188.5q10 45 30.5 113.5t47 146.5t57.5 160t60.5 154.5t58.5 130t51 87.5q14 4 33.5 4.5t37 -6t28 -18.5t8.5 -33q-8 -63 -1 -111.5t23 -72t39 -19t47 47.5q-31 33 -48 77.5t-21.5 94t9 102.5t44.5 104l180 -102 q-39 -100 -39 -156.5t22.5 -81t59.5 -22.5t72.5 20.5t63.5 48t32 60.5q12 -4 40.5 -20.5t56.5 -37t45.5 -41t2.5 -32.5l-98 -152q-37 -57 -65.5 -105t-24.5 -52q139 -133 207.5 -280.5t58.5 -340.5q-12 -102 -54 -187t-100.5 -143.5t-127 -86t-132.5 -15.5q-45 8 -78.5 42 t-49 80t-8.5 99t43 103.5t103.5 91.5t174.5 61q-2 100 -45 175t-92.5 125t-90.5 74.5t-41 29.5q10 37 41 92t68 116.5t71.5 123t53.5 112.5q-86 -59 -164 -57t-135 45q-43 -63 -82 -69.5t-68.5 20t-48 71.5t-20.5 84q-45 -74 -89 -177t-84 -222t-72 -246t-50 -246 q-6 -12 -31.5 -14t-55.5 6t-56.5 24.5t-34.5 39.5q-23 55 -37.5 133t-23.5 169t-11 190.5t2 195.5q-35 -78 -67.5 -168t-61.5 -187.5t-52.5 -195.5t-37.5 -193q-6 -12 -31.5 -14t-54.5 6t-56.5 24.5t-35.5 39.5q-31 76 -48.5 193.5t-22.5 250.5zM1327 -318.5 q2 -33.5 21 -54.5q18 -20 46.5 -22t59.5 25.5t60 89t45 167.5q-88 -25 -138.5 -60.5t-73 -73.5t-20.5 -71.5z" />
<glyph unicode="y&#x7a;" horiz-adv-x="1517" d="M6 662.5q12 195.5 74 427.5q70 -23 114 -40.5t69.5 -30.5t33.5 -25.5t6 -20.5q-39 -139 -57.5 -278.5t-19.5 -249t13.5 -175t43.5 -57.5q18 4 40.5 44t43 103.5t41 142.5t36 165t25.5 169.5t14 157.5q0 10 38 1t84 -24.5t83 -32.5t37 -26q0 -16 -3 -56t-7 -97 q61 -20 115.5 0t87.5 59q-37 31 -59.5 77t-30 99.5t5 111.5t47.5 114l180 -105q-39 -98 -39 -154.5t22.5 -82t59.5 -22.5t72.5 20.5t63.5 47t32 60.5q10 -4 39.5 -20.5t57.5 -37t44.5 -41t1.5 -30.5q-57 -84 -98 -151q-37 -57 -65.5 -105.5t-24.5 -52.5 q139 -133 208.5 -280.5t59.5 -340.5q-12 -102 -54 -187t-101.5 -143.5t-127 -86t-131.5 -15.5q-45 8 -78.5 42t-49 80t-8.5 99.5t42 103.5t103.5 90t175.5 60q-2 102 -45 177t-92.5 124t-90.5 74t-41 29q10 39 41 94t68 115.5t71.5 122t53.5 112.5q-72 -49 -138.5 -55 t-119.5 20q-20 -23 -47 -43t-61 -32.5t-72.5 -14.5t-81.5 15q-6 -72 -15.5 -165t-23 -195.5t-31.5 -208t-44 -203t-59.5 -181.5t-78.5 -141q-70 -90 -145.5 -110.5t-136 5t-95.5 85t-21.5 128t85 135t223.5 105.5q23 86 38 184.5t29 206.5q-55 -184 -120.5 -266t-125 -77 t-107.5 87t-68.5 226.5t-8.5 340zM126 -332.5q5 -29.5 26 -38.5q16 -6 39.5 1.5t49 36t53 79.5t52.5 131q-86 -29 -135 -66.5t-69.5 -75.5t-15.5 -67.5zM1026 -306q0 -34 16 -54q16 -23 46 -27t62 22.5t60.5 88t46.5 170.5q-86 -25 -135 -59t-72.5 -70.5t-23.5 -70.5z" />
<glyph unicode="B&#x7a;" horiz-adv-x="2050" d="M11.5 1106q25.5 123 100 223.5t193.5 167t273 80.5q225 20 364 -33t188.5 -162.5t4.5 -268.5t-187 -351q29 6 85.5 4t118.5 -17.5t120.5 -48t89.5 -88.5v2q37 35 66.5 76t50.5 82q-43 29 -73 75t-40 103.5t1 120t48 123.5l178 -104q-37 -98 -38 -154.5t21.5 -82.5 t59.5 -22.5t74 20.5t64.5 47t31.5 60q10 -4 40 -20t57.5 -36.5t44 -41t2.5 -31.5q-57 -84 -99 -151q-37 -57 -65.5 -105.5t-24.5 -52.5q139 -133 209 -280.5t58 -339.5q-10 -102 -52.5 -187.5t-101.5 -143.5t-127 -86t-131 -15q-45 8 -79 41.5t-49 79.5t-8 99.5t41.5 103.5 t103.5 90t175 61q-4 102 -46 177t-92 124t-90 73.5t-40 28.5q10 39 41 94.5t67.5 115.5t70.5 121.5t52 113.5q-57 -39 -110.5 -50.5t-100.5 -1.5q-29 -49 -70.5 -100t-95.5 -98q4 -41 -6 -92.5t-41 -114.5q-45 -92 -127 -166t-179 -118t-199.5 -52t-188.5 32t-146.5 134 t-72.5 254q-174 86 -273.5 201.5t-133 239.5t-8 247zM110.5 815q20.5 -98 98.5 -185t219 -143q4 27 8 70t8 61q14 80 40 176.5t56.5 191.5t63.5 179t60 142q70 -18 111.5 -38t63 -38.5t27.5 -32.5t4 -22q-10 -29 -37.5 -112t-59.5 -193.5t-60.5 -237.5t-38.5 -242 q147 -27 279 4t241 90q-29 51 -116 76t-253 2q-39 18 -40 62.5t22 72.5q246 338 227.5 508t-299.5 168q-164 0 -290 -51t-206.5 -131t-114.5 -179.5t-13.5 -197.5zM666 352q-2 -80 8 -141t35.5 -100t70.5 -49.5t113 12.5q61 20 118.5 59t100.5 86t69.5 100.5t26.5 100.5 q-53 -29 -120.5 -48.5t-140.5 -28.5t-145.5 -7t-135.5 16zM1561 -339q2 -34 20 -54t47 -21.5t59.5 26.5t59.5 89t45 166q-90 -25 -140 -60.5t-71.5 -73.5t-19.5 -72z" />
<glyph unicode="C&#x7a;" horiz-adv-x="1796" d="M2 570q-2 124 24.5 255t82 251t139.5 222.5t196 171.5q76 47 152 68t147 16q117 -4 195 -59t112.5 -131t23.5 -158t-72.5 -142t-175 -85t-281.5 18q131 16 219 56.5t140 91.5t70.5 106.5t7.5 100.5t-50 73.5t-98 28.5q-98 -2 -184.5 -65.5t-154 -165t-113.5 -228.5 t-64.5 -256t-6 -248.5t60.5 -206.5t135 -130t218 -17q109 23 189.5 87.5t137 154.5t92.5 198.5t54 217.5q-37 33 -60.5 79t-29.5 99t5 111.5t46 115.5l180 -104q-37 -98 -38 -154.5t22 -82t59.5 -22.5t72.5 20t63.5 47t31.5 61q10 -4 40 -20.5t57.5 -37t44 -41t2.5 -32.5 q-57 -84 -99 -152q-37 -57 -65.5 -105.5t-24.5 -52.5q139 -133 209 -280.5t60 -339.5q-12 -102 -54.5 -187.5t-101.5 -143.5t-127 -86t-131 -15q-45 8 -79 41.5t-49 80t-8 99.5t41.5 103t103.5 91t175 62q-2 100 -45 175t-92 125t-90 74.5t-41 28.5q10 39 41 94.5t67.5 116 t71.5 121.5t53 113q-72 -49 -137 -55.5t-119 18.5q-33 -145 -96 -277.5t-156.5 -237t-214 -171t-268.5 -80.5q-127 -12 -223 30t-159.5 122.5t-97.5 190t-36 233.5zM1306.5 -351q8.5 -34 32.5 -48q20 -12 48 -8t55.5 34.5t52.5 90t41 155.5q-96 -29 -147.5 -69t-71 -80.5 t-11 -74.5z" />
<glyph unicode="D&#x7a;" horiz-adv-x="2168" d="M13.5 860q-27.5 125 2 249t104.5 224.5t186.5 167t246.5 76.5q188 14 332.5 -32t246 -134t162 -209t82 -255t5 -272t-67.5 -259h2q98 43 176 125t119 221q-47 27 -80 74t-45 104t-1 122.5t50 129.5l178 -105q-37 -98 -38 -154t21.5 -82t59.5 -23t74 20.5t64.5 47.5 t31.5 60q10 -4 40 -20t57.5 -36.5t44 -41t1.5 -31.5q-57 -84 -98 -151q-37 -57 -65.5 -105.5t-24.5 -52.5q139 -133 208.5 -280t57.5 -340q-10 -102 -52 -187.5t-101.5 -144t-127 -86t-130.5 -15.5q-45 8 -79 42t-49.5 80t-8 99.5t42 103.5t103 90t175.5 61q-4 102 -46 177 t-92 124t-90 73.5t-40 28.5q10 39 40.5 94.5t67.5 116.5t72 122.5t53 110.5q-57 -39 -110.5 -50t-100.5 -1q-47 -152 -150.5 -237.5t-230.5 -128.5q-66 -135 -175 -232.5t-263 -130.5q-109 -25 -190.5 -1t-138 81t-87 143t-37.5 187q-172 86 -266 201.5t-121.5 240.5z M92.5 1000.5q-20.5 -95.5 7 -190.5t102 -181t201.5 -144q2 12 4.5 32t4.5 39t4 36.5t4 25.5q14 82 39.5 178.5t56.5 190.5t62.5 178t58.5 142q70 -18 112 -38t64.5 -37.5t27.5 -31.5t3 -22q-10 -29 -36 -114t-56.5 -196.5t-58 -236.5t-42.5 -236q63 -18 137 -28 q63 -10 143.5 -14.5t168.5 5.5q35 98 49 215t5 232t-45 221.5t-102.5 185t-166 121.5t-234.5 35q-150 -10 -257 -62.5t-171.5 -131t-85 -174zM643 330q-4 -72 6 -129.5t36 -93t71 -46t112 12.5q70 23 124 89.5t93 160.5q-41 -6 -98 -9.5t-118.5 -3.5t-121 4t-104.5 15z M1681.5 -352q6.5 -35 28.5 -51q20 -14 48 -11.5t56.5 32.5t54.5 89.5t42 157.5q-94 -27 -145.5 -66t-71 -77.5t-13 -73.5z" />
<glyph unicode="E&#x7a;" horiz-adv-x="1636" d="M1 447.5q5 97.5 43 189.5t107.5 171t172.5 128q-88 78 -118 167t-14.5 172t70.5 152.5t136 112.5t179.5 51t202.5 -32q55 -23 95 -74t44.5 -105.5t-36.5 -99.5t-148 -55q43 57 64.5 113.5t15.5 99.5t-44 70.5t-114 27.5q-74 0 -130 -29.5t-88.5 -80t-39 -117t20 -139 t89 -147.5t167.5 -142q-86 -6 -163 -55.5t-136.5 -123t-94 -163.5t-35.5 -178.5t39 -166t130 -126.5q53 -29 121.5 -22t141.5 44t142.5 101.5t123.5 152.5t88 196.5t34 231.5q-45 27 -74.5 74t-41 103.5t0 121t47.5 125.5l181 -104q-39 -98 -39 -154.5t22.5 -82.5 t59.5 -22.5t72.5 20.5t63 47t32.5 61q12 -4 40.5 -20.5t56.5 -37t45 -41t3 -31.5l-98 -151q-37 -57 -66 -105.5t-24 -52.5q139 -133 207.5 -280.5t58.5 -339.5q-12 -102 -54 -187.5t-100.5 -143.5t-127 -86t-132.5 -15q-45 8 -79 41.5t-49 80t-8 99.5t43 103t103.5 90 t173.5 61q-2 102 -45 177t-92 124t-90 73.5t-41 28.5q10 39 41 94.5t68 115.5t71.5 121.5t53.5 113.5q-55 -39 -108.5 -50.5t-100.5 -1.5q-6 -70 -28.5 -161t-68 -184t-112 -179t-159.5 -142.5t-214 -73.5t-272 24q-100 27 -166 91t-95.5 149t-24.5 182.5zM1147 -335 q2 -34 18 -54q18 -20 47 -22.5t60 24.5t59.5 88.5t44.5 167.5q-88 -25 -138 -60.5t-71.5 -72.5t-19.5 -71z" />
<glyph unicode="G&#x7a;" horiz-adv-x="1884" d="M3 662.5q5 123.5 38 249.5t92 237q76 139 165 222t180 121t178 37t161 -32q102 -43 152.5 -108.5t56.5 -135t-27.5 -135t-100.5 -107.5t-162 -52.5t-210 28.5q84 2 155 36t122 82t81.5 104.5t34 107.5t-24.5 89t-89 48q-66 10 -131.5 -20.5t-122.5 -83t-102.5 -116 t-69.5 -120.5q-29 -70 -53.5 -160t-38 -187t-14.5 -195.5t16.5 -182.5t55.5 -148.5t101 -93.5q80 -39 139.5 -11t100.5 94.5t66.5 160.5t40 189.5t20.5 179.5t6 133q49 -10 93 -20.5t77 -20.5t52.5 -20.5t19.5 -20.5q-10 -195 -32.5 -394.5t-59.5 -391.5q61 61 119.5 151 t104.5 192.5t74.5 210t32.5 207.5q-41 31 -67.5 77t-35.5 101.5t2 117t48 120.5l180 -104q-39 -98 -38.5 -154.5t23 -82t59 -22.5t72.5 20.5t63.5 47t31.5 60.5q12 -4 41 -20.5t56.5 -37t45 -41t3.5 -30.5q-57 -84 -98 -152q-37 -57 -66 -105.5t-25 -52.5 q139 -133 209 -280.5t58 -339.5q-12 -102 -54.5 -187.5t-100.5 -143.5t-126 -86t-131 -15q-45 8 -79 41.5t-49 80t-9 99.5t42 103t103.5 90t175.5 61q-4 102 -46 177t-92 124t-91 73.5t-41 28.5q10 39 42 94.5t68.5 116t70.5 122t52 112.5q-59 -41 -116.5 -51.5t-106.5 2.5 q-6 -111 -47 -230t-100.5 -229.5t-133 -202.5t-143.5 -147q-2 -10 -4 -21.5t-4 -21.5q-41 -164 -103.5 -258.5t-128 -134.5t-129 -34.5t-108.5 40t-64.5 90t3 114t92 113.5t205.5 88q20 78 35.5 162t25.5 174q-29 -49 -64.5 -97.5t-80.5 -85t-99.5 -57t-117.5 -14.5 q-109 10 -188 68.5t-129 149.5t-71.5 207t-16.5 239.5zM474 -370.5q9 -28.5 36 -30.5q16 -2 38.5 10t46 40.5t48 77.5t47.5 121q-92 -29 -142 -70.5t-66.5 -80.5t-7.5 -67.5zM1399.5 -358.5q13.5 -34.5 42.5 -44.5q20 -6 45.5 3t51.5 40.5t48.5 88t36.5 146.5 q-102 -29 -153.5 -72t-68 -85t-3 -76.5z" />
<glyph unicode="H&#x7a;" horiz-adv-x="1910" d="M3 1285q11 77 46 132q35 57 99.5 89t136 36t139.5 -21.5t108 -82.5q39 -53 54.5 -121t16.5 -146.5t-11 -171t-29 -194.5q61 -27 123 -45.5t119 -32.5q16 121 38.5 250t44 236.5t37 182t17.5 89.5q70 -23 118 -46.5t77.5 -47t42 -42t10.5 -26.5q-27 -100 -51 -211 q-23 -94 -47.5 -209t-40.5 -229q72 -18 122 -16.5t82.5 17t51 40t28.5 53.5q-43 29 -71.5 76t-39 103.5t1 118.5t48.5 124l180 -105q-39 -98 -39 -154.5t22.5 -82t59.5 -22.5t73 20.5t63.5 47.5t31.5 60q12 -4 41 -20t56.5 -36.5t45 -41t2.5 -33.5q-57 -84 -98 -151 q-37 -57 -65.5 -105.5t-24.5 -52.5q139 -133 209 -280.5t57 -339.5q-12 -102 -54 -187.5t-100.5 -144t-126 -86t-130.5 -15.5q-45 8 -79 42t-49.5 80t-9 99.5t42 103.5t103 91t176.5 62q-4 100 -46 174.5t-92 125t-91 75t-39 28.5q10 39 40.5 94.5t67.5 115.5t71 121.5 t52 112.5q-66 -47 -128 -55t-116 12q-18 -35 -46.5 -65.5t-70.5 -53t-97.5 -32.5t-127.5 -4q-10 -68 -13 -120.5t-1 -105.5q2 -131 28.5 -195.5t71.5 -84t106.5 -3t131.5 47.5q2 2 3 -15.5t1 -23.5q-141 -78 -255 -91t-190.5 35t-113.5 157.5t-29 279.5q2 41 4 75t11 87 q-12 2 -42 9t-66 18.5t-75 22.5t-69 24q-10 -41 -28.5 -127t-39 -181.5t-40 -185.5t-30.5 -139q-6 -29 -33.5 -46.5t-68.5 -24.5t-89 -5t-93 10q31 98 66.5 218t66.5 233.5t54.5 206t31.5 133.5q-139 74 -215 159.5t-103.5 168.5t-16.5 160zM65.5 1218.5 q14.5 -73.5 81 -161.5t209.5 -174q31 180 20 295.5t-47 177t-86 76t-93 -6.5q-45 -23 -72 -78t-12.5 -128.5zM1423.5 -364.5q10.5 -34.5 36.5 -47.5q20 -10 47 -4t54.5 37t51.5 89.5t40 152.5q-98 -29 -150.5 -70t-71 -82t-8 -75.5z" />
<glyph unicode="I&#x7a;" horiz-adv-x="1472" d="M0 989q106 -18 188 -24q39 152 78 273.5t105 225.5q57 66 114.5 85.5t108.5 2t91 -62.5t61.5 -106.5t18.5 -132t-38 -138.5t-106.5 -126t-186.5 -95q-16 -68 -29.5 -138.5t-24.5 -138t-17.5 -131t-6.5 -116.5q-2 -121 19.5 -186.5t60.5 -94.5q31 -25 72 1t84 84t85 138 t80 167t66.5 171t44.5 148q-35 33 -56 79t-27.5 98t6 108.5t47.5 111.5l178 -105q-37 -98 -38 -154t21.5 -82t59.5 -23t73.5 20.5t64.5 47.5t32 60q10 -4 39.5 -20t57.5 -36.5t44 -41t2 -31.5q-57 -84 -98 -151q-37 -57 -65.5 -105.5t-24.5 -52.5q137 -133 207.5 -281.5 t58.5 -338.5q-10 -102 -52 -187.5t-101.5 -144t-127 -86t-131.5 -15.5q-45 8 -78.5 42t-49 80t-8.5 99.5t42 103.5t103.5 90t175.5 61q-4 102 -46 177t-92.5 124t-90.5 73.5t-40 28.5q10 39 41 94.5t68 115.5t70.5 121.5t52.5 112.5q-70 -47 -133.5 -54t-116.5 16 q-18 -53 -50 -128t-71 -157t-86 -163t-96 -146.5t-101.5 -108.5t-101.5 -49q-166 -18 -251 100.5t-66 374.5q4 47 13 111.5t18.5 123t15.5 99.5l6 41q-59 -4 -123 0q-4 0 -10 21.5t-12.5 47t-11.5 48t-9 24.5zM455 985q111 29 170 92.5t81.5 130t13.5 121.5t-38 70 q-20 10 -47 -3.5t-57.5 -60.5t-62 -133t-60.5 -217zM985 -358.5q8 -34.5 33 -49.5q20 -12 48 -7t55.5 36t52 89.5t40.5 154.5q-96 -27 -148 -68t-70.5 -81t-10.5 -74.5z" />
<glyph unicode="J&#x7a;" horiz-adv-x="1677" d="M3 -281q5 72 34 145t74 145.5t98 135t106.5 110.5t98.5 77q18 55 35.5 141t32 168t24.5 143.5t10 67.5q-106 66 -159.5 155t-61.5 180t22.5 175t92 136t146.5 63.5t185 -39.5q39 -20 57.5 -65.5t23.5 -106t0 -128t-14 -132t-19.5 -120t-16.5 -89.5q8 -8 41 -20.5 t75 -19.5t85 -6t67 17q-49 68 -54 165t54 195l181 -104q-37 -98 -38 -154.5t21.5 -82t59 -22.5t72.5 20.5t63.5 47t32.5 60.5q12 -4 40.5 -20.5t56 -37t45 -41t3.5 -30.5q-57 -84 -98 -152q-37 -57 -66 -105t-24 -52q137 -133 207.5 -282t58.5 -339q-12 -102 -54 -187 t-100.5 -143.5t-126 -86t-131.5 -15.5q-45 8 -79 41t-49 79t-9 100t42 104.5t103.5 90.5t173.5 60q-2 102 -45 177t-92 124t-90 73.5t-41 29.5q10 39 42 94t69 115.5t70.5 122t52.5 112.5q-92 -66 -175 -57.5t-141 61.5q-53 -53 -140 -62.5t-179 19.5q-33 -184 -70 -377.5 t-87 -364.5t-115.5 -303.5t-153.5 -191.5q-47 -33 -94.5 -41t-88.5 2t-72.5 35t-49.5 59q-27 59 -22 131zM58 -267q-5 -46 18 -83q14 -27 40.5 -26t58.5 27.5t64.5 80t59.5 133.5q14 43 25.5 79t20.5 70.5t18.5 71.5t19.5 82q-33 -25 -75 -61.5t-84 -81.5t-77.5 -96.5 t-59.5 -100.5t-29 -95zM356 1266.5q0 -56.5 18.5 -111.5t56.5 -103t101 -79q12 51 24.5 137t12.5 169t-18.5 141.5t-67.5 56.5q-39 -4 -67.5 -34t-44 -75t-15.5 -101.5zM1188 -326.5q4 -33.5 24 -52.5q18 -18 47 -17t59 29.5t56.5 89t42.5 162.5q-90 -25 -141 -62.5 t-71.5 -76.5t-16.5 -72.5z" />
<glyph unicode="M&#x7a;" horiz-adv-x="2549" d="M3 258q-7 68 23.5 129.5t107.5 107.5t210 60q47 215 76 437t51 440q2 14 46 32.5t96.5 28.5t97.5 5t49 -36q6 -47 16 -110.5t24.5 -136t31 -147.5t33 -142.5t31.5 -122.5t28 -88q4 -12 38.5 22.5t85 98t110 147.5t114.5 172t98 169t64 140q8 27 51 14.5t90 -42t83 -63.5 t34 -48q-39 -190 -70 -373q-12 -78 -24.5 -160.5t-21.5 -163.5t-13 -156t-2 -136q6 -162 36.5 -220.5t72.5 -42t90 90.5t92 176t77 217t45 213q-43 29 -71.5 76t-39 103.5t1 118.5t48.5 124l180 -105q-39 -98 -39 -154t22.5 -82t59.5 -23t73 20.5t63.5 47.5t31.5 60 q10 -4 40 -20t57.5 -36.5t44 -41t1.5 -33.5q-57 -84 -98 -151q-37 -57 -65.5 -105.5t-24.5 -52.5q139 -133 208.5 -280.5t59.5 -339.5q-12 -102 -54 -187.5t-101.5 -144t-127 -86t-130.5 -15.5q-45 8 -79 42t-49.5 80t-8 99.5t42 103.5t103 91t175.5 62q-2 100 -45 174.5 t-92.5 125t-90 75t-40.5 28.5q10 39 40.5 94.5t67.5 115.5t72 121.5t53 112.5q-61 -43 -118.5 -53t-106.5 4q-8 -59 -30.5 -144t-56.5 -175t-79 -176t-102.5 -147.5t-125 -87t-143.5 2.5q-98 37 -149.5 150.5t-46.5 306.5q2 113 15 223.5t36 261.5q-18 -18 -57 -71.5 t-88.5 -115.5t-102.5 -123.5t-102.5 -99.5t-89 -42t-58.5 49q-63 172 -103 323.5t-63 249.5q-23 -150 -46 -299t-52 -297q35 -10 56.5 -22t32.5 -29.5t13 -42t-2 -61.5q-59 33 -121 55q-18 -80 -39.5 -150.5t-48.5 -117.5q-51 -98 -113.5 -137t-124 -34t-115.5 45t-88 98 t-41 126zM45 304q-8 -42 1 -79t31.5 -63.5t51.5 -30.5q41 -6 74 36t57.5 100.5t40.5 116.5t23 87q-92 -4 -150.5 -28.5t-89.5 -60.5t-39 -78zM2058.5 -337q0.5 -34 16.5 -54q16 -23 45.5 -27t61.5 22.5t60.5 89t47.5 171.5q-86 -25 -135.5 -59.5t-73 -71.5t-23 -71z" />
<glyph unicode="P&#x7a;" horiz-adv-x="2136" d="M0 174q2 6 17.5 20.5t17.5 12.5q55 -51 99 -82t84 -25t79 57.5t82 168.5q23 59 42 137t38 168q-51 27 -68.5 59.5t-9.5 63t39 54t78 32.5q16 102 29.5 196t23.5 168q10 86 20 162q0 8 17.5 21.5t52.5 23.5t88 16.5t127 2.5q-2 -12 -11 -71t-24.5 -148t-35 -200.5 t-42.5 -226.5q16 -8 38 -21t38 -28q20 -16 39 -35q94 35 158.5 104.5t95.5 157t26 181.5t-49.5 175t-131.5 140.5t-218 77.5q-119 16 -216 -34t-156.5 -139t-71.5 -204t41 -231q-39 10 -66.5 27.5t-46 36t-27 33.5t-10.5 24q-25 113 18.5 212t129.5 174.5t202.5 123 t242.5 55.5t247 -27t217 -125q86 -80 114.5 -189.5t5 -223t-96 -217t-189.5 -170.5q-35 -18 -70.5 -33t-74.5 -25q100 -113 197.5 -140.5t180.5 7.5t145.5 121t92.5 201q-39 31 -64.5 76.5t-33.5 101t3 115t48 118.5l178 -102q-39 -98 -39 -155.5t23 -82t59.5 -22.5 t73.5 19.5t64.5 47t31.5 60.5q10 -4 39 -20.5t56.5 -37t45 -41t3.5 -30.5q-57 -84 -99 -152q-37 -57 -65.5 -105t-24.5 -53q139 -133 209 -280.5t58 -339.5q-10 -102 -52.5 -187t-101.5 -143.5t-127 -86.5t-131 -15q-45 8 -79 42t-49 80t-8 99t41.5 103.5t103.5 91t175 61.5 q-4 100 -46 175t-92 125t-90 74.5t-40 28.5q10 37 41 92.5t67.5 117t70.5 123t52 112.5q-72 -51 -139.5 -57.5t-120.5 22.5q-43 -133 -131 -231.5t-198.5 -135t-229.5 1t-223 179.5q-27 -2 -52.5 -3t-52.5 1q-31 -143 -59 -238q-45 -156 -112.5 -239t-151.5 -101t-180.5 27 t-198.5 145zM419 737.5q-5 -16.5 6 -34t42 -29.5q6 29 12 59.5t10 61.5q-29 -10 -47 -25.5t-23 -32zM719 664q8 2 16.5 2t16.5 2q-4 4 -6.5 8t-4.5 8q-4 4 -7 9t-7 9q-2 -10 -3 -19t-5 -19zM1648 -317.5q-1 -32.5 13 -55.5q14 -25 44 -30t62.5 20t62.5 87t48 173 q-84 -23 -134 -56.5t-72.5 -69.5t-23.5 -68.5z" />
<glyph unicode="S&#x7a;" horiz-adv-x="1558" d="M1 276.5q-7 75.5 41 140t155.5 104.5t287.5 32q-33 47 -79 90t-84 90q-51 63 -90 134t-60.5 147t-23 154.5t25.5 158.5q20 68 61 115t94.5 77.5t116 45t127.5 12.5q96 -4 160 -51t91.5 -113.5t18.5 -137.5t-55.5 -119t-131.5 -60.5t-210 37.5q143 39 217 104.5 t87.5 127.5t-24.5 107.5t-116 43.5q-106 -4 -160.5 -59.5t-68.5 -132.5t4 -162t55 -150q37 -61 79 -110.5t84 -96.5t80 -100.5t67 -122.5q0 -2 4 -11q2 -4 4 -10q78 14 140.5 67.5t92.5 139.5q-45 27 -75.5 74t-42 104.5t-1 122t49.5 127.5l180 -104q-37 -98 -38 -154.5 t21.5 -82.5t59.5 -22.5t72.5 20.5t63.5 47t32 61q12 -4 40.5 -20.5t56.5 -37t44 -41t2 -31.5q-55 -84 -96 -151q-18 -29 -34.5 -56.5t-30 -49t-20.5 -36t-5 -16.5q137 -133 206.5 -280.5t59.5 -339.5q-12 -102 -54 -187.5t-101.5 -143.5t-127 -86t-131.5 -15 q-45 8 -78.5 41.5t-49 80t-8.5 99.5t42 103t103.5 90t175.5 61q-2 102 -45 177t-92.5 124t-90.5 73.5t-41 28.5q10 39 41 94.5t68 115.5t71.5 121.5t53.5 113.5q-59 -41 -116.5 -51.5t-104.5 1.5q-39 -86 -110 -149.5t-171 -71.5q29 -104 14.5 -197.5t-64.5 -163 t-134 -113.5t-195 -50q-113 -8 -199 33t-135 105.5t-56 140zM104 247.5q-2 -65.5 29 -114.5t88.5 -72.5t134.5 2.5q61 20 105.5 68.5t66 112t17.5 134t-37 136.5q-141 -2 -228 -43t-130.5 -99.5t-45.5 -124zM1071 -358.5q10 -34.5 35 -47.5q20 -10 48 -3.5t54.5 37t51 90 t38.5 151.5q-98 -29 -150 -70t-69.5 -82t-7.5 -75.5z" />
<glyph unicode="T&#x7a;" horiz-adv-x="1675" d="M3 1143q-7 76 16.5 145.5t81 128t149.5 88.5q94 31 190.5 29t195.5 -20.5t203.5 -44t215 -40t229.5 -8.5t248 49q-27 -51 -63.5 -106t-88.5 -78q-53 -23 -115.5 -27t-128 3.5t-129 21.5t-120.5 29q-6 -25 -20.5 -84.5t-33 -140t-38 -175t-35 -191.5t-25.5 -188t-8 -165 q2 -164 26.5 -223.5t59.5 -45t77 87t83 173t73.5 212t49.5 205.5q-41 31 -69 77t-37 102.5t2.5 118t47.5 120.5l179 -104q-39 -98 -39 -154.5t22.5 -82.5t59 -22.5t73.5 20.5t64.5 47t32.5 61q10 -4 38.5 -20.5t56 -37t45 -41t3.5 -33.5q-57 -84 -98 -151 q-37 -57 -66 -105.5t-25 -52.5q139 -133 209 -280.5t58 -339.5q-10 -102 -52 -187.5t-101.5 -143.5t-127 -86t-131.5 -15q-45 8 -79 41.5t-49 79.5t-8 99.5t42 103.5t103.5 91t174.5 62q-4 100 -46 175t-92 125t-90 74.5t-40 28.5q10 39 41 94.5t68 115.5t70.5 121.5 t52.5 113.5q-61 -43 -120 -53.5t-108 5.5q-14 -74 -42.5 -163.5t-66.5 -180t-83 -171t-95.5 -138t-104.5 -82t-107 -2.5q-92 39 -141.5 159t-39.5 308q4 61 16.5 144t32 171.5t42 178.5t45 167.5t42 136t31.5 87.5q-78 25 -150.5 50.5t-138 38.5t-124 8t-105.5 -40 q-76 -55 -87 -136t35 -155.5t147.5 -129t248.5 -56.5q8 0 -3 -21.5t-39 -46t-72 -41t-99 -6.5q-90 16 -154.5 64.5t-101.5 113t-44 140.5zM1188 -350q6 -35 29 -51q18 -14 45.5 -11.5t57.5 32.5t55.5 90.5t41.5 158.5q-94 -27 -145 -66t-70.5 -78.5t-13.5 -74.5z" />
<glyph unicode="U&#x7a;" horiz-adv-x="2111" d="M0 1223q0 98 52 174t128 114.5t160 35.5t147.5 -59t92 -174t-8.5 -306q23 8 45 16q16 6 34 11t24 7q4 0 6 -22.5t-8 -52t-40 -56t-87 -32.5q-33 -139 -53.5 -269.5t-22.5 -240.5q-2 -154 28.5 -222.5t77 -74.5t101.5 40t105 119.5t89 163.5t52 174q6 41 20 122 t33.5 179.5t40 204t39 194.5t31 150.5t14.5 73.5q70 -23 117 -47.5t76.5 -48t41 -42t8.5 -26.5q-53 -184 -94 -358q-18 -74 -34.5 -155t-30 -159.5t-21.5 -152.5t-8 -135q-2 -104 15.5 -168t48.5 -97q20 -23 65 12.5t94 122.5t94.5 222t63.5 313q-43 29 -71.5 75t-39 103.5 t1 120t48.5 123.5l180 -104q-39 -98 -39 -154.5t22.5 -82.5t59.5 -22.5t72.5 20.5t63.5 47t32 61q12 -4 40.5 -20.5t56.5 -37t45 -41t3 -33.5l-98 -151q-37 -57 -65.5 -104.5t-24.5 -51.5q139 -135 207.5 -282.5t58.5 -339.5q-12 -102 -54 -187.5t-100.5 -143.5t-127 -86 t-132.5 -15q-45 8 -78.5 41.5t-49 79.5t-8.5 100.5t43 104.5t103.5 90t174.5 61q-2 102 -45 177t-92.5 124t-90.5 73.5t-41 28.5q10 39 41 94.5t68 115.5t71.5 121.5t53.5 113.5q-59 -41 -116.5 -52.5t-106.5 2.5q-10 -61 -34 -143t-57.5 -166t-74.5 -165t-88.5 -142 t-97.5 -96t-101 -29q-195 23 -234 270q-72 -98 -153.5 -162.5t-161.5 -92t-152.5 -16.5t-125 66.5t-80 157t-15.5 252.5q6 84 21.5 187.5t38.5 220.5q-78 16 -132.5 52t-88 83t-50 100.5t-16.5 102.5zM62.5 1241.5q3.5 -65.5 54.5 -129t174 -100.5l18 -4q25 152 20 246 t-29 142t-59.5 57t-70.5 -9q-45 -25 -78 -81t-29.5 -121.5zM1628 -369.5q14 -33.5 43 -42.5q20 -6 47 4.5t51.5 43t46 89t35.5 144.5q-104 -29 -155 -74t-66.5 -88t-1.5 -76.5z" />
<glyph unicode="Y&#x7a;" horiz-adv-x="1871" d="M3 1244q-9 75 13.5 138.5t63.5 102.5q51 47 125 67.5t143.5 17.5t119.5 -30t54 -76q2 -45 -5 -100t-18.5 -117.5t-25.5 -128t-24 -129.5q33 -10 61 -18q25 -8 50.5 -14.5t41.5 -10.5q-20 -45 -49 -62.5t-55.5 -20.5t-46 2t-23.5 7q-14 -53 -26.5 -123.5t-20.5 -146.5 t-10 -150.5t4 -135t21.5 -102.5t43.5 -50q53 -16 98.5 22.5t83 115.5t68.5 183.5t55.5 223t42 236.5t29.5 223.5t18.5 182t6.5 113.5q49 -10 93 -20t76.5 -20.5t52 -20.5t19.5 -21q-8 -166 -25.5 -345t-42 -360t-57 -360.5t-69.5 -345.5q129 39 207 130.5t122 206t61 241.5 t21 239q-43 29 -72.5 76t-39.5 103.5t1 120t48 124.5l178 -104q-39 -98 -39 -154.5t22.5 -82t59.5 -22.5t74 20.5t64.5 47t31.5 60.5q10 -4 40 -20.5t57.5 -37t44 -41t2.5 -30.5q-57 -84 -99 -152q-37 -57 -65.5 -105t-24.5 -52q139 -133 209 -280.5t57 -340.5 q-10 -102 -52 -187t-101.5 -143.5t-127 -86t-130.5 -15.5q-45 8 -79 42t-49.5 80t-8 99t42 103.5t103.5 90.5t175 60q-4 102 -46 177t-92 124t-90 73.5t-40 29.5q10 39 40.5 94t67.5 115.5t71 122t52 112.5q-59 -41 -113.5 -51t-103.5 2q-12 -117 -41 -249t-86 -252 t-147 -216t-224 -141l-4 -19q-43 -158 -104.5 -247t-127 -125.5t-128 -29.5t-105.5 42t-61 90t4.5 113.5t93 113t203.5 86.5q8 39 21.5 105.5t26.5 140.5t23.5 143.5t16.5 112.5q-10 -59 -38.5 -134t-72 -138.5t-99.5 -105.5t-120 -36q-106 10 -162.5 77t-80 163 t-20.5 208.5t16.5 213t29 174.5t17.5 96q-94 68 -140.5 145.5t-55.5 152.5zM73.5 1260.5q10.5 -52.5 46 -102.5t101.5 -85q0 -2 7.5 36t16.5 86t17 89t8 43q18 78 8 118t-35.5 51t-61.5 -5t-66 -51q-29 -31 -40.5 -79t-1 -100.5zM402.5 -325.5q-3.5 -28.5 9.5 -47.5 q12 -18 35.5 -19t52 23.5t61.5 80t62 147.5q-76 -25 -123 -56.5t-70.5 -65.5t-27 -62.5zM1388.5 -350q14.5 -35 43.5 -43q20 -6 46.5 4t52 42t47.5 88t36 144q-102 -29 -154.5 -71.5t-69 -85.5t-2 -78z" />
<glyph unicode="&#xd;" horiz-adv-x="471" />
<glyph unicode=" "  horiz-adv-x="471" />
<glyph unicode="&#x09;" horiz-adv-x="471" />
<glyph unicode="&#xa0;" horiz-adv-x="471" />
<glyph unicode="!" horiz-adv-x="485" d="M8 96q16 47 59.5 71.5t84.5 10.5q43 -14 61 -57t2 -90t-59 -70.5t-86 -9.5t-60.5 56t-1.5 89zM100 334q16 63 34 159.5t34 205t29.5 221t24.5 213t17.5 177t6.5 113.5q109 -16 171 -33.5t62 -33.5q-4 -37 -23.5 -126t-47 -203t-61.5 -235.5t-64.5 -224t-55 -171 t-34.5 -72.5q-6 -4 -20.5 -2t-30 4t-28 5t-14.5 3z" />
<glyph unicode="&#x22;" horiz-adv-x="194" d="M0 932q14 63 31 131q12 57 26.5 124t24.5 130l131 -27q-4 -8 -17.5 -46t-35 -91t-48 -115.5t-55.5 -119.5zM180 932l58 -14q29 57 55 119.5t47.5 115.5t35 91t17.5 46l-131 27q-10 -63 -24.5 -130t-26.5 -124q-16 -68 -31 -131z" />
<glyph unicode="#" horiz-adv-x="1226" d="M0 330q66 -2 127 -3t125 -1l104 338q-76 -2 -153.5 -4.5t-165.5 -6.5l-37 88q98 -4 191.5 -5t185.5 -3q33 106 65.5 213t67.5 219l76 -59q-39 -102 -72 -193.5t-61 -179.5q84 -2 164.5 -3t166.5 -3q33 109 66 216.5t68 221.5l77 -59q-41 -104 -73.5 -196.5t-61.5 -182.5 q66 -2 134.5 -2t140.5 -2l-33 -84q-72 6 -137.5 10t-128.5 8q-27 -86 -51.5 -170t-49.5 -170q193 -4 400 -6l-33 -84q-106 10 -200.5 15.5t-184.5 9.5q-23 -82 -44.5 -167t-43.5 -177l-105 -21q29 94 57.5 184.5t57.5 182.5q-82 2 -163 1t-167 -3q-23 -82 -45 -167t-45 -177 l-102 -21q29 92 56.5 181.5t55.5 181.5l-94 -4t-98 -4zM328 324l331 -7l105 345q-86 4 -167 4h-167q-29 -86 -53.5 -170t-48.5 -172z" />
<glyph unicode="$" horiz-adv-x="866" d="M3 341q7 65 47 110t114 61t178 -18q-78 -12 -129 -49t-76.5 -84.5t-26.5 -98.5t20.5 -91t66.5 -62.5t112 -12.5q18 111 37 218.5t37 215.5q-61 49 -111.5 107.5t-81 122t-37 131t22.5 135.5q37 88 125 132t197 48l30 189l82 -72q-6 -29 -12 -59.5t-14 -59.5 q76 -8 125 -42t71.5 -77t17.5 -89t-38 -80.5t-94.5 -52t-151.5 -1.5q-6 -35 -13 -69.5t-14 -69.5q31 -29 62 -55.5t60.5 -54t55 -60.5t46.5 -72q41 -84 35.5 -157.5t-49.5 -130t-122.5 -93.5t-185.5 -43q-8 -55 -14 -110.5t-15 -114.5l-102 -29q12 63 23.5 127t21.5 127 q-109 8 -177.5 53.5t-99 105.5t-23.5 125zM364.5 992q-4.5 -50 12 -102t47.5 -93l4 -4l14 88q-4 0 -6 1t-6 1q4 2 6 2t6 2q10 66 22.5 130t22.5 130q-61 -20 -89.5 -62.5t-33 -92.5zM397 123q49 25 81 67.5t40 92t-8 100.5t-61 96q-14 -86 -26.5 -174t-25.5 -182zM522 909 q98 33 144.5 77t49.5 84t-33 67.5t-99 25.5h-9q-16 -66 -28 -129t-25 -125z" />
<glyph unicode="%" horiz-adv-x="1005" d="M3 899q9 70 42 131.5t88 105.5t131 52q27 2 49.5 -4t32.5 -17.5t6 -21.5t-26 -17q-10 -2 -21.5 2.5t-27 7.5t-32 4t-34.5 -5q-59 -18 -95 -88t-26 -160q4 -49 22.5 -92t45 -74t59.5 -47.5t70 -13.5q35 2 64.5 24.5t49 57t28.5 79.5t5 95q-4 27 -10 51t-16 47q6 27 20 42 t30.5 17t32 -9t25.5 -38q27 -59 66 -90q35 -29 86 -32t123 52q12 18 24 38t25 40q25 39 48 39t37.5 -23.5t11.5 -59t-30 -68.5q-133 -152 -238.5 -259.5t-200.5 -200.5t-186.5 -188.5t-195.5 -222.5l-47 74q61 78 141 153.5t169 161.5t184.5 188.5t189.5 231.5 q-63 -23 -114.5 -9.5t-86.5 36.5q-10 -53 -35.5 -104.5t-66.5 -89.5t-96.5 -59.5t-122.5 -17.5q-78 6 -124 48.5t-64.5 102.5t-9.5 130zM452.5 231.5q14.5 73.5 54.5 135t105.5 98.5t153.5 31q84 -6 133 -53.5t65.5 -113t3 -139t-55.5 -134t-108.5 -98.5t-156.5 -32 q-82 6 -130 53.5t-63.5 113t-1 139zM537 197q4 -49 22.5 -92.5t44 -74t59 -47t68.5 -12.5q37 2 66.5 23.5t49 56.5t29 80t5.5 94q-6 49 -23.5 91t-44.5 73t-60.5 47.5t-68.5 14.5q-35 -4 -64.5 -24.5t-50 -55.5t-30 -80t-2.5 -94z" />
<glyph unicode="&#x26;" horiz-adv-x="1318" d="M2 393q4 84 45 163t117 147.5t186 111.5q-82 68 -109.5 144.5t-12 148.5t66.5 132t125 98t166 44.5t188 -28.5q51 -18 89 -62.5t41 -91.5t-35 -87t-136 -48q39 51 59.5 99t14.5 86t-41 60.5t-104 22.5q-68 0 -125.5 -22.5t-93 -60.5t-45 -88t16 -105.5t92 -110.5 t183.5 -102q-68 -4 -139.5 -32t-136 -72t-114.5 -102t-73.5 -123.5t-15.5 -134.5t63 -136q74 -90 163 -127t178.5 -34t169 38t135 85t75 110.5t-12.5 114.5t-123 95t-259 54q-8 0 -7 17t-1 26q94 6 198.5 37.5t194.5 84t156.5 121t85 147.5t-21.5 164t-161 169 q129 -6 206 -49.5t106.5 -106t17.5 -139t-60 -149.5t-131 -136t-192 -100q76 -23 111 -92.5t26.5 -154.5t-61.5 -174t-152.5 -151.5t-249 -86t-350.5 21.5q-111 25 -181.5 80t-103 127.5t-28.5 156.5z" />
<glyph unicode="'" horiz-adv-x="161" d="M0 932q14 63 31 131q12 57 26.5 124t24.5 130l131 -27q-4 -8 -17.5 -46t-35 -91t-48 -115.5t-55.5 -119.5z" />
<glyph unicode="(" horiz-adv-x="432" d="M5.5 576.5q17.5 185.5 90 339t162.5 270.5t178 192.5t137 104.5q4 2 11.5 -6.5t9.5 -6.5q-215 -240 -330 -522q-49 -121 -81.5 -262t-34 -300t40 -330t139.5 -349q-35 -4 -41 7.5t-11 15.5q-172 236 -230 448.5t-40.5 398z" />
<glyph unicode=")" horiz-adv-x="591" d="M0 -281q213 240 330 523q49 121 81.5 262t33.5 299t-39 329t-138 351q16 2 25.5 -1t14.5 -6t6 -7.5t3 -6.5q129 -176 192.5 -341t78 -315.5t-11 -283.5t-76.5 -247.5t-119 -210t-136.5 -167t-128 -119.5t-96.5 -71q-4 -2 -10 6t-10 6z" />
<glyph unicode="*" horiz-adv-x="641" d="M0 1366l59 98q39 -29 73 -52t65.5 -41.5t65.5 -34t77 -27.5q20 66 23.5 127t1.5 145l120 -16q-16 -72 -31.5 -137.5t-31.5 -131.5q41 -2 78 1t72.5 9.5t75.5 17t87 22.5l17 -113q-86 -4 -162 -7t-154 -7q41 -61 83 -122t87 -126l-106 -53q-18 45 -32.5 81.5t-31 69.5 t-37 63.5t-51.5 63.5q-37 -29 -64.5 -55.5t-51 -57t-45 -64.5t-48.5 -77l-94 70q61 61 117.5 118.5t116.5 116.5q-70 29 -137.5 57.5t-141.5 61.5z" />
<glyph unicode="+" horiz-adv-x="1009" d="M0 588l43 88q104 -6 193.5 -5t177.5 7q16 86 32.5 170t32.5 176l88 -25q-53 -170 -84 -315q88 8 178.5 19.5t198.5 23.5l10 -119q-104 -2 -203.5 -4t-197.5 -4q-16 -82 -26.5 -167t-20.5 -183l-98 -27q18 98 36.5 190.5t36.5 184.5q-98 -2 -196.5 -4t-200.5 -6z" />
<glyph unicode="," horiz-adv-x="247" d="M8 131q16 41 54 62.5t75 9.5t49.5 -40t8 -64t-20.5 -74.5t-36.5 -72.5t-40 -58.5t-27.5 -30.5q-10 -6 -8.5 14.5t6 46t6.5 49t-8 27.5q-39 12 -56.5 51t-1.5 80z" />
<glyph unicode="-" d="M0 584l27 86q70 -6 127 -4t112.5 8t113.5 17.5t130 25.5l22 -113q-141 -4 -269 -9t-263 -11z" />
<glyph unicode="." horiz-adv-x="253" d="M8 135q16 41 53 61.5t76 10.5q39 -12 56.5 -51t1.5 -80t-53.5 -62.5t-75.5 -9.5q-39 12 -56.5 50t-1.5 81z" />
<glyph unicode="/" horiz-adv-x="591" d="M0 0q92 193 182 378t179.5 371.5t180.5 377t187 391.5l59 -93q-109 -197 -195.5 -366.5t-165.5 -335.5t-155.5 -341t-165.5 -380z" />
<glyph unicode="0" horiz-adv-x="1054" d="M6 372.5q-10 98.5 7.5 199t63.5 193.5t115.5 163.5t161.5 109.5t207 29q111 -10 185.5 -62.5t117.5 -132t54.5 -178t-6 -199t-63.5 -193.5t-116.5 -162.5t-167 -108.5t-213.5 -29q-109 8 -181.5 60.5t-113.5 132t-51 178zM202 694q-9 -82 1 -174q8 -92 32.5 -175 t62.5 -142.5t90.5 -93t113.5 -27.5t107 44t76 101.5t40 146.5t2 175t-34.5 174t-66.5 141.5t-93.5 92t-114.5 26.5t-106.5 -44t-73 -100.5t-36.5 -144.5z" />
<glyph unicode="1" horiz-adv-x="688" d="M0 745l283 371q4 4 40.5 -6t79.5 -27.5t77 -36t30 -30.5q-14 -45 -31.5 -135t-37 -200t-37 -226.5t-32 -215t-23.5 -165t-9 -74.5q-59 14 -95 30.5t-55.5 31t-24.5 26.5t-5 18q6 113 20 248q12 117 35 271.5t57 339.5l-194 -232z" />
<glyph unicode="2" horiz-adv-x="1054" d="M2 179.5q-2 23.5 9.5 46t33 40t49.5 19.5q59 10 127 41q57 27 131 76t154 133q90 96 118.5 178t15.5 145.5t-58 106.5t-100.5 61t-112 8t-92 -52t-40.5 -117.5t42 -192.5q-53 16 -91 43q-33 23 -57.5 60.5t-13.5 90.5q16 90 77.5 147.5t145.5 85t175 24.5t167 -36.5 t122 -96t40 -154.5q-10 -123 -58.5 -202t-121 -135.5t-158.5 -101.5t-168 -98q100 -12 184 -23q72 -10 142.5 -22t99.5 -29q29 -16 43 -25.5t18 -13.5q6 -6 4 -6l-112 -180q-117 59 -221 100q-45 18 -91.5 32.5t-90.5 24t-80.5 10.5t-63.5 -11q-57 -25 -93 -26t-54.5 12.5 t-20.5 37z" />
<glyph unicode="3" horiz-adv-x="1099" d="M8 81q-12 54 1.5 105.5t50.5 94t94 65.5q-20 -27 -27.5 -71t-0.5 -94t32.5 -99t70.5 -86t112 -56.5t159 -7.5q80 10 136 52.5t84 97.5t26.5 116.5t-36 110.5t-103 78t-175.5 21q-23 -2 -28 24.5t-3 61.5q2 39 11 90q117 25 184.5 71.5t97 102t26.5 113t-27.5 104.5 t-66.5 77.5t-91 32.5q-47 2 -93.5 -22.5t-77 -69.5t-40 -106.5t19.5 -132.5q-100 20 -125.5 75.5t-1 118t90 115.5t149.5 70q113 23 205 3t153.5 -66t88 -111.5t6 -135t-91 -137.5t-204.5 -117q131 -33 206 -101.5t98.5 -149t-3 -164.5t-99.5 -150.5t-188.5 -105.5 t-271.5 -31q-109 6 -181.5 36.5t-113.5 77t-53 100.5z" />
<glyph unicode="4" horiz-adv-x="962" d="M0 470q2 32 16 48l605 649q4 4 39.5 -3t76.5 -19t73 -28.5t30 -29.5q-18 -72 -38 -153.5t-38.5 -169.5t-35.5 -176t-30 -170q23 -6 51.5 -15.5t51.5 -19.5v-23q-2 -10 -4 -17t-6 -5q-33 4 -58.5 5t-46.5 3q-27 -166 -46 -276.5t-24 -126.5q-66 18 -105.5 35.5t-59 34 t-24.5 29.5t-3 21q10 33 20 76q10 37 23 90t29 121q-49 0 -113 -1t-123 -2t-106.5 -3t-67.5 -4q-31 -4 -50.5 16.5t-28.5 51t-7 62.5zM121 483q45 -10 98 -14t105.5 -7t99.5 -6t80 -10q8 43 27.5 128t41 179.5t39 180.5t19.5 131z" />
<glyph unicode="5" horiz-adv-x="1146" d="M1.5 164.5q10.5 52.5 35 89.5t53.5 58.5t39 23.5q-8 -72 5 -145.5t45 -135t83 -99.5t119 -34q113 4 191.5 55.5t117.5 122t32 150.5t-68.5 142.5t-181.5 95t-306 12.5l82 266q14 49 28.5 97t25.5 87t16.5 62.5t5.5 25.5q-41 39 -51.5 71t-1 54.5t31 34.5t44 12t41 -15 t22.5 -46q27 -4 73.5 1t102 13t114 13.5t109.5 3.5t89 -17.5t52 -50.5q20 -49 16.5 -89t-16.5 -69q-14 -35 -41 -61q-20 29 -51 51q-27 18 -66.5 33.5t-99.5 13.5q-59 -4 -109.5 -6t-86.5 -6q-43 -4 -80 -8l-94 -299q150 25 272 2q51 -10 102.5 -31.5t94.5 -60.5t72.5 -97.5 t39.5 -140.5q12 -113 -38 -204t-136 -154.5t-193.5 -95t-211 -26.5t-186.5 50t-120 135q-27 63 -16.5 115.5z" />
<glyph unicode="6" horiz-adv-x="1099" d="M10 270q-20 152 7.5 291t88 255t147.5 204t185 141q96 51 193.5 57.5t164 -29.5t88 -112.5t-29.5 -189.5q-10 41 -43 95t-84 95t-119.5 53.5t-154.5 -28.5q-106 -53 -172 -138t-95.5 -185.5t-27.5 -208t25.5 -205t66.5 -174t98 -115.5q68 -49 132.5 -32t113.5 69.5 t78.5 123t27.5 128.5q-2 68 -29.5 127t-70.5 100t-95 55.5t-104.5 -9.5t-98.5 -91.5t-75 -192.5q-4 109 25 186.5t76 128t108.5 73t123 20.5t116.5 -28.5t94 -76.5q47 -61 58.5 -136t-7 -152.5t-62.5 -151.5t-106.5 -132t-140.5 -94t-164 -36q-66 0 -123 21.5t-101 63.5 t-74 100.5t-40 129.5z" />
<glyph unicode="7" horiz-adv-x="872" d="M3.5 1086.5q-3.5 23.5 8 54t36 63.5t61.5 62q199 -94 326.5 -126t204.5 -31t109.5 20.5t43.5 25.5q29 27 55 26t42.5 -15.5t16.5 -36t-24 -33.5q-92 -57 -163 -131t-122 -151t-86 -148.5t-53 -120.5q23 -2 57.5 -4t68 -5.5t61.5 -5.5t38 -2q0 -14 -25.5 -22t-63.5 -12.5 t-81 -6.5t-76 -2q-25 -74 -51.5 -160.5t-45.5 -168.5t-30.5 -152t-7.5 -108q-51 8 -87 23t-57.5 31.5t-31.5 32t-8 21.5q8 41 28.5 102.5t46 128t53 134t52.5 120.5q-20 2 -59 4.5t-79 4.5t-74 3t-42 1q0 14 32 22t76 13.5t92 7.5t81 2q27 57 69.5 127.5t83.5 132t73 106 t40 50.5q-4 -2 -38 0t-86 7t-115.5 13t-125 19.5t-116 24.5t-86.5 28q-18 8 -21.5 31.5z" />
<glyph unicode="8" horiz-adv-x="892" d="M3 135q-11 72 18.5 149.5t99 154.5t182.5 141q-45 47 -78 100q-29 45 -50 102.5t-13 120.5q12 98 89 171t218 85q76 6 145.5 -19.5t114.5 -73.5t58.5 -113.5t-23.5 -141.5q-23 -45 -57.5 -69.5t-69.5 -36.5q-39 -15 -84 -19q59 49 82.5 104.5t20.5 106.5t-28.5 94 t-64.5 68.5t-89 30t-99 -22.5q-59 -33 -70.5 -71t9 -82t64.5 -94t96 -105.5t104.5 -117.5t89.5 -131t50 -143.5t-11 -156.5q-27 -86 -95.5 -153.5t-195.5 -84.5q-125 -16 -213 8.5t-138.5 75.5t-61.5 123zM122 249q-11 -56 13 -112q31 -72 89.5 -104.5t121 -34.5t119.5 24.5 t87 73.5t23.5 113.5t-71.5 144.5q-37 45 -79 90.5t-83 90.5q-47 -35 -95 -80t-81 -97.5t-44 -108.5z" />
<glyph unicode="9" horiz-adv-x="1077" d="M3 66q-13 78 50 184q6 -41 33 -98.5t73 -103.5t113.5 -66.5t157.5 12.5q113 41 185.5 118.5t112.5 175t50 204t-3 206t-49 180t-85 126.5q-61 55 -126.5 44.5t-121 -56.5t-92.5 -113.5t-39 -124.5q-4 -68 16.5 -130.5t59.5 -106.5t89 -64.5t103.5 -3t106.5 80t96 183.5 q-12 -162 -85 -250t-165 -112.5t-182 7t-139 111.5q-41 66 -44 142.5t23.5 151.5t77.5 144.5t120 119.5t149.5 78t166.5 19q63 -6 117.5 -34.5t94.5 -74.5t63.5 -107.5t25.5 -133.5q6 -154 -35.5 -288t-114.5 -243.5t-169 -188.5t-199 -120q-102 -41 -198.5 -36.5t-160 47.5 t-76.5 121z" />
<glyph unicode=":" horiz-adv-x="323" d="M8 395q-16 39 0 80t53 62.5t76 9.5t55.5 -50t0.5 -81q-16 -41 -53.5 -62.5t-76.5 -9.5t-55 51zM8 752.5q-16 38.5 0 81.5q16 41 53 62t76 9t55.5 -51t0.5 -80t-53.5 -62.5t-76.5 -9.5t-55 50.5z" />
<glyph unicode=";" horiz-adv-x="346" d="M8 752.5q-16 38.5 0 81.5q16 41 53 62t76 9t55.5 -51t0.5 -80t-53.5 -62.5t-76.5 -9.5t-55 50.5zM12 475q16 41 53 62.5t76 9.5q37 -12 49.5 -40t8.5 -63.5t-21.5 -74.5t-37 -73t-39 -58.5t-29.5 -30.5t-8 14.5t6 46t6 49t-8 27.5q-39 12 -55.5 51t-0.5 80z" />
<glyph unicode="&#x3c;" horiz-adv-x="649" d="M0 647q78 35 141.5 62.5t120.5 57.5t110.5 63.5t112.5 80.5v-110q-53 -31 -88 -52.5t-66.5 -41t-66.5 -41t-86 -54.5q57 -29 95 -48t74 -36.5t74 -37t95 -46.5l14 -108q-66 43 -123 72.5t-118.5 54t-129 47t-149.5 49.5z" />
<glyph unicode="=" horiz-adv-x="815" d="M0 451l33 88q84 2 155.5 7t142 11t146.5 13.5t170 13.5l29 -113q-180 -4 -341 -8t-335 -12zM61 664l31 86q82 4 151.5 9t137.5 11t141.5 13.5t165.5 13.5l27 -113q-174 -4 -331 -9t-323 -11z" />
<glyph unicode="&#x3e;" horiz-adv-x="634" d="M0 336l14 108q57 27 96.5 46.5t74 37t72.5 37t95 47.5q-51 33 -86 54.5t-66.5 41t-66.5 41t-88 52.5v110q57 -47 111.5 -80.5t111 -63.5t120.5 -57.5t142 -62.5l-10 -88q-84 -27 -150.5 -49.5t-128 -47t-120 -54t-121.5 -72.5z" />
<glyph unicode="?" horiz-adv-x="888" d="M7.5 1024q-15.5 59 18 133t109.5 134.5t188.5 94t254.5 15.5q100 -14 169.5 -56t104.5 -104.5t31 -137.5t-49.5 -152t-135.5 -151.5t-227 -133.5q-117 -51 -159 -116t-41 -124t29 -102t50 -52q-61 -12 -111.5 2.5t-82 47t-39.5 78.5t14.5 97.5t79 104.5t156.5 98 q92 43 151.5 91.5t93 98.5t45 101t2.5 99q-20 117 -85.5 168t-143.5 54t-150.5 -34t-107.5 -94.5t-14.5 -128t131.5 -135.5q-129 -20 -197.5 12.5t-84 91.5zM82 96q16 47 59 71.5t86 10.5t60.5 -57t1.5 -90t-58.5 -70.5t-85.5 -9.5t-61 56t-2 89z" />
<glyph unicode="@" horiz-adv-x="1564" d="M8 549q12 129 71.5 255t151 233.5t208 189.5t243.5 123q135 45 250 37.5t208 -50.5t161.5 -117.5t110.5 -165.5t56.5 -193.5t-3 -202t-67.5 -188.5t-136 -157q-55 -43 -113.5 -63.5t-113 -11t-98.5 48.5t-73 112q-23 -43 -50.5 -79.5t-62 -62.5t-75.5 -38t-88 -8 q-53 6 -88 50t-50.5 111.5t-10.5 147.5t30 156t70 138.5t112 94.5q59 29 118.5 25t100.5 -53l7 -7q4 14 8 27.5t8 30.5q104 -31 137 -49.5t29 -32.5q-51 -201 -49 -320.5t34.5 -174t85 -49.5t105.5 52q90 82 125 187.5t22.5 216t-65.5 214t-137 180.5t-196 116t-241 20 q-127 -18 -234.5 -96t-184 -190.5t-118.5 -251t-40 -277.5t47 -255t117.5 -198.5t166 -126.5t190.5 -41t191.5 58t172.5 174q-10 -84 -64.5 -150.5t-135.5 -109.5t-180.5 -58.5t-198.5 1t-191.5 68.5t-159 146.5t-99 233.5t-14.5 330zM623 488.5q0 -46.5 10 -80t31 -41.5 q43 -20 76.5 9.5t57 84.5t35 121.5t9.5 124t-20.5 90t-53.5 20.5t-61.5 -48t-45 -83t-28.5 -99t-10 -98.5z" />
<glyph unicode="A" horiz-adv-x="1462" d="M5 351q13 89 84 167t210 131t367 62q66 145 127 289.5t118.5 262t109.5 194.5t99 89q7 2 15 2q21 0 47 -12q35 -16 63.5 -44t48 -57.5t15.5 -48.5q-29 -119 -52 -245q-23 -109 -43 -239t-30 -253q14 -4 44 -19q30 -16 50 -44q20 -27 19 -68q0 -46 -46 -108 q-18 14 -37.5 25.5t-37.5 23.5q0 -96 9 -179t45 -134.5t104 -60.5q10 -1 21 -1q65 0 167 45l1 -8q1 -8 1 -20.5v-23.5v-14q-179 -98 -297 -98h-9q-120 4 -186 83t-86 216q-10 71 -11 150q0 73 9 153q-39 16 -81 28.5t-101 18.5q-51 -121 -105.5 -233.5t-118 -198.5 t-141.5 -136q-70 -45 -157 -45q-10 0 -21 1q-63 4 -119 56t-82 128q-18 51 -17 108q0 28 4 57zM80 396q-4 -20 -4 -39q0 -36 16 -66q26 -49 86 -71q26 -10 55 -11q39 -1 81 17q76 30 159.5 124.5t159.5 278.5h-19q-173 0 -284 -34q-117 -36 -177.5 -87.5t-72.5 -111.5z M795 711q23 0 49 -2t53 -7q29 -4 61 -6q10 74 24.5 160t30 172t30 165t26.5 136q-59 -123 -113 -237q-23 -49 -47 -101.5t-45.5 -102.5t-39 -96t-29.5 -81z" />
<glyph unicode="B" horiz-adv-x="1482" d="M12 867q-12 56 -12 111q0 66 18 133q32 122 109.5 221.5t194 166t260.5 78.5q58 5 110 5q151 0 254 -39q138 -51 188 -161q26 -57 27 -129q0 -64 -22 -140q-45 -159 -189 -351q23 3 62 3h21q54 -1 113.5 -15.5t117 -43t92.5 -77.5q36 -50 36 -125q0 -72 -49 -170 q-45 -92 -126.5 -166t-179 -118t-199.5 -52q-17 -1 -34 -1q-83 0 -155 33q-86 40 -146.5 134t-72.5 254q-23 10 -39 20q-170 82 -261.5 194.5t-117.5 234.5zM104 805q20 -98 100.5 -184t227.5 -136q4 29 8 72t9 61q14 80 39.5 176.5t56 191.5t62.5 179t61 142 q70 -18 111.5 -38t63 -38.5t26.5 -32.5t3 -22q-8 -29 -33.5 -107t-56 -180.5t-58.5 -220t-42 -228.5q33 -2 62 -3q22 0 42 2q48 3 76 14q16 4 9 -15.5t-25.5 -45t-43 -48t-40.5 -25.5q-5 -1 -12 -1q-27 0 -78 14q-1 -21 -1 -40q0 -48 7 -90q10 -58 35.5 -94t70.5 -48 q15 -4 33 -3q35 0 80 15q74 25 142.5 77t112.5 113.5t58 123.5q4 19 5 37q0 40 -23 72q-33 45 -120 67q-44 11 -106 11q-60 0 -137 -10q-18 8 -28 25.5t-11.5 37t4 39t15.5 33.5q231 315 231 484q0 13 -2 24q-18 168 -293 168h-6q-164 0 -290.5 -52t-209.5 -134t-119 -184 q-23 -65 -23 -127q0 -36 7 -72z" />
<glyph unicode="C" horiz-adv-x="1046" d="M1 620v17q0 143 45 287q48 152 150.5 291t262.5 237q141 84 279 84h18q117 -4 194 -60q78 -54 113 -130q26 -57 26 -118q-1 -20 -3 -41q-12 -83 -73 -143t-175 -84q-41 -9 -89 -9q-85 0 -192 26q131 16 219 57t140 92q54 50 72 105q11 34 11 64q-1 19 -5 36 q-12 45 -50.5 74t-97.5 29q-90 -2 -169 -55.5t-143.5 -140.5t-112.5 -199.5t-73.5 -232.5t-27.5 -238q0 -10 -1 -20q0 -106 24 -194q26 -98 81 -168t145 -92q37 -9 80 -9q62 -1 136 19q126 32 294 140l29 -56q-205 -143 -376 -186q-100 -25 -187 -25q-62 1 -118 13 q-134 30 -228.5 123.5t-144.5 224t-53 282.5z" />
<glyph unicode="D" horiz-adv-x="1456" d="M8 876q-6 38 -6 76q0 83 26 166q38 121 114.5 218.5t185 162t231.5 74.5q47 4 91 4q142 0 258 -40q150 -52 253 -150.5t159 -230.5t70 -276q5 -50 6 -99q0 -94 -18 -187q-28 -143 -96 -264t-173 -208t-247 -118q-57 -13 -106 -13q-46 0 -86 12q-82 24 -138.5 81 t-87 143.5t-36.5 186.5q-27 10 -56 28q-162 84 -244 198t-100 236zM74 891q2 -88 49 -177t149 -167q63 -41 138 -66q4 27 8 71t8 62q14 80 40 176.5t56.5 191.5t63 179t59.5 142q70 -18 112 -38t63.5 -38.5t27.5 -33t4 -22.5q-10 -29 -35.5 -106.5t-56.5 -181t-58.5 -221 t-42.5 -228.5q34 -2 64 -3q23 0 43 2q48 3 76 11q16 4 9 -15t-25.5 -44t-42 -47.5t-40.5 -24.5q-6 -1 -12 -1q-29 0 -82 14v-25q-1 -57 7 -105q10 -58 36.5 -93t70.5 -45q14 -3 30 -4q35 0 81 16q72 25 128.5 94t95.5 167.5t56 215.5q12 80 12 159q0 38 -3 76 q-8 118 -43 227t-102.5 191t-167.5 127q-85 38 -197 38q-20 0 -41 -1q-119 -8 -218 -50t-170.5 -106.5t-111.5 -146.5q-38 -78 -38 -162v-8z" />
<glyph unicode="E" horiz-adv-x="1071" d="M2 421q4 97 42 189t108.5 171t173.5 128q-90 78 -119 167q-19 58 -19 113q0 30 6 59q16 83 70.5 152.5t135.5 112.5q82 43 180 51q17 1 33 2q82 0 169 -34q55 -23 96 -74q40 -52 44 -106v-9q0 -49 -37 -90q-41 -45 -148 -55q43 58 65 114q17 44 16 80q0 10 -1 19 q-6 43 -44 69.5t-114 26.5q-74 0 -130 -28.5t-88.5 -78.5t-38.5 -116q-1 -13 -2 -27q0 -55 22 -113q27 -73 89 -147.5t167 -142.5q-86 -6 -163 -55t-137 -123t-94 -165q-36 -94 -35 -183q0 -86 39 -162q40 -78 130 -127q48 -26 97 -26q9 0 19 1q60 6 113 39t98.5 87.5 t72 118t34.5 133.5q2 17 1 33q0 51 -17 99q20 2 53 -13t61 -44q26 -29 44 -71q11 -26 11 -56q1 -18 -3 -38q-10 -52 -53.5 -113.5t-135.5 -129.5q-53 -39 -121.5 -58t-140.5 -25q-33 -3 -66 -4q-37 0 -75 4q-70 8 -123 22q-100 27 -165 92q-64 64 -94 149q-26 75 -26 159v23 z" />
<glyph unicode="F" horiz-adv-x="1105" d="M3 1145q-3 22 -3 44q0 51 16 101q22 70 76.5 127.5t147.5 87.5q86 30 174 30h16q96 -3 196.5 -20.5t205 -43t216.5 -39.5q77 -10 157 -10q36 0 72 2q118 6 247 49q-12 -27 -27.5 -54.5t-34 -53.5t-40 -46.5t-46.5 -32.5q-54 -23 -116 -27q-20 -1 -40 -1q-42 0 -86 6 q-64 8 -129 22.5t-122 28.5q-2 -12 -6.5 -62.5t-12.5 -125t-18 -167t-25 -188.5q86 -4 156 -8t102 -4q0 -20 -20.5 -33.5t-57 -22t-87 -12.5t-105.5 -4q-14 -92 -29.5 -179t-36.5 -155q-45 -162 -114.5 -251t-156.5 -104q-19 -3 -38 -3q-72 0 -152 43q-102 55 -212 182 q0 2 5 11.5t9 18.5t9 15l5 6q55 -55 106.5 -96t98.5 -43h4q45 0 86 46q43 48 86 169q23 66 44.5 156t39.5 190q-72 4 -128 6t-83 2q-2 37 63.5 52.5t162.5 19.5q16 102 30.5 201.5t24.5 181.5t16 138.5t8 74.5q-74 25 -142.5 48.5t-132.5 34.5q-41 7 -78 7q-20 0 -40 -2 q-55 -6 -100 -39q-74 -55 -83 -136q-1 -13 -2 -25q0 -66 41 -130q48 -74 150.5 -129t249.5 -57q8 0 -2 -21.5t-37.5 -46t-70.5 -40.5q-27 -10 -59 -11q-19 0 -40 4q-90 16 -156.5 64.5t-104.5 113t-47 140.5z" />
<glyph unicode="G" horiz-adv-x="1140" d="M3 686q5 125 38 251t92 237q76 139 165 222t180 120q86 36 169 36h9q87 -2 161 -32q102 -43 152.5 -107.5t56.5 -135.5q1 -11 1 -21q0 -60 -29 -114q-33 -65 -100 -107t-162 -53q-20 -2 -41 -2q-78 0 -169 32q84 4 155 35.5t122 80t81.5 104.5t33.5 108q1 5 1 11 q0 44 -25 77q-28 38 -89 49q-18 3 -37 3q-47 0 -94 -22q-66 -31 -123 -83t-102.5 -116.5t-69.5 -119.5q-29 -70 -53.5 -160t-38 -188.5t-14.5 -196.5v-11q0 -92 17 -171q17 -84 55 -148.5t101 -93.5q47 -23 87 -23q28 0 53 11q59 28 100 96t66.5 161t40 188t20.5 180t6 132 q49 -10 93 -20t77 -20.5t52.5 -20.5t19.5 -20q-12 -225 -41 -459t-78 -455q-41 -164 -103.5 -258t-128.5 -134q-58 -36 -114 -36q-7 0 -14 1q-64 5 -109 40t-65 90q-9 26 -9 52q0 31 13 63q22 59 91.5 113.5t205.5 87.5q20 78 35.5 161.5t25.5 173.5q-29 -49 -64.5 -97 t-80.5 -85t-99 -58q-43 -15 -90 -15q-14 0 -28 1q-109 10 -188 68.5t-129 150t-71 207.5q-18 93 -18 193q0 23 1 47zM470 -322q0 -25 11 -40q12 -16 35 -16h1q24 1 52.5 25.5t60 79t60.5 144.5q-78 -25 -125 -58.5t-71 -67.5q-24 -36 -24 -67z" />
<glyph unicode="H" horiz-adv-x="1306" d="M4 1279q10 77 45 132q35 57 99 90t136 37q9 1 19 1q62 1 121 -23q68 -26 111 -84q39 -53 54 -121t15 -147t-11 -171t-30 -194q63 -27 124 -45.5t120 -32.5q16 121 38.5 250t43 237.5t36 183t17.5 89.5q141 -45 196.5 -94.5t51.5 -69.5q-25 -98 -49 -203 q-23 -92 -46.5 -202.5t-39.5 -225.5q20 -2 36.5 -1t28.5 3q6 -26 6 -45q0 -15 -4 -25q-8 -22 -23.5 -30t-32.5 -7t-26 1q-10 -68 -13 -119.5t-3 -104.5q2 -131 28.5 -192.5t72.5 -76.5q19 -6 41 -6q30 -1 66 11q60 20 130 51l1 -9q1 -9 2 -19.5t2 -21.5t1 -13 q-141 -78 -255 -92q-25 -3 -48 -2q-83 0 -143 38q-76 48 -114 158q-31 91 -31 224q0 28 1 57q4 41 6 73.5t11 86.5q-14 2 -43 9t-65 18.5t-75 22.5t-69 23q-10 -41 -28.5 -126t-39 -181t-40 -185t-29.5 -140q-6 -29 -34 -46.5t-69 -24.5q-32 -5 -68 -5h-21q-48 2 -93 12 q31 96 66.5 216t66.5 233.5t53.5 206t30.5 133.5q-139 74 -214 159q-74 86 -102 169q-20 61 -21 119q0 20 3 41zM68 1201q18 -73 85.5 -156.5t204.5 -167.5q23 129 23 225q-1 42 -5 78q-14 118 -52 180q-40 60 -92 70q-14 2 -26 3q-37 0 -69 -20q-41 -27 -63 -83 q-13 -32 -13 -68q-1 -29 7 -61z" />
<glyph unicode="I" horiz-adv-x="649" d="M0 973q53 -10 99 -15.5t89 -9.5q39 152 78 273.5t105 226.5q57 66 115 84q30 10 59 10q25 0 49 -8q51 -16 91 -62q39 -45 61 -106q19 -54 19 -115v-17q-3 -71 -38 -138.5t-106.5 -126t-186.5 -95.5q-31 -137 -54.5 -277.5t-23.5 -246.5q0 -10 -1 -19q-1 -115 23 -173 q24 -62 70 -76q19 -6 40 -5q29 0 64 10q60 19 130 50q2 0 3 -8t3 -19.5t3 -22.5t1 -13q-142 -78 -256 -92q-25 -3 -48 -2q-82 0 -142 38q-76 48 -111 158q-26 81 -26 193q0 42 4 88q4 47 13 111.5t18.5 123t15.5 98.5l6 41q-30 -2 -60.5 -2t-62.5 2q-4 0 -10 21.5 t-12.5 47.5t-11.5 48.5t-9 24.5zM455 969q98 27 157.5 81t85.5 114q25 58 24 112q0 58 -22 88q-15 23 -39 23q-3 -1 -5 -1q-28 -2 -61.5 -45t-70 -132.5t-69.5 -239.5z" />
<glyph unicode="J" horiz-adv-x="843" d="M3 -291q5 72 34 144.5t74 145.5t98 135.5t106.5 110.5t98.5 77q18 55 35.5 141t32 168t24.5 143.5t10 67.5q-106 66 -159.5 154.5t-61.5 181.5q-2 19 -2 38q0 71 25 137q30 83 91.5 136t146.5 63q14 2 29 2q73 0 156 -43q39 -20 57.5 -64t24.5 -103q3 -31 3 -65 q0 -29 -2 -59q-5 -65 -14 -127.5t-19.5 -116.5t-14.5 -89q16 -6 39 -15q18 -6 41 -13t49 -11q-27 -47 -46 -68.5t-36.5 -28t-33 -1t-33.5 9.5q-33 -184 -70 -378t-87 -365t-115.5 -303t-153.5 -191q-47 -33 -94 -41q-22 -4 -41 -4q-25 0 -48 6q-41 10 -72.5 34.5t-49.5 59.5 q-23 50 -23 109q0 11 1 22zM58 -278q-1 -8 -1 -16q0 -36 19 -66q14 -25 40.5 -25t57.5 27.5t63.5 80t61.5 132.5q14 45 25.5 80.5t20.5 70.5t18.5 71t19.5 83q-33 -23 -75 -61t-84 -84t-77.5 -96t-59.5 -100t-29 -97zM356 1257.5q0 -81.5 41 -164.5t135 -130q6 35 15.5 86 t14.5 108t6 113v12q0 48 -7 88q-8 45 -27 72q-17 24 -46 24h-5q-57 -4 -92 -65.5t-35 -143z" />
<glyph unicode="K" horiz-adv-x="1300" d="M14 292q29 75 87.5 137.5t132 110.5t133.5 81q27 135 47 285.5t32 277.5q14 147 25 291q1 19 69 49q59 26 180 26h34q-2 -12 -11.5 -91t-25 -192.5t-34.5 -248.5t-40 -262q94 88 156.5 165.5t108.5 163.5t82 190.5t79 246.5q2 6 23.5 8t50 4t60.5 3t54 5 q-33 -184 -90 -319.5t-130.5 -234.5t-158.5 -171t-173 -127q102 -39 177.5 -123t147.5 -180t149.5 -189.5t182.5 -150.5q-57 -18 -111 -29q-45 -10 -92 -12h-10q-40 0 -66 14q-70 37 -123 115t-103 169t-105 182t-129 157q-10 -53 -23.5 -119.5t-32 -134t-43 -134.5 t-58.5 -120t-78 -90t-101 -47q-20 -3 -42 -3q-18 0 -37 2q-42 5 -80 22.5t-67.5 45t-44.5 66.5q-16 44 -16 86q0 39 14 75zM85 244q-1 -8 -1 -15q0 -29 10 -49q12 -23 36 -29q6 -1 12 -1q20 0 42 14q30 18 60 64t57 126q12 35 23.5 78t21.5 92q-92 -47 -147.5 -97t-83 -97 t-30.5 -86z" />
<glyph unicode="L" horiz-adv-x="851" d="M6 -144q-4 16 -4 32q0 30 14 59q22 45 88 82t185 53q31 109 57.5 240t47 268t36.5 274t27.5 259t16.5 220.5t7 161.5q49 -10 96.5 -24.5t83 -29.5t57 -29.5t21.5 -24.5q-4 -82 -16 -192.5t-29.5 -233.5t-39 -253t-46 -252t-49 -229.5t-49.5 -187.5q115 -49 217 -77 q103 -26 201 -36q52 -5 103 -6l93 4q98 8 205 27q-25 -55 -45 -91t-43.5 -58.5t-53.5 -33.5t-73 -16q-20 -2 -41 -2q-83 0 -163 26q-102 32 -186.5 73t-148 77.5t-92.5 38.5q-47 -111 -105.5 -168t-118.5 -75q-33 -10 -64 -9q-25 1 -49 7q-54 14 -91 47t-49 79zM54 -124 q-2 -8 -1 -15q0 -13 6 -23q8 -14 30 -18q5 -1 10 -1q17 0 39 12q28 15 60.5 53t65.5 106q-70 -8 -114 -27.5t-67.5 -42t-28.5 -44.5z" />
<glyph unicode="M" horiz-adv-x="1847" d="M3 266q-1 13 -1 25q0 53 24 103q30 60 107.5 106.5t210.5 60.5q47 217 76 438.5t51 438.5q2 14 46 32q45 19 97 29q38 7 71 7q13 0 26 -1q45 -4 49 -35q6 -47 16 -110.5t24.5 -136t31 -148.5t33 -143.5t31.5 -122.5t28 -88q4 -12 38.5 22.5t85 98t110 147.5t114.5 172 t98 169t64 140q8 27 51 15t90 -41t83 -62.5t34 -50.5q-39 -190 -70 -373q-12 -78 -24.5 -160.5t-21.5 -163.5t-13 -155q-3 -49 -3 -93q0 -22 1 -42q6 -131 34.5 -186.5t74.5 -63.5q11 -2 23 -2q39 0 85 20q62 26 129 56q1 0 1 -4v-5q-1 -9 -2 -22.5t-2 -26t-1 -14.5 q-139 -78 -252 -91q-24 -3 -47 -3q-83 0 -144 38q-78 48 -119 158q-37 98 -37 243q0 18 1 36q2 57 6 111.5t10 112t14 121t21 141.5q-18 -20 -57 -72.5t-88.5 -115t-102.5 -124t-102.5 -100.5t-89.5 -43h-5q-35 0 -53 49q-63 174 -103 324.5t-63 248.5q-23 -147 -46 -296.5 t-52 -298.5q35 -10 56.5 -22.5t32.5 -29t13 -41t-2 -61.5q-66 33 -121 53q-18 -78 -39.5 -149.5t-48.5 -118.5q-51 -98 -113 -136q-55 -34 -110 -34q-6 0 -14 1q-62 5 -116 45t-88 98t-41 126zM45 310q-4 -20 -3 -38q0 -22 4 -40q9 -36 31.5 -62.5t51.5 -30.5q5 -1 10 -1 q35 0 64 36q33 41 57.5 99.5t41 116.5t22.5 87q-92 -4 -150.5 -28.5t-89.5 -60.5t-39 -78z" />
<glyph unicode="N" horiz-adv-x="1359" d="M3 266q-1 13 -1 25q0 55 24 105q30 62 107.5 107.5t212.5 59.5q23 106 39 222t27.5 228.5t17.5 213t10 176.5q2 55 47 88t99 41q19 3 36 3q33 1 62 -9q45 -14 45 -53q0 -195 25.5 -369t66.5 -327.5t92.5 -284t104.5 -234.5q2 111 6 232.5t12 244.5t21.5 244t36.5 233 q31 164 102.5 239t163.5 77h6q90 0 190 -60q104 -62 205 -172q-4 -16 -8 -12q-57 53 -121 90q-60 35 -116 35h-6q-60 -2 -111 -55.5t-84 -179.5q-18 -72 -32.5 -180.5t-26 -229.5t-18.5 -243t-11 -218t-6 -157l-2 -62q4 -16 -19.5 -37.5t-59.5 -36t-78 -15.5h-3 q-40 0 -70 28q-23 18 -52.5 83.5t-64 155.5t-69.5 193.5t-64.5 199t-52 173t-31.5 116.5q-8 -59 -16 -127q-8 -57 -18.5 -130t-26.5 -150q70 -23 89 -53q13 -21 13 -63q0 -18 -2 -40q-33 16 -62.5 30.5t-58.5 24.5q-18 -80 -40.5 -150.5t-47.5 -119.5q-51 -98 -113 -136 q-55 -34 -110 -34q-6 0 -14 1q-62 5 -116 45t-88 98t-41 126zM45 240q12 -52 43 -80q24 -21 54 -21q9 0 18 2q41 8 78 78q51 98 90 260q-121 -4 -185.5 -43t-86.5 -91q-15 -34 -15 -68q0 -19 4 -37z" />
<glyph unicode="O" horiz-adv-x="1220" d="M4 568q-2 38 -2 74q0 68 7 136q11 104 37 189.5t65 147t90 81.5q12 78 52 147.5t102.5 121t145.5 77.5q60 19 127 19q25 0 52 -2q143 -14 243.5 -93.5t160.5 -195.5q62 -118 80 -262q9 -69 8 -137q0 -77 -10 -155q-20 -148 -82 -284.5t-162.5 -240t-239.5 -159.5 q-110 -45 -245 -45q-36 0 -73 3q-88 8 -151.5 59t-107.5 131t-67.5 181t-29.5 207zM189 616v-7q0 -143 35 -258q36 -118 105.5 -192.5t170.5 -74.5q78 0 145.5 59.5t120.5 155.5t91 220q39 124 57 254q16 112 15 219v35q-3 124 -29 223.5t-78 161t-134 65.5h-15 q-65 0 -120 -32q-61 -36 -106.5 -93.5t-72.5 -129.5q-26 -70 -29 -140v-17q1 -59 19 -113q22 -60 72.5 -95.5t133.5 -36.5h3q82 0 199 48q-35 -53 -92 -91q-58 -38 -122 -53q-37 -9 -74 -9q-28 0 -56 5q-66 11 -115 60q-57 57 -82 131q-41 -147 -42 -295z" />
<glyph unicode="P" horiz-adv-x="1282" d="M0 170q2 6 16.5 23.5t16.5 15.5q55 -51 100 -83q39 -28 74 -28q5 0 11 1q40 5 79 56.5t82 168.5q23 57 43 135t37 168q-51 27 -69 61q-12 22 -11 42q0 12 3 22q9 30 40 53.5t76 32.5q16 100 29.5 194t23.5 168q10 86 20 162q0 8 17.5 21.5t52.5 23.5q35 11 88 17 q30 4 67 3q28 0 60 -2q-2 -12 -11 -70.5t-24.5 -147.5t-35 -199.5t-42.5 -225.5q16 -8 38 -22.5t38 -28.5q20 -16 41 -35q94 35 158.5 104.5t95.5 156.5q27 75 27 155q0 12 -1 26q-5 94 -50.5 176.5t-131.5 142t-217 77.5q-29 4 -56 4q-86 0 -160 -38q-97 -50 -156.5 -139 t-71.5 -204q-2 -21 -2 -42q0 -94 43 -189q-41 8 -68.5 25.5t-46 36t-27 34.5t-10.5 25q-9 41 -9 79q-1 68 27 131q44 99 130 174.5t202.5 124t242.5 56.5q23 1 47 2q102 0 201 -29q122 -35 218 -125q85 -80 113 -190q16 -60 15 -121q-1 -49 -11 -101q-24 -114 -95 -217.5 t-188 -171.5q-86 -49 -182 -69q-80 -16 -161 -16q-17 0 -34 1q-16 -70 -29.5 -130t-27.5 -107q-47 -154 -114.5 -238t-151.5 -101q-23 -5 -48 -5q-63 0 -133 32q-96 44 -198 144zM421 734q-2 -6 -2 -11q0 -11 7 -23q10 -18 43 -30q4 31 10 60.5t10 60.5q-27 -8 -45 -23.5 t-23 -33.5zM721 659l31 7q-4 4 -5.5 7t-5.5 7q-4 8 -12 20q-4 -16 -8 -41z" />
<glyph unicode="Q" horiz-adv-x="1210" d="M1 668q3 127 26.5 236.5t68 188t103.5 103.5q12 78 52 147.5t102.5 121t145.5 77.5q60 20 127 20q26 0 52 -3q133 -14 230.5 -84t158.5 -175.5t86 -237.5q18 -93 18 -189q0 -41 -3 -81q-11 -139 -56 -272t-124 -242.5t-193.5 -185.5t-262.5 -96q57 -35 118 -72t132 -56 q57 -16 122 -16h31q83 5 181 54q-104 -119 -192 -158q-68 -30 -131 -30q-19 0 -37 2q-80 12 -155 57t-151.5 91t-159.5 79q-60 24 -125 24q-25 0 -52 -4q49 49 102 76q-78 55 -126 155.5t-69 221.5q-19 106 -19 217v31zM187 616v-7q0 -143 35 -258q36 -118 105.5 -192.5 t170.5 -74.5q78 0 145.5 59.5t120.5 155.5t91 220t57 254q15 112 15 219v35q-3 124 -29 223.5t-78 161t-134 65.5h-15q-65 0 -121 -32q-61 -36 -106 -93.5t-71.5 -129t-29.5 -140.5v-17q0 -60 19 -113q21 -61 72 -96t134 -36h3q82 0 199 48q-35 -53 -92 -91t-122 -53 q-37 -9 -74 -9q-28 0 -56 5q-66 11 -115 60q-57 57 -82 131q-41 -147 -42 -295z" />
<glyph unicode="R" horiz-adv-x="1478" d="M0 158q0 2 5 10t11.5 15t12.5 13l6 5q57 -51 102 -83q40 -28 76 -28h9q40 4 76 56t77 169q20 59 36.5 137t32.5 171q-54 27 -72 59q-13 22 -12 44q0 10 2 20q8 30 38 54.5t75 33.5q14 102 24.5 196t18.5 168q8 86 14 164q0 8 16.5 21.5t51.5 24.5q35 12 88 18q41 5 92 4 h33q-2 -12 -9 -72t-19.5 -150t-28 -201.5t-33.5 -226.5q16 -8 37.5 -22.5t40.5 -28.5q23 -16 41 -35q92 35 154 106q62 72 90 160q21 68 22 140q0 21 -2 42q-8 95 -55 177t-135.5 141.5t-221.5 75.5q-26 3 -51 3q-51 1 -99 -13q-70 -20 -128 -62.5t-98 -103.5 q-38 -62 -54 -134q-9 -43 -10 -89q0 -30 4 -61q10 -79 53 -156q-41 8 -68.5 25.5t-46 35.5t-27.5 34.5t-11 24.5q-11 46 -11 90q0 64 23 124q39 100 122 176.5t198.5 126t240.5 58.5q26 2 51 2q99 0 197 -28q123 -35 221 -123q66 -61 100 -140t40 -164l2 -30q0 -70 -22 -142 q-26 -87 -79 -163.5t-133 -137t-186 -93.5q59 -68 116.5 -142.5t128 -146t159.5 -137.5t214 -117q-99 -41 -181 -41h-8q-85 2 -154 35t-125 91.5t-104 130t-92.5 151.5t-87.5 153q-24 -1 -49 -1t-51 1q-12 -72 -24.5 -133t-24.5 -108q-41 -156 -105.5 -240t-147.5 -102 q-25 -6 -51 -6q-61 0 -131 30q-98 43 -204 144zM402 728l-2 -10q0 -12 8 -24q12 -16 43 -28q4 29 9 59.5t9 60.5q-27 -10 -45 -25.5t-22 -32.5zM705 657q10 1 30 5q-4 4 -6 8l-4 8q-6 6 -14 18q-2 -10 -3 -19t-3 -20z" />
<glyph unicode="S" horiz-adv-x="886" d="M2 342q0 94 43 163.5t125 96.5q28 9 61 9q62 0 140 -33q-88 -16 -144.5 -69.5t-84.5 -122.5q-26 -64 -25 -132v-10q2 -72 31 -126q30 -56 86 -80q26 -11 58 -11q37 0 81 16q76 25 124 89q48 66 61 146q4 27 4 54q0 54 -16 111q-26 85 -97 153q-74 68 -135.5 150.5 t-99.5 174t-47 189.5q-2 22 -2 43q0 77 25 156q20 66 61.5 113.5t94.5 78.5q54 31 116 45q51 11 104 11q12 0 24 -1q96 -2 160 -50q62 -48 90 -114q21 -50 22 -103q0 -17 -3 -35q-9 -70 -55 -118.5t-131 -60.5q-17 -2 -35 -2q-75 0 -175 39q96 25 160.5 63.5t99.5 83 t44 87.5q4 18 4 34q0 22 -8 42q-13 34 -48 54q-32 19 -77 19h-9q-106 -4 -160.5 -58.5t-70.5 -130.5q-7 -35 -7 -72q1 -44 11 -90q18 -85 55 -151q37 -61 79 -110t85 -97.5t80.5 -100.5t64.5 -122q40 -103 39 -195v-24q-6 -102 -55.5 -181t-136.5 -128t-205 -58 q-18 -1 -34 -1q-116 0 -196 48q-90 56 -133 140t-43 178z" />
<glyph unicode="T" horiz-adv-x="1030" d="M2 1138q-2 19 -2 37q0 56 18 109q24 70 81 128t149 89q88 29 179 29h11q96 -2 195.5 -20.5t204 -44t214.5 -39.5q78 -10 161 -10q34 0 69 1q119 6 248 49q-25 -51 -61.5 -106t-90.5 -78t-116 -27q-22 -1 -43 -1q-41 0 -83 4q-64 8 -129 22t-120 29q-6 -25 -21.5 -84.5 t-34 -139t-37 -175t-35 -191.5t-25.5 -187q-7 -74 -7 -138v-27q2 -131 31 -191q28 -60 74 -74q18 -5 39 -6q33 0 71 14q62 22 131 52v-10v-23t-1 -24.5t-1 -14.5q-141 -78 -255 -91q-24 -3 -47 -3q-83 0 -143 38q-76 48 -115 158q-31 91 -31 224q0 28 1 57q4 61 16.5 143 t32 171.5t42 178.5t44 166.5t41 136t31.5 87.5q-76 25 -148 50q-74 26 -140 39q-48 9 -91 9q-17 0 -33 -1q-58 -5 -106 -40q-48 -37 -70 -86q-17 -40 -18 -81q0 -10 1 -20q5 -52 36 -103.5t86 -92.5t133 -66.5t178 -27.5q8 0 -3 -21.5t-40 -45t-72 -41.5q-27 -11 -60 -11 q-18 0 -38 4q-90 16 -154.5 64.5t-101.5 112.5t-45 140z" />
<glyph unicode="U" horiz-adv-x="1431" d="M2 1212q0 98 52 174t127 116q70 37 147 37h12q84 -3 148 -61t92 -174q12 -51 12 -116q0 -84 -19 -191q23 8 45 17q16 6 34 11t24 7q4 0 6 -22.5t-9 -51t-41 -55t-87 -33.5q-31 -141 -52.5 -270t-21.5 -240v-19q-1 -141 27 -205q30 -68 76 -74l12 -2q42 0 90 41 q55 46 105 120t89 164t52 174q6 41 21 122t33.5 179t40 203.5t39 195t30 150.5t14.5 74q138 -43 194 -93q49 -45 50 -66q0 -3 -1 -5q-53 -182 -94 -356q-18 -74 -34.5 -155t-30 -160t-21.5 -153t-8 -135q0 -131 29 -191q28 -59 76 -73q18 -5 38 -6q32 0 69 14q60 22 122 54 q2 0 3 -10.5t1 -22.5v-24.5v-16.5q-178 -95 -307 -95q-46 0 -86 12q-150 46 -182 261q-72 -98 -155 -162t-163 -92q-56 -19 -108 -20q-22 0 -44 4q-72 12 -125 67.5t-81 155.5q-19 70 -19 164q0 41 4 88q6 86 22.5 188.5t39.5 221.5q-78 14 -133.5 50t-89 83t-49 100 t-15.5 102zM64 1224q6 -64 57 -124.5t172 -95.5l14 -7h2q21 125 21 212q0 21 -1 41q-7 96 -32 143t-63 52q-7 1 -13 1q-30 0 -59 -19q-43 -27 -73 -83q-25 -47 -25 -101q-1 -9 0 -19z" />
<glyph unicode="V" horiz-adv-x="667" d="M0 1540h94t85 -12t62.5 -40t24.5 -81v-175.5t7.5 -240.5t29 -309t66.5 -383q12 47 44.5 149.5t75.5 229.5t92.5 266t95.5 261t86 214t64 125q23 4 45 4q20 0 43 -5t43 -21q-37 -35 -86 -132.5t-104 -230.5t-111.5 -289.5t-105.5 -311.5t-88 -296t-60 -244q-7 -14 -33 -17 q-10 -1 -20 -1q-16 0 -34 3q-28 5 -54 20.5t-35 37.5q-16 51 -38.5 143.5t-46 212.5t-48 261t-44 288.5t-33 295t-17.5 278.5z" />
<glyph unicode="W" horiz-adv-x="1052" d="M2 1344q4 132 21 210q45 -12 87 -19t74 -21q30 -16 48 -40q14 -20 15 -54q0 -8 -1 -17q-4 -53 -4 -144.5t3 -204t8 -234.5t10 -235.5t8 -208.5t3 -153q12 45 36 141.5t56.5 217t69.5 253t74 251t69.5 213t57.5 137.5q141 -36 189 -62q43 -24 43 -42q0 -2 -1 -5 q-8 -29 -21 -98.5t-27.5 -163.5t-28 -203.5t-25.5 -215t-19.5 -199t-6.5 -154.5q12 49 45.5 150.5t79.5 228.5t99.5 264t103.5 259t91 213t66 126q27 4 51 4q23 0 46.5 -6t43.5 -23q-35 -37 -88 -132t-112.5 -227t-122 -286.5t-117 -308.5t-95 -296t-59.5 -247 q-8 -14 -33.5 -18t-54.5 2t-54.5 20.5t-33.5 38.5q-20 57 -26 179q-6 106 -6 229v39q1 146 8.5 291t15.5 249q-25 -57 -52.5 -140t-55 -179t-53.5 -199.5t-49.5 -204t-42 -189.5t-28.5 -157q-7 -14 -33 -17q-8 -1 -18 -1q-18 0 -37 4q-29 6 -55.5 20.5t-34.5 38.5 q-18 51 -37.5 164t-37 256.5t-30.5 305.5q-14 164 -20 316q-4 92 -4 175q0 56 2 109z" />
<glyph unicode="X" horiz-adv-x="921" d="M0 61q31 16 65.5 45t71.5 66t73 78t71 82q80 96 161 205q-47 113 -90 235.5t-81 245.5t-66.5 242.5t-46.5 228.5q86 25 143 36t92 11t50.5 -9t17.5 -26q16 -174 56 -356t93 -352q136 229 188 404q43 147 44 250q0 20 -2 38q27 10 53 16q23 4 48.5 6t43.5 -4q4 -15 5 -37 q0 -32 -9 -80q-14 -82 -55 -196.5t-108.5 -250.5t-162.5 -280q49 -137 103.5 -265t113.5 -249q-37 -45 -69 -75q-29 -27 -58.5 -40.5t-46.5 9.5q-47 63 -102 166.5t-113 232.5q-37 -41 -89 -101.5t-110.5 -123.5t-120 -121.5t-114.5 -91.5z" />
<glyph unicode="Y" horiz-adv-x="1087" d="M5 1254q-3 22 -3 44q0 50 16 94q21 64 62 103q51 47 126 67q65 18 126 18h18q68 -3 118 -29.5t54 -75.5v-23q0 -36 -4 -78q-6 -55 -18.5 -117.5t-25.5 -128t-23 -129.5q33 -10 61 -18q25 -8 50.5 -14t41.5 -11q-23 -45 -50.5 -62t-54 -20.5t-46 2t-23.5 7.5 q-14 -53 -26.5 -124t-20.5 -146.5t-10 -150.5q-1 -21 -1 -42q0 -50 4 -94q5 -60 20 -102t44 -50q15 -5 30 -5q36 0 68 28q46 39 83.5 115.5t69.5 183t56.5 223.5t42 236.5t28.5 223t17.5 182.5t6.5 114q49 -10 93 -20.5t78 -21t53 -20.5t19 -20q-10 -176 -29.5 -367.5 t-47 -385.5t-63.5 -384t-77 -362q-43 -158 -105.5 -247t-128.5 -126q-55 -31 -108 -31q-10 0 -20 1q-62 7 -105 42t-61 90q-8 24 -8 50q0 31 12 63q23 59 93.5 113.5t203.5 87.5q10 39 23.5 105.5t25.5 140t23.5 143t17.5 112.5q-10 -59 -38.5 -134t-73 -138.5 t-100.5 -105.5q-48 -36 -102 -36q-9 0 -18 1q-104 10 -161.5 76.5t-79.5 162.5q-20 85 -20 183v26q3 113 16.5 213t29 174t17.5 96q-94 68 -140.5 146t-55.5 152zM74 1271q12 -52 47.5 -102.5t101.5 -85.5q0 -2 6.5 36t15.5 86t17 89t8 43q12 52 12 87q0 18 -3 31 q-9 40 -35 51q-11 5 -24 5q-17 0 -38 -9q-35 -17 -67 -52q-29 -31 -41 -79q-5 -24 -5 -49t5 -51zM404 -320v-6q0 -26 12 -41q11 -15 33 -15h3q23 1 51.5 26.5t59.5 80t60 144.5q-78 -25 -125 -58.5t-69.5 -67.5t-24.5 -63z" />
<glyph unicode="Z" horiz-adv-x="1175" d="M2 127q8 57 78 104.5t221 55.5q70 115 144.5 253t146.5 278t137.5 274.5t114.5 242.5q-57 -59 -134 -92t-156 -40q-22 -2 -43 -2q-57 -1 -111 13q-76 18 -132 62q-56 46 -84 112q-19 45 -19 100q0 28 5 58q123 -78 223.5 -110.5t180.5 -35.5q12 0 22 -1q66 -1 118 15 q62 18 104 39.5t67.5 38.5t36.5 15q37 -10 79.5 -28.5t78.5 -40.5q36 -20 58 -40q18 -16 18 -25q0 -2 -1 -3q-10 -18 -42 -78.5t-81 -151.5t-110.5 -204t-130 -233.5t-139 -242.5t-138.5 -231q57 -18 131 -31.5t156 -18.5q43 -3 88 -3q41 0 83 2q89 4 177 23 q-51 -102 -90 -149.5t-92 -51.5q-14 -1 -28 -1q-71 -1 -138 17q-80 20 -146.5 48t-116 52.5t-73.5 26.5q-80 -123 -166 -163q-63 -29 -117 -29q-20 0 -38 4q-68 15 -109 65q-34 42 -34 89q0 9 1 18zM49 102q5 -16 25 -23q9 -3 19 -3q13 0 29 5q28 9 60.5 38t63.5 86 q-61 -2 -102.5 -13.5t-64 -26.5t-29.5 -31q-4 -9 -3 -18q-1 -7 2 -14z" />
<glyph unicode="[" horiz-adv-x="538" d="M2 -190q66 408 133.5 840.5t132.5 865.5l465 28l-6 -147q-14 -2 -48 1t-77 6t-89 6t-85 4t-64.5 -1t-27.5 -10q-41 -199 -73 -383t-57.5 -367.5t-49 -369t-45.5 -387.5q-2 -8 26.5 -16.5t70.5 -16.5t93 -15.5t95 -13.5t76 -9t38 -1l-6 -117q-16 4 -61.5 10.5l-101.5 14.5 t-116.5 17t-111 19.5t-82 20.5t-29.5 21z" />
<glyph unicode="\" horiz-adv-x="540" d="M0 1513l72 84q68 -211 132 -411.5t127.5 -396l127 -391t129.5 -398.5l-105 14q-59 215 -112.5 397.5t-108.5 358.5t-118.5 355t-143.5 388z" />
<glyph unicode="]" horiz-adv-x="727" d="M0 -293l6 148q14 0 48 -2.5t78 -5.5t90 -6t85 -4t64.5 1t27.5 10q41 199 72 383.5t57.5 366.5t49 368.5t45.5 389.5q0 6 -26 15t-67 17.5t-89 15.5t-91 13t-73.5 8t-34.5 2l6 117q18 -4 61 -11t97.5 -14.5t113 -16.5t105.5 -19t77.5 -20.5t28.5 -20.5q-63 -408 -131 -841 t-133 -865z" />
<glyph unicode="^" horiz-adv-x="538" d="M0 928q47 59 89 112.5t80 109.5t72.5 118.5t67.5 140.5l15 2q33 -78 64.5 -139.5t66 -117.5t74.5 -109.5t89 -112.5l-104 -14q-31 51 -54.5 90t-46 74.5t-47 73.5t-57.5 89q-33 -53 -56.5 -90t-45 -71.5t-45 -72.5t-56.5 -91z" />
<glyph unicode="_" horiz-adv-x="727" d="M0 -201l33 86q88 -6 161.5 -4t144.5 8.5t145.5 17.5t166.5 25l29 -112q-180 -4 -343 -9.5t-337 -11.5z" />
<glyph unicode="a" horiz-adv-x="1093" d="M2 448q6 116 40 225t94.5 199.5t150.5 135.5q72 36 143 36h20q80 -6 134 -77q2 -4 3 -5t3 -6q6 23 12 42.5t12 41.5q70 -23 114 -40t69.5 -31.5t34 -25.5t6.5 -21q-60 -246 -70 -426q-2 -34 -2 -66q0 -134 37 -213q45 -97 151 -107l20 -2q103 0 265 89l18 -47 q-135 -80 -245 -106q-62 -15 -116 -15q-43 -1 -81 9q-86 20 -146.5 81t-93.5 155q-29 -63 -67.5 -116.5t-84.5 -89.5q-45 -36 -101 -54q-41 -13 -87 -14q-16 0 -32 2q-72 6 -119 72q-48 66 -68 162q-16 75 -15 160q0 26 1 52zM250 401.5q0 -65.5 13 -113.5t42 -63 q22 -10 42 -11q20 0 38 10q37 20 66.5 66t50 111.5t32 135t12.5 137.5v11q0 59 -10 105q-10 50 -32 74q-14 15 -35 15q-12 0 -25 -5q-47 -18 -82.5 -69t-60.5 -119t-38 -143.5t-13 -141z" />
<glyph unicode="b" horiz-adv-x="884" d="M3 591q3 93 13 173q14 98 39 208.5t53.5 218t59.5 205t57 165.5q70 -23 112 -46.5t63.5 -45t27.5 -39t4 -25.5q-29 -106 -62.5 -224t-62.5 -241q59 78 123 111q46 24 92 25q32 0 62 -12q76 -28 133 -99q55 -72 75 -166q13 -64 13 -133q0 -32 -3 -64q-9 -102 -42 -202.5 t-81 -182.5t-107.5 -138t-120.5 -69q-53 -11 -99 -11q-50 0 -90 13q-78 25 -130 82.5t-80 137.5q-28 82 -40 174q-9 73 -10 147q0 19 1 38zM248 316q6 -62 31.5 -99t72.5 -37q31 0 65 45t64.5 114t52 152.5t29.5 164.5q4 36 4 69q0 41 -6 79q-10 68 -45 105q-19 21 -40 21 q-10 0 -22 -6q-32 -16 -64 -60.5t-60.5 -114t-49 -145.5t-29.5 -152q-5 -45 -6 -85q1 -26 3 -51z" />
<glyph unicode="c" horiz-adv-x="712" d="M3 450q7 106 42 209t97.5 192t152.5 146q89 55 187 57h6q95 0 174 -46l-121 -195q-22 5 -42 5q-47 0 -87 -24q-58 -36 -101 -101.5t-66.5 -149.5t-23.5 -166t23.5 -149.5t77.5 -100.5q39 -23 94 -23q22 0 47 4q86 14 207 93q2 2 23.5 17t48 33.5t48 34t23.5 17.5l23 -43 q-2 -2 -23.5 -17.5t-46.5 -34t-46.5 -33.5t-23.5 -17q-147 -106 -263 -138q-69 -19 -127 -19q-38 1 -72 9q-84 22 -138 87q-52 65 -76 156q-18 70 -19 149q0 24 2 48z" />
<glyph unicode="d" horiz-adv-x="1097" d="M2 448q6 116 40 225t94.5 199.5t150.5 135.5q72 36 143 36h20q80 -6 134 -77q2 -2 3 -4t3 -5q18 82 38.5 166t43 161t45 145.5t43.5 119.5q70 -23 111.5 -46t63 -44.5t28 -39t4.5 -27.5q-41 -154 -90.5 -328t-79.5 -348q-28 -163 -28 -287q0 -22 1 -43q6 -137 60 -207 q52 -69 148 -69h6q101 2 259 88l19 -45q-135 -80 -247 -107q-64 -15 -119 -15q-42 0 -79 8q-86 20 -146.5 82t-92.5 157q-29 -63 -68 -118t-86 -91q-46 -38 -102 -56q-42 -14 -89 -13q-15 0 -30 1q-72 6 -119 72q-48 66 -68 162q-16 75 -15 160q0 26 1 52zM250 401.5 q0 -65.5 13 -113.5t42 -63q23 -12 44 -11q33 0 61 26q48 44 79 122t47 176q13 82 12 152v27q-3 81 -29 129q-18 33 -48 34q-12 0 -27 -6q-47 -18 -82.5 -69t-60.5 -119t-38 -143.5t-13 -141z" />
<glyph unicode="e" horiz-adv-x="704" d="M3 490q9 110 47 212.5t105.5 186.5t163.5 129q84 39 160 40h4q73 0 122 -32q51 -34 67 -96q5 -20 5 -41q0 -48 -25 -109q-36 -88 -132 -198.5t-268 -239.5q0 -117 26 -180q28 -62 80 -77q18 -5 38 -5q40 0 90 18q76 28 176 95q2 2 23.5 17t48 33.5t48 34t23.5 17.5 l22 -43q-2 -2 -23.5 -17.5t-46 -34t-46 -33.5t-23.5 -17q-147 -106 -263 -135q-60 -15 -111 -15q-48 0 -89 14q-84 28 -136 100q-51 72 -73 168q-15 68 -16 144q0 31 3 64zM258 428q113 104 179.5 183t97 131.5t30.5 80t-20 31.5q-5 1 -10 1q-23 1 -59 -21q-44 -26 -89 -81 t-82 -137t-47 -188z" />
<glyph unicode="f" horiz-adv-x="839" d="M8 -379q-8 25 -8 52q0 30 12 61q21 59 91.5 114.5t205.5 88.5q29 115 49.5 255t36.5 283q-63 -6 -96 -7t-49.5 9t-25.5 36t-27 75q23 -14 55 -23q27 -10 64.5 -16t84.5 -8q4 39 6.5 114.5t9.5 165.5t23.5 183.5t46 166t76.5 114.5q37 33 88 33q15 0 31 -3q63 -10 98 -51 t48 -102q9 -40 9 -85q0 -25 -3 -52q-7 -75 -29.5 -154.5t-57 -157.5t-75.5 -144q47 10 89 21.5t77 21.5q1 -9 1 -17t-1 -15q-2 -13 -13 -17q-47 -16 -92 -29.5t-98 -25.5q-16 -150 -37.5 -296.5t-56.5 -293.5q-41 -164 -103.5 -258t-127.5 -134q-59 -36 -115 -36q-7 0 -15 1 q-63 5 -108 40t-64 90zM71 -316q-1 -6 -1 -12q0 -22 10 -37q12 -16 35.5 -16t52.5 24.5t61.5 79t61.5 146.5q-78 -25 -124 -57.5t-69.5 -65.5t-26.5 -62zM639 600q61 102 92 210t41 195q6 48 6 86q0 31 -4 55q-7 50 -20 50h-2q-18 -4 -32.5 -44t-27 -99.5t-21.5 -130 t-15.5 -135t-10.5 -116t-6 -71.5z" />
<glyph unicode="g" horiz-adv-x="884" d="M2 448q6 115 40 224.5t94.5 200t150.5 135.5q72 37 142 37q8 0 15 -1q78 -4 134 -69v32.5t2 30.5q49 -10 93 -20t76.5 -20.5t52 -20.5t19.5 -21q-6 -127 -17 -262t-26.5 -272t-37 -270t-50.5 -258q-41 -164 -103.5 -258.5t-128.5 -134.5q-57 -35 -113 -35h-15 q-64 6 -109 40.5t-65 89.5q-9 26 -9 53q0 30 13 61q22 59 92 114t205 88q12 53 24.5 113.5t22.5 126.5q-57 -76 -133 -118q-61 -34 -133 -34q-17 0 -35 2q-72 6 -119 71.5t-68 162.5q-15 74 -15 160q0 25 1 52zM219 -338q-1 -8 -1 -16q0 -18 7 -31q12 -18 36 -21h5 q22 0 48 22q30 24 62.5 79t61.5 149q-74 -25 -121 -56.5t-70.5 -64t-27.5 -61.5zM250 401.5q0 -65.5 13 -113.5t42 -63q22 -10 42 -10t39 9q38 20 67.5 67t52 112.5t35 135t13.5 137.5v10q0 61 -10 106q-12 50 -36 74q-15 14 -35 14q-13 0 -29 -6q-47 -18 -82.5 -69 t-60.5 -119t-38 -143.5t-13 -141z" />
<glyph unicode="h" horiz-adv-x="985" d="M4 290q-1 32 -1 65q1 94 9 195q12 136 37 277.5t57.5 273.5t68.5 247.5t69 201.5q70 -23 112.5 -46t64 -44.5t28 -39t2.5 -25.5q-23 -53 -48.5 -142.5t-53 -197t-53.5 -224t-47.5 -226t-36.5 -203t-19 -152.5q18 53 45.5 129t60.5 157.5t68.5 163.5t70.5 146.5t67 104.5 t56 40q18 0 48 -7t56.5 -17.5t45 -22.5t16.5 -20q-59 -246 -69 -426q-2 -34 -3 -66q0 -134 37 -213q44 -97 152 -107q10 -1 20 -1q104 0 266 88l19 -45q-145 -86 -253 -112q-66 -16 -120 -16q-34 0 -64 6q-76 16 -125.5 67t-79.5 116.5t-43 138.5q-14 72 -18 134 q-3 43 -3 78q0 15 1 29q2 44 2 50q-59 -98 -112 -255t-125 -376q-7 -12 -31 -14h-10q-20 0 -44 6q-30 8 -56.5 24.5t-32.5 39.5q-27 96 -31 220z" />
<glyph unicode="i" horiz-adv-x="563" d="M10 668q-8 -77 -9 -146q1 -77 11 -146q20 -130 74 -222q56 -90 146 -128q59 -24 130 -25q40 -1 84 7q124 20 281 113l-18 45q-163 -88 -266 -88q-10 0 -19 1q-107 9 -153 109q-37 80 -37 210q0 33 2 69q12 180 69 426q2 8 -6 20.5t-32.5 25.5t-69.5 30.5t-115 40.5 q-54 -180 -72 -342zM166 1245q8 92 53 199q70 -23 112 -46.5t63 -45.5q22 -20 28 -38q4 -13 4 -23v-5q-8 -33 -19.5 -71.5t-23.5 -78.5t-24.5 -79t-20.5 -72q-55 14 -91 42t-54.5 63.5t-24.5 75.5q-4 24 -4 48q0 15 2 31z" />
<glyph unicode="j" horiz-adv-x="731" d="M8 -379q-8 25 -8 52q0 30 12 61q21 59 91.5 114.5t205.5 88.5q31 117 52.5 264t36 292.5t21.5 275.5t7 210q49 -10 93 -20.5t77 -20.5t52.5 -20.5t19.5 -20.5q-12 -240 -43 -493t-84 -486q-41 -164 -103.5 -258t-127.5 -134q-59 -36 -115 -36q-7 0 -15 1q-63 5 -108 40 t-64 90zM73 -308q-2 -10 -2 -20q0 -15 5 -26q8 -23 32 -27q3 -1 6 -1q22 0 48 20q31 24 64.5 78.5t64.5 152.5q-72 -23 -118 -53.5t-70.5 -62.5t-29.5 -61zM467 1249q-2 18 -2 37q0 77 27 168q72 -12 116.5 -29.5t69 -36t33 -35t8.5 -26.5q-6 -68 -20.5 -155.5t-24.5 -155.5 q-57 6 -96 28.5t-62.5 55.5t-35 71.5t-13.5 77.5z" />
<glyph unicode="k" horiz-adv-x="823" d="M4 290q-1 32 -1 65q1 94 9 195q12 136 37 277.5t57.5 273.5t68.5 247.5t69 201.5q70 -23 112.5 -46t64 -44.5t28 -39t2.5 -25.5q-23 -53 -48.5 -142.5t-53 -197t-53.5 -224t-47.5 -226t-36.5 -203t-19 -152.5q18 53 45.5 129t60.5 157.5t68.5 163.5t70.5 146.5t67 104.5 t56 40q39 2 57.5 0t38.5 -2q-41 -45 -77 -98q-33 -45 -69 -104.5t-65 -124.5q-3 -34 -3 -68q1 -50 7 -101q12 -87 41 -164t78 -135q49 -60 119 -84q42 -15 91 -14q33 0 70 6q91 16 204 91l16 -39q-119 -70 -215 -100.5t-173 -30.5t-136.5 24.5t-104.5 65.5t-76.5 94 t-52.5 108q-25 -70 -50 -144.5t-52 -156.5q-3 -12 -29 -14h-11q-21 0 -45 6q-30 8 -56.5 24.5t-32.5 39.5q-27 96 -31 220z" />
<glyph unicode="l" horiz-adv-x="563" d="M16 721q14 98 40 214t56.5 229.5t63.5 215t60 168.5q70 -23 111.5 -46t63 -44.5t27.5 -39t4 -25.5q-20 -78 -44.5 -165t-49 -179.5t-48.5 -185.5t-38 -179q-28 -161 -28 -283q0 -24 2 -47q6 -138 59 -208q52 -69 149 -68h6q102 2 259 88l18 -45q-203 -121 -351.5 -121 t-237.5 89q-88 89 -120 254q-16 85 -17 182q0 92 15 196z" />
<glyph unicode="m" horiz-adv-x="1402" d="M1 264q-2 42 -2 85q0 79 6 165q9 133 31.5 269.5t57.5 246.5q140 -44 186 -72q40 -24 40 -42q0 -3 -1 -5q-16 -39 -36.5 -113.5t-39 -166.5t-34.5 -192.5t-23 -188.5q18 53 46 129t61 157.5t68.5 163.5t70.5 146.5t65.5 104.5t55.5 40q20 0 49 -7t56.5 -17.5t46 -21.5 t16.5 -19q-41 -176 -59 -318q-13 -99 -13 -179q0 -35 2 -67q33 92 77 202t90 204t89 158.5t74 64.5q18 0 48 -7t56.5 -17.5t45 -21.5t16.5 -19q-59 -246 -69 -426q-2 -34 -2 -66q0 -134 36 -214q46 -98 152 -108q10 -1 19 -1q103 0 265 88l19 -45q-104 -61 -189.5 -91 t-153.5 -35q-16 -1 -31 -1q-48 0 -87 12q-51 16 -90 49q-10 10 -20.5 21.5t-20.5 23.5q-51 63 -75 149t-32 164q-7 64 -6 112v22q2 56 2 65q-37 -59 -61.5 -113.5t-44 -108.5t-36.5 -111.5t-40 -121.5q-10 -31 -20.5 -57.5t-23.5 -39.5t-31.5 -10t-45.5 34q-55 61 -81 148 t-36 169q-8 68 -8 121v21q2 60 2 69q-59 -98 -112.5 -253.5t-124.5 -377.5q-14 -12 -41 -14h-11q-23 0 -43 6q-26 8 -48.5 24.5t-28.5 39.5q-23 76 -28 194z" />
<glyph unicode="n" horiz-adv-x="976" d="M2 264q-1 36 -1 73q0 85 6 177q9 133 31.5 269.5t57.5 246.5q138 -44 184 -72q40 -24 40 -42q0 -3 -1 -5q-16 -39 -36.5 -113.5t-39 -166.5t-34.5 -192.5t-23 -188.5q18 53 46 129t61 157.5t68.5 163.5t70.5 146.5t65.5 104.5t55.5 40q20 0 49 -7t56.5 -17.5t46 -22.5 t16.5 -20q-59 -246 -69 -426q-2 -34 -3 -66q0 -134 37 -213q46 -97 152 -107q10 -1 19 -1q103 0 265 88l19 -45q-145 -86 -253 -112q-66 -16 -120 -16q-34 0 -64 6q-76 16 -126 67t-79.5 116.5t-43 138t-17.5 134.5q-3 42 -3 76q0 17 1 31q2 44 2 50q-59 -98 -112.5 -255 t-124.5 -376q-4 -12 -30 -14h-11q-20 0 -44 6q-30 8 -55.5 24.5t-31.5 39.5q-23 76 -27 194z" />
<glyph unicode="o" horiz-adv-x="808" d="M2 435q2 116 34 226.5t96.5 203.5t162.5 145q86 45 173 45h7q90 -2 156 -70q18 -23 34.5 -47t28.5 -55q-69 27 -127 27q-21 0 -41 -4q-74 -14 -129 -59.5t-92 -117.5t-55.5 -150.5t-19.5 -158.5v-9q0 -75 16 -133q16 -62 50 -98q29 -31 68 -31q7 0 15 1q70 8 124 64 t87 129t45 149q6 38 6 71t-6 60q-68 2 -102.5 22.5t-47 49t-4.5 59t31 54.5q22 22 54 32q13 4 27 4q20 0 40 -8q57 -25 79.5 -80.5t22.5 -121t-14 -132t-29 -113.5q-25 -80 -65.5 -152.5t-96.5 -126.5q-58 -54 -128 -84q-62 -26 -134 -26h-20q-82 4 -138 66q-54 63 -82 158 q-26 89 -26 195v16z" />
<glyph unicode="p" horiz-adv-x="925" d="M0 -275.5q0 115.5 10 264t26.5 314.5t39 322.5t49.5 287.5t53 209q35 -4 78 -12t79 -20.5t58.5 -24.5t18.5 -23q-10 -23 -25 -73q43 47 90 71q48 25 94 25q31 0 61 -11q75 -28 132 -100q61 -80 78 -186q10 -56 10 -115q0 -51 -8 -105q-15 -114 -58 -221.5t-102 -186.5 t-129 -118q-45 -24 -88 -24q-25 0 -49 8q-68 23 -113 70t-72 110q-20 -127 -32.5 -246.5t-18.5 -217t-6 -164t6 -84.5q2 -8 -15 -8h-7q-25 2 -56.5 13t-60.5 30.5t-33 44.5q-10 55 -10 170.5zM297 306q6 -60 31 -98q23 -36 66 -36h5q31 0 65 44t64.5 112.5t52 152.5 t29.5 165q4 38 4 73q0 40 -5 77q-9 68 -44 105q-19 21 -41 21q-10 0 -22 -6q-33 -15 -64.5 -61t-60.5 -114.5t-48.5 -144.5t-28.5 -152q-5 -46 -5 -87q0 -26 2 -51z" />
<glyph unicode="q" horiz-adv-x="897" d="M2 478q6 116 40 225.5t94.5 199.5t150.5 135q73 37 145 37q9 0 18 -1q80 -5 134 -77q29 -39 47 -90q12 41 25.5 77t23.5 65q70 -23 112 -46.5t63.5 -45t27.5 -39t4 -25.5q-41 -154 -90 -329t-80 -349q-25 -145 -28 -274v-30q0 -110 19 -195q23 -95 71 -149 q45 -50 117 -50h11l11 -43q-64 -18 -118 -18q-59 0 -106 21q-92 40 -147 134t-77 230q-14 93 -14 194q0 47 3 96q-53 -53 -117 -79q-48 -21 -104 -21q-17 0 -35 2q-72 6 -119 71.5t-68 161.5q-15 74 -15 160q0 26 1 52zM250 432.5q0 -65.5 13 -114t42 -62.5q21 -10 41 -10 q32 0 62 26q47 43 79.5 122t50.5 178q14 84 14 155v23q-3 81 -30 128q-19 33 -50 33q-13 0 -28 -6q-47 -18 -82.5 -69.5t-60.5 -119t-38 -143t-13 -141z" />
<glyph unicode="r" horiz-adv-x="831" d="M0 307q27 57 51.5 123t43 131.5t29.5 129t15 118.5q-41 23 -71 65t-42 98q-7 32 -7 68q1 28 5 58q10 70 46 149l180 -102q-35 -97 -43 -159q-4 -29 -4 -52q0 -26 5 -43q9 -33 30.5 -38t44 12.5t43 54t26.5 90.5q12 -4 50 -15.5t78 -29t70 -36t25 -36.5q-59 -246 -69 -426 q-2 -33 -2 -63q0 -134 37 -216q45 -100 151 -109q9 -1 19 -1q103 0 266 88l18 -45q-141 -85 -255 -109q-57 -12 -107.5 -12t-94.5 12q-87 24 -146.5 94t-89.5 173.5t-31 237.5v8q0 130 30 280q-39 -17 -81 -17h-13q-4 -37 -16.5 -100t-35 -139t-54 -157t-72.5 -152 q-6 16 -13.5 33.5t-15.5 33.5z" />
<glyph unicode="s" horiz-adv-x="743" d="M0 -162l43 39q105 -74 165 -81q9 -1 18 -1q46 0 68 33q26 39 25.5 115.5t-13.5 171t-32.5 195t-29.5 190.5q-6 46 -10 108q-2 31 -2 62q0 32 2 64q4 64 17 122.5t38.5 103t67.5 68.5q30 17 72 16q16 0 34 -2q33 -4 68.5 -15t66.5 -30.5t53.5 -47t30.5 -64.5q8 -43 8 -90 q0 -19 -1 -39q-5 -68 -21.5 -135.5t-40 -129t-45 -109.5t-36 -78t-14.5 -32q15 -116 15 -213q-1 -64 -7 -118q-16 -139 -80 -203q-48 -49 -124 -48q-24 0 -52 4q-112 20 -284 144zM501 588v-28q0 -88 15 -200q51 123 75.5 215.5t30.5 154.5q3 25 3 46q1 30 -5 50 q-10 34 -26 38q-3 1 -6 1q-15 1 -34 -23q-22 -28 -36 -92t-17 -162z" />
<glyph unicode="t" horiz-adv-x="595" d="M0 1061q14 -2 33 -6q16 -4 36.5 -7.5t47.5 -7.5q29 98 56.5 186.5t49.5 153.5q70 -23 112 -46t64.5 -44.5t27.5 -39t3 -27.5q-14 -53 -27.5 -103.5t-27.5 -101.5q19 -1 38 -1q39 0 77 3q58 4 110 14l4 -90q-60 -12 -124 -13h-18q-55 0 -110 5q-20 -72 -36.5 -146.5 t-28.5 -152.5q-19 -130 -20 -232q-1 -40 3 -75q10 -128 64 -192q50 -61 142 -60h12q100 4 253 88l19 -45q-198 -117 -344 -121h-14q-137 0 -223 80q-91 84 -125 242q-20 91 -20 197q0 78 11 165q8 70 22.5 144.5t34.5 148.5q-23 6 -42 11t-31 9q-16 4 -27 9z" />
<glyph unicode="u" horiz-adv-x="1030" d="M4 599q8 208 76 460q70 -23 115 -40.5t69.5 -31.5t32.5 -25.5t6 -21.5q-37 -139 -54.5 -272t-17.5 -236q-1 -104 15 -164q14 -53 38 -53h7q25 6 49.5 59.5t50 133t49 176t44 186.5t38 166t29.5 117q70 -23 114 -40.5t69.5 -31.5t33.5 -25.5t6 -21.5q-60 -246 -70 -426 q-2 -34 -1 -65q0 -133 36 -213q45 -98 151 -108q9 -1 19 0q103 0 267 87l18 -45q-139 -82 -267 -98q-31 -4 -59 -4q-92 0 -166 40q-98 52 -152 172q-47 105 -47 265q0 24 1 49q-51 -268 -122 -408q-72 -139 -140 -171q-22 -10 -43 -10q-45 0 -85 44q-60 66 -88 207 q-23 111 -24 263q0 42 2 86z" />
<glyph unicode="v" horiz-adv-x="528" d="M3 514q3 133 18.5 268.5t44.5 245.5q141 -42 189 -70q41 -24 41 -41q0 -3 -1 -6q-14 -39 -30.5 -113.5t-31 -166.5t-25.5 -192.5t-13 -188.5q12 45 37.5 113.5t56 146.5t65.5 160t70 154.5t66.5 130t56.5 87.5q11 3 23 3q6 0 12 -1q16 -2 35.5 -10t39.5 -24 q-55 -47 -117.5 -153.5t-123 -245t-112.5 -294t-83 -303.5q-5 -12 -31 -14h-11q-21 0 -45 6q-30 8 -55.5 24.5t-33.5 39.5q-25 76 -35 194q-8 90 -8 189q0 30 1 61z" />
<glyph unicode="w" horiz-adv-x="962" d="M3 514q-2 55 -2 111q0 77 4 157q7 136 30 246q143 -42 192 -70q44 -24 44 -43q0 -2 -1 -4q-12 -39 -23 -114.5t-21 -167.5q-9 -91 -14 -191q-3 -55 -3 -108q0 -41 2 -80q14 63 48 171.5t76 224.5t87 220.5t80 161.5q143 -42 192 -70q44 -24 44 -43q0 -2 -1 -4 q-12 -39 -23.5 -114.5t-20.5 -167.5q-9 -91 -14 -191q-3 -55 -3 -108q0 -41 2 -80q10 45 30.5 113.5t46 146.5t56.5 160t60.5 154.5t58 130t51.5 87.5q11 3 23 3q6 0 12 -1q16 -2 35.5 -10t40.5 -24q-51 -47 -107.5 -153.5t-109 -245t-94.5 -294t-62 -303.5q-8 -12 -34 -14 h-11q-20 0 -44 6q-30 8 -56.5 24.5t-34.5 39.5q-23 55 -37.5 133t-23.5 169q-9 90 -11 190q-1 33 -1 66q0 66 3 130q-35 -78 -67.5 -168t-61.5 -187.5t-51.5 -195.5t-36.5 -193q-6 -12 -32 -14h-10q-21 0 -45 6q-30 8 -57.5 24.5t-35.5 39.5q-29 76 -46.5 193.5t-22.5 250.5 z" />
<glyph unicode="x" horiz-adv-x="720" d="M4 960q-2 22 -2 38q0 28 6 42q7 2 15 2q10 0 23 -3q22 -5 40 -9q23 -8 45 -14q-5 -26 -5 -58q0 -62 20 -145q32 -125 135 -295q57 111 105 233.5t75 241.5q2 10 16.5 15.5t45 2.5t78.5 -16.5t120 -38.5q-23 -74 -56.5 -153.5t-75.5 -160.5t-88 -162t-95 -154 q51 -57 104 -111q47 -45 101.5 -92t103.5 -76l-47 -37q-88 55 -167 123t-136 129q-59 -86 -113.5 -151.5t-101.5 -104.5q-9 -8 -20 -8q-10 0 -21 6q-25 12 -48 33q-26 22 -55 59q59 78 115.5 161t109.5 173q-72 106 -120 206.5t-74.5 183t-32.5 140.5z" />
<glyph unicode="y" horiz-adv-x="788" d="M6 636q12 195 74 427q70 -23 114 -40t69.5 -30.5t33.5 -26t6 -20.5q-39 -139 -57.5 -278.5t-19.5 -249.5v-13q0 -100 14 -161q12 -59 37 -59q3 0 6 1q18 4 40.5 44t43 103.5t41 142.5t36 165t25.5 170t14 158q0 10 38 1t84 -24.5t83 -33t37 -25.5q-4 -80 -12 -198 t-23.5 -254t-39 -278.5t-59.5 -269.5t-84 -227t-112 -154q-68 -57 -137 -59h-8q-63 0 -111 29q-51 30 -77 86q-14 33 -14 68q0 25 8 50q18 62 88.5 120.5t211.5 93.5q23 86 44.5 204.5t35.5 227.5q-55 -184 -120 -266q-62 -78 -118 -78h-8q-59 6 -107 88t-69 226 q-12 91 -12 202q0 65 4 138zM120 -358q-1 -7 -1 -13q0 -20 8 -35q12 -18 35 -19h2q23 0 52 23q30 25 61.5 79.5t60.5 148.5q-76 -25 -122 -56.5t-69.5 -65.5t-26.5 -62z" />
<glyph unicode="z" horiz-adv-x="702" d="M3 1076q9 68 52 136l183 -102q-39 -98 -39 -154q1 -58 23 -82q21 -23 54 -22h6q38 2 73.5 20.5t64.5 47t33 59.5q12 -4 41.5 -20.5t58.5 -37t45 -41t2 -30.5l-98 -152q-37 -57 -66.5 -104t-25.5 -51q138 -133 210 -281q61 -127 62 -284q0 -26 -2 -54q-12 -102 -54 -186 t-102 -142q-60 -56 -130 -84q-48 -19 -95 -20q-20 0 -39 4q-45 8 -80 41t-50 79q-10 31 -10 66q0 16 2 34q7 54 43 103.5t104.5 89.5t176.5 60q-2 100 -45 175t-94 124t-92 74t-41 29q10 37 42 92t69 115.5t72.5 122t54.5 110.5q-70 -47 -136 -54q-16 -2 -30 -2 q-48 -1 -88 17q-54 22 -92 68q-40 48 -56 108q-11 39 -10 81q0 23 3 47zM206 -289q-1 -10 -1 -19q1 -34 21 -58q19 -21 45 -21q10 0 21 3q40 11 81.5 75t64.5 203q-119 -33 -172 -84.5t-60 -98.5z" />
<glyph unicode="{" horiz-adv-x="700" d="M2 635q0 10 3 20.5t9 10.5q53 2 117 -2.5t109 20.5q47 27 69.5 67t31.5 89t10 107.5t5 122t18.5 130t49.5 133.5q27 49 85 74t123.5 34t125 6t90.5 -5l2 -23q-55 -2 -109 -14q-45 -10 -90 -36t-67 -75q-37 -78 -48.5 -152.5t-14.5 -143t-6 -129t-24.5 -109.5t-67.5 -84 t-136 -51q55 -23 98 -54.5t53 -78.5q23 -92 13.5 -177.5t-24.5 -160t-26.5 -140t7 -119t78 -94.5t186.5 -67q-2 2 -13.5 -13.5t-17.5 -13.5q-14 2 -34.5 7t-40 9.5t-35 8.5t-19.5 4q-125 31 -187.5 72.5t-83 95t-11 116t24.5 135t25.5 154.5t-8.5 172q-12 58 -57 97 q-23 20 -45.5 27t-45 8t-49 -2t-57.5 -5q-10 0 -13 9.5t-3 19.5z" />
<glyph unicode="}" horiz-adv-x="886" d="M0 -260q129 2 196.5 31.5t96.5 79t32 115t2 142t7 161.5t49 171q23 45 70 70t106 35q-84 33 -123 76t-49 94t-1 110.5t19.5 128t14.5 144.5t-17 157q-12 53 -51 86t-80 52q-49 23 -104 32l6 23q31 -4 90.5 -12.5t123 -29t114.5 -54t67 -86.5q20 -74 20.5 -141.5t-8 -131 t-19.5 -121t-12 -106.5t13.5 -92t54.5 -78q18 -16 45 -25.5t57 -14.5t59.5 -9t56.5 -10q6 -2 7 -11.5t-1 -20.5t-8.5 -18.5t-14.5 -5.5q-31 6 -55.5 13.5t-48 10.5t-45.5 -0.5t-49 -19.5q-53 -29 -76 -82q-37 -86 -43 -167.5t-6 -156.5t-4.5 -137.5t-35 -110.5t-99 -79 t-199.5 -39q-4 0 -19.5 -1t-36 -2l-41 -2t-34.5 -1q-8 0 -16.5 16.5t-10.5 16.5z" />
<glyph unicode="&#xad;" d="M0 584l27 86q70 -6 127 -4t112.5 8t113.5 17.5t130 25.5l22 -113q-141 -4 -269 -9t-263 -11z" />
<glyph unicode="&#x2000;" horiz-adv-x="1122" />
<glyph unicode="&#x2001;" horiz-adv-x="2244" />
<glyph unicode="&#x2002;" horiz-adv-x="1122" />
<glyph unicode="&#x2003;" horiz-adv-x="2244" />
<glyph unicode="&#x2004;" horiz-adv-x="748" />
<glyph unicode="&#x2005;" horiz-adv-x="561" />
<glyph unicode="&#x2006;" horiz-adv-x="374" />
<glyph unicode="&#x2007;" horiz-adv-x="374" />
<glyph unicode="&#x2008;" horiz-adv-x="280" />
<glyph unicode="&#x2009;" horiz-adv-x="448" />
<glyph unicode="&#x200a;" horiz-adv-x="124" />
<glyph unicode="&#x2010;" d="M0 584l27 86q70 -6 127 -4t112.5 8t113.5 17.5t130 25.5l22 -113q-141 -4 -269 -9t-263 -11z" />
<glyph unicode="&#x2011;" d="M0 584l27 86q70 -6 127 -4t112.5 8t113.5 17.5t130 25.5l22 -113q-141 -4 -269 -9t-263 -11z" />
<glyph unicode="&#x2012;" d="M0 584l27 86q70 -6 127 -4t112.5 8t113.5 17.5t130 25.5l22 -113q-141 -4 -269 -9t-263 -11z" />
<glyph unicode="&#x2013;" horiz-adv-x="1118" d="M0 584l52 86q135 -6 244.5 -4t216.5 8t218.5 17.5t250.5 25.5l42 -113q-271 -4 -517.5 -9t-506.5 -11z" />
<glyph unicode="&#x2014;" horiz-adv-x="2142" d="M0 584l104 86q269 -6 488.5 -4t433.5 8t437 17.5t500 25.5l85 -113q-543 -4 -1035.5 -9t-1012.5 -11z" />
<glyph unicode="&#x202f;" horiz-adv-x="448" />
<glyph unicode="&#x205f;" horiz-adv-x="561" />
<glyph unicode="&#x25fc;" horiz-adv-x="1044" d="M0 0v1044h1044v-1044h-1044z" />
<glyph horiz-adv-x="1900" d="M2 451.5q6 115.5 40 225t94.5 200t150.5 135.5q82 43 162.5 36.5t134.5 -77.5q2 -4 3 -5t3 -5q6 23 12 42t12 41q70 -23 114 -40t69.5 -31.5t34 -25.5t6.5 -21q-14 -66 -35 -155t-32 -185.5t-8 -191.5t32.5 -171t92 -124t169.5 -50q86 2 174 49t167 125t140 179.5t93 214 t26 227t-62 219.5q123 -39 178.5 -134t50.5 -214t-62.5 -247t-159 -232.5t-241.5 -172t-306 -63.5q-84 2 -152.5 16.5t-127 46t-108 85t-92.5 131.5q-29 -63 -67.5 -116.5t-84.5 -90.5t-101.5 -54.5t-118.5 -11.5q-72 6 -119 71.5t-67.5 162t-14.5 212zM250 405.5 q0 -65.5 13 -113.5t42 -63q57 -29 103.5 14.5t78 122t47 176t11.5 179.5t-29 130t-72 30t-82.5 -70.5t-60.5 -120t-38 -143.5t-13 -141.5z" />
<glyph horiz-adv-x="2371" d="M2 451.5q6 115.5 40 225t94.5 200t150.5 135.5q82 41 162.5 35.5t134.5 -76.5q2 -4 3 -5t3 -5q6 23 12 42t12 41q70 -23 114 -40t69.5 -31.5t34 -25.5t6.5 -21q-70 -289 -72 -485.5t76 -276.5q4 -4 4 -6q82 -76 237 -27h2q76 29 166 74t188.5 87t205 71.5t213 24.5 t211 -54t202.5 -162q29 -35 24 -106.5t-59 -198.5q-86 147 -173 232t-175 125t-177 42t-176 -18.5t-172 -55t-167 -69.5q-80 -37 -147.5 -57.5t-124.5 -26.5h-9q-2 -2 -8 -2h-10q-127 -6 -203 57.5t-119 181.5q-29 -61 -67.5 -114t-84.5 -90t-101.5 -54.5t-118.5 -11.5 q-72 6 -119 71.5t-67.5 162t-14.5 212zM250 405.5q0 -65.5 13 -113.5t42 -63q43 -20 80 -0.5t66.5 65.5t50 111.5t32 135t12.5 137t-9.5 117t-33 74t-59.5 10.5q-47 -18 -82.5 -69.5t-60.5 -119t-38 -143.5t-13 -141.5z" />
<glyph horiz-adv-x="876" d="M-1810 1012q23 92 83 165.5t141 125t173 79t182 27.5q113 0 236 -21.5t245.5 -52t243.5 -64.5t231.5 -61.5t207 -42t171.5 -4.5q27 104 60 199q18 47 37.5 85t40.5 71q61 96 129.5 138t133 45t118 -26.5t84 -80t32.5 -114t-35.5 -128t-122.5 -121.5t-229 -94v-2 q-31 -104 -49 -209q59 78 121 110q80 41 155.5 13.5t131.5 -99.5q55 -72 74.5 -166t11 -196.5t-41 -202.5t-80.5 -182t-107.5 -138.5t-121.5 -68.5q-111 -23 -189.5 2t-130.5 82t-81 138t-40 173t-8 185.5t15 173.5q12 82 33 172t43 182q-154 0 -311.5 23.5t-317 48 t-319.5 43t-319.5 8.5t-317.5 -59.5t-313 -155.5zM244 301q6 -61 31.5 -98t72.5 -37q31 0 64.5 45t63.5 113.5t52.5 152.5t29.5 165t-2 148.5t-44 104.5q-29 31 -61.5 15.5t-64.5 -60.5t-60.5 -114.5t-49 -145.5t-29.5 -152t-3 -137zM371 1194q111 27 175 75t92 97t23.5 90 t-28.5 57q-20 12 -50 4t-65 -43.5t-72.5 -103t-74.5 -176.5z" />
<glyph horiz-adv-x="876" d="M-104 1575q0 113 45 224.5t118.5 203.5t173 154.5t207.5 76.5q147 18 274.5 -24.5t216.5 -131.5t131 -217t21 -276q-129 219 -261 334t-254 148.5t-229.5 1t-189 -106.5t-133 -176.5t-59.5 -206.5t31 -199.5t137 -154.5q14 43 27.5 84t29.5 75q63 145 138 220t149 96.5 t137.5 -1t103.5 -71.5t50 -116.5t-27 -135t-126 -128t-245 -95.5q-16 -55 -31.5 -112.5t-29.5 -114.5q59 78 123 110q78 41 153.5 13.5t133.5 -99.5q55 -72 74.5 -166t10 -196.5t-41 -202.5t-79.5 -182t-107.5 -138.5t-121.5 -68.5q-111 -23 -189.5 2t-130.5 82t-81 138 t-40 173t-8 185.5t13 173.5q16 111 41 216t58 212q-115 76 -164 180t-49 217zM242 301q6 -61 31.5 -98t72.5 -37q31 0 64.5 45t64.5 113.5t52.5 152.5t29.5 165t-1 148.5t-44 104.5q-29 31 -62.5 15.5t-65.5 -60.5t-60.5 -114.5t-49 -145.5t-29.5 -152t-3 -137zM381 1210 q106 20 171.5 61.5t97.5 85.5t34 86t-16 64q-16 20 -46 21.5t-67 -27t-79 -92t-83 -170.5z" />
<glyph horiz-adv-x="1978" d="M2 399.5q0 112.5 33 223t98.5 208t161.5 158.5q88 55 186.5 56.5t180.5 -46.5l-121 -196q-68 16 -126.5 -17.5t-99.5 -96t-66.5 -143.5t-27.5 -162t17.5 -149.5t68.5 -105.5q51 -41 131 -45t177.5 12.5t208 47t226 62.5t230.5 58.5t222.5 31.5t200.5 -16.5t165 -82.5 q31 -29 44 -61t17 -66.5t3 -74.5t3 -83q-125 123 -263 176t-280.5 61.5t-286.5 -16t-282.5 -56.5t-268.5 -59.5t-245 -25.5q-104 0 -171.5 56t-101.5 147.5t-34 204z" />
<glyph horiz-adv-x="1091" d="M-1268 1090q27 90 89.5 161.5t145.5 119.5t176 72.5t183 20.5q113 -6 235 -31.5t243.5 -61.5t240.5 -75t227.5 -70.5t204.5 -50t172 -12.5q16 53 33.5 102.5t36.5 94.5q18 45 38.5 83t43.5 68v2q66 92 136.5 132.5t135 41.5t116.5 -32t80.5 -84t27.5 -114.5t-42 -126 t-128 -116t-230 -86.5q-35 -109 -58.5 -215t-41.5 -219q-31 -193 -25 -330t58.5 -207.5t152.5 -68.5t258 88l19 -45q-135 -80 -247 -106.5t-198 -6t-145.5 82t-91.5 155.5q-29 -63 -68 -117.5t-86 -91.5t-103.5 -55.5t-119.5 -11.5q-72 6 -118 71.5t-66.5 161.5t-14.5 212 t40 225.5t94.5 199.5t150.5 135q82 41 161.5 36t135.5 -77q0 -2 4 -6q10 43 21.5 85t21.5 83q-154 6 -310.5 35.5t-314.5 61.5t-316.5 56.5t-318 20.5t-319.5 -47t-320 -143zM250 378.5q0 -65.5 13 -113.5t42 -62q57 -29 103.5 14t79 122t48 176t12.5 179t-29 130t-75 28 q-47 -18 -82.5 -69.5t-60.5 -119t-38 -143.5t-13 -141.5zM918 1184q106 23 171.5 64.5t96.5 87.5t33 87t-19 62q-18 18 -48 16t-67.5 -34.5t-80.5 -101t-86 -181.5z" />
<glyph horiz-adv-x="1093" d="M2 425q6 116 40 225.5t94.5 199.5t150.5 135q82 41 162.5 36t134.5 -77q4 -4 4 -6q10 43 21.5 85t23.5 83l16 55q-106 78 -151 181.5t-41 215t49 220t119.5 197.5t172 149.5t206.5 75.5q147 18 274 -25t216 -132t131 -216t22 -277q-127 217 -257 332t-251 150.5t-227.5 6 t-189.5 -100t-135 -170t-65.5 -203t19.5 -200t123 -159.5q27 82 55 154q20 45 40.5 83t43.5 68v2q66 92 136.5 132.5t134 41.5t115.5 -32t80.5 -84t28.5 -114.5t-40.5 -126t-128 -116t-232.5 -86.5q-35 -109 -58.5 -215t-41.5 -219q-31 -193 -24 -330t59.5 -207.5 t152.5 -68.5t258 88l19 -45q-135 -80 -247 -106.5t-198 -6t-146.5 82t-92.5 155.5q-29 -63 -68 -117.5t-86 -91.5t-102.5 -55.5t-118.5 -11.5q-72 6 -119 71.5t-67.5 161.5t-14.5 212zM250 378.5q0 -65.5 13 -113.5t42 -62q57 -29 104.5 14t79 122t47 176t12.5 179t-29 130 t-75 28q-47 -18 -82.5 -69.5t-60.5 -119t-38 -143.5t-13 -141.5zM918 1184q104 20 168.5 60t96 84t36 85t-12.5 66q-16 20 -46 21t-68.5 -29.5t-83.5 -99t-90 -187.5z" />
<glyph horiz-adv-x="1988" d="M3 466q5 114 42 221.5t105.5 194.5t168.5 134q84 39 160 40t126 -32t66.5 -95.5t-19.5 -150.5t-132 -198.5t-268 -239.5q-2 -119 27.5 -193t82.5 -88q63 -18 165 3.5t226 59.5t262 83t274 74.5t262 33.5t227 -39q47 -20 78.5 -61t51 -90t29 -103.5t9.5 -103.5 q-133 129 -288 182.5t-314.5 57.5t-319.5 -26t-302 -63.5t-261 -57t-199 -7.5q-92 18 -151.5 87t-86 166t-21.5 211zM256 426q106 100 172 175t98.5 127t35.5 82t-11 40q-20 10 -64.5 -13.5t-92.5 -77.5t-87 -138t-51 -195z" />
<glyph horiz-adv-x="819" d="M8.5 -377q-18.5 55 4 113.5t93 113t203.5 87.5q29 115 50.5 255t35.5 283q-63 -6 -95 -7t-49.5 9t-26.5 36t-25 75q25 -14 55 -23q27 -10 63.5 -16t83.5 -8q4 39 6.5 114.5t10.5 165.5t23.5 183.5t46 166t77.5 114.5t119 30q63 -10 99 -52t48.5 -103.5t4 -137.5t-31 -156 t-57 -158.5t-77.5 -144.5q41 10 77.5 19.5t69.5 19.5q0 -16 -1 -29.5t-11 -17.5q-41 -16 -82 -28.5t-88 -24.5q-14 -137 -34.5 -272.5t-49.5 -270.5q168 10 326.5 -5t315.5 -42t311.5 -57.5t312.5 -49.5q145 -18 282 -19t271.5 16.5t266.5 56.5t267 102 q-84 -164 -196.5 -247t-236.5 -115.5t-249 -27.5t-231 19q-170 25 -359.5 78t-381 106.5t-375 91.5t-338.5 32q-43 -160 -104.5 -250t-127 -127t-128 -30t-106.5 42t-62.5 90zM73 -313.5q-3 -28.5 7 -46.5t33.5 -20.5t53.5 21t62.5 79t61.5 149.5q-74 -25 -121 -56.5 t-70.5 -64.5t-26.5 -61.5zM643 596q61 102 92 210.5t40 197t1 142.5t-24 50q-18 -4 -31.5 -45t-26 -100.5t-20.5 -130t-14.5 -135t-10.5 -117t-6 -72.5z" />
<glyph horiz-adv-x="823" d="M-328 -494q102 -115 212 -166t216.5 -57t203.5 27t173 87t126 121.5t61.5 134t-20.5 123t-118 85.5q-45 -147 -107.5 -229.5t-127 -114t-125 -22.5t-102 46t-57 91.5t8 111.5t93 110.5t200.5 86.5q29 113 50.5 254t35.5 282q-63 -6 -95 -7t-49.5 10.5t-26.5 37t-25 74.5 q25 -14 55 -23q27 -10 63.5 -16t83.5 -8q4 39 6.5 114.5t10.5 165.5t23.5 182.5t46 166t77.5 115.5t119 30q63 -10 99 -52t48.5 -102.5t5 -137.5t-30 -155.5t-58 -157.5t-76.5 -145q41 10 77.5 19.5t67.5 19.5q2 -18 0 -31.5t-12 -17.5q-41 -14 -82 -26.5t-88 -24.5 q-16 -150 -36.5 -295.5t-55.5 -292.5q-2 -4 -2 -6t-2 -6q92 -29 136 -86.5t48 -131t-25.5 -156.5t-85 -161t-132.5 -143.5t-164 -104t-181 -46t-186 31.5q-49 20 -97.5 58t-86 88.5t-62.5 114t-31 134.5zM72 -322.5q0 -29.5 16 -44.5q14 -12 38 -9t51.5 28.5t57 79 t56.5 141.5q-80 -25 -127 -60.5t-69.5 -70.5t-22.5 -64.5zM643 602q61 102 92 211t40 196t1 141t-24 50q-18 -4 -31.5 -44t-26 -99.5t-20.5 -130t-14.5 -135t-10.5 -117t-6 -72.5z" />
<glyph horiz-adv-x="886" d="M2 447.5q6 115.5 40 225t94.5 200t150.5 135.5q80 41 157.5 36.5t133.5 -69.5v32.5t2 30.5q49 -10 93 -20t76.5 -20.5t52 -20.5t19.5 -21q-2 -20 -5 -78.5t-10 -140.5t-17.5 -181t-22.5 -203.5t-28.5 -208t-35.5 -191.5q207 20 401.5 -2.5t386 -57t382 -68.5t388.5 -40 t408.5 31t440.5 143q-61 -119 -138 -194.5t-163 -118.5t-178.5 -59.5t-181.5 -16.5t-173 10t-153 23q-199 31 -389.5 86t-369.5 106t-348 83t-325 16q-41 -164 -103.5 -258.5t-128 -134.5t-129 -34.5t-108.5 40t-64.5 90t3 114t92.5 113.5t205 88q12 53 24.5 113.5 t22.5 126.5q-57 -76 -133 -118t-168 -32q-72 6 -119 71.5t-67.5 162t-14.5 212zM218 -347q-1 -30 13 -46q12 -14 36 -13.5t52.5 27.5t59 80t59.5 143q-78 -25 -125 -58.5t-70.5 -68t-24.5 -64.5zM250 401.5q0 -65.5 13 -113.5t42 -63q43 -20 81 -0.5t67.5 66.5t52 112.5 t35 135t13.5 137t-10.5 117t-36 73.5t-63.5 8q-47 -18 -82.5 -69t-60.5 -119t-38 -143.5t-13 -141z" />
<glyph horiz-adv-x="886" d="M-143 -502q104 -117 216.5 -168t221 -55t206 32t173.5 92t124 127t54 137.5t-34 120.5t-138 79q-43 -156 -105.5 -244t-127 -124t-127 -28.5t-105.5 43t-61.5 90t4 113t93.5 112.5t204 87q14 53 25.5 113.5t21.5 126.5q-57 -76 -133 -118t-168 -32q-72 6 -118 71.5 t-66.5 162t-14.5 212t40 225t94.5 200t150.5 135.5q78 41 156.5 36.5t131.5 -69.5q2 16 2.5 32.5t0.5 30.5q49 -10 93 -20t77.5 -20.5t52 -20.5t18.5 -21q-12 -254 -41.5 -526t-85.5 -520q102 -23 153.5 -79t60.5 -129t-18.5 -157t-82.5 -163.5t-131 -148.5t-165 -111 t-185.5 -50t-190.5 33q-49 20 -96 58t-85 88.5t-63.5 113t-31.5 133.5zM216 -347q-1 -30 13 -46q14 -14 38 -12t52.5 27.5t58 78.5t58.5 143q-78 -25 -125 -58.5t-70.5 -68t-24.5 -64.5zM250 401.5q0 -65.5 13 -113.5t42 -63q43 -20 81 -0.5t67.5 66.5t51 112.5t34 135 t14.5 137t-9.5 117t-36 73.5t-63.5 8q-47 -18 -82.5 -69t-60.5 -119t-38 -143.5t-13 -141z" />
<glyph horiz-adv-x="995" d="M-78 1575q0 113 44 224.5t119 203.5t174 153.5t208 75.5q147 18 275 -24.5t217.5 -131.5t131.5 -216t19 -277q-129 219 -260 334t-254 149.5t-230.5 2t-189.5 -106.5t-133 -176.5t-59.5 -206.5t30.5 -199.5t138 -154.5q14 43 28.5 84t28.5 75q63 145 138 220t148.5 96.5 t137 -1t104.5 -71.5t49.5 -116.5t-27.5 -135t-126 -128t-246 -95.5q-33 -100 -63.5 -224t-55 -248t-42 -237.5t-23.5 -193.5q18 53 45.5 129t59.5 157.5t69 163.5t70.5 146.5t65.5 104.5t56 40q20 0 49 -7t55.5 -17.5t45 -22.5t16.5 -20q-57 -246 -68.5 -426.5t35 -278.5 t153 -107.5t284.5 87.5l18 -45q-145 -86 -252.5 -112t-183.5 -9.5t-126 67t-80 116t-43 138t-17 135t-2 106.5t2 50q-59 -98 -112.5 -255t-125.5 -376q-12 -12 -37.5 -14t-53.5 6t-52.5 24.5t-30.5 39.5q-33 119 -37 259t12.5 285.5t48 291t70.5 272.5q-115 78 -165 181 t-50 216zM408 1210q106 20 171.5 61.5t97.5 85.5t34 86t-17 64q-16 20 -46 20.5t-66.5 -28.5t-78.5 -91t-83 -169q-8 -21 -12 -29z" />
<glyph horiz-adv-x="997" d="M-1774 1114q27 90 89.5 162t145.5 120t176 72.5t183 20.5q113 -6 235 -31.5t243.5 -61.5t240.5 -75t227.5 -70.5t205 -50t171.5 -12.5q16 53 34 102t36 94q63 145 138 220t148.5 96.5t137 -1t104.5 -71.5t49.5 -116.5t-27.5 -135t-126 -128t-246 -95.5 q-35 -100 -65.5 -224t-55 -248t-42 -237.5t-23.5 -193.5q18 53 46 129t60.5 157.5t68.5 163.5t70.5 146.5t66.5 104.5t56 40q18 0 48 -7t57 -17.5t45 -22.5t16 -20q-59 -246 -69.5 -426.5t35 -278.5t153 -107.5t285.5 87.5l18 -45q-145 -86 -252.5 -112t-184.5 -9.5t-126 67 t-79 116t-43 138t-17 135t-2 106.5t2 50q-59 -98 -112.5 -255t-125.5 -376q-10 -12 -36.5 -14t-54.5 6t-52.5 24.5t-30.5 39.5q-31 113 -37 244.5t8.5 272t42 280t64.5 263.5q-154 6 -310.5 36t-314 62t-316.5 56.5t-318.5 20t-319.5 -47.5t-320 -143zM412 1210 q104 20 168.5 60.5t96.5 85.5t36 86t-15 63q-16 20 -45.5 20.5t-68.5 -31.5t-83 -99.5t-89 -184.5z" />
<glyph horiz-adv-x="1292" d="M1 528.5q-1 221.5 83 491.5q70 -23 114 -40t69.5 -31.5t33.5 -26t6 -21.5q-49 -205 -65.5 -364.5t6.5 -266.5q27 -92 90 -152.5t184 -62.5q86 2 174 48.5t167 124t140.5 179t93 214t26.5 227.5t-60 219q117 -37 171 -124t56 -198.5t-45 -232.5t-135 -226.5t-210.5 -181.5 t-274.5 -94q-70 -10 -149 -11t-152.5 15.5t-137 53t-104.5 104.5q-80 135 -81 356.5zM166 1253q8 93 53 199q70 -23 112 -46.5t63.5 -45t27.5 -38.5t4 -26q-8 -35 -19.5 -73.5t-23.5 -78.5t-24.5 -79t-20.5 -72q-55 14 -91 42t-54.5 64t-24.5 75.5t-2 78.5z" />
<glyph horiz-adv-x="1757" d="M10.5 373q18.5 -129 72.5 -219.5t144 -128.5q82 -35 167 -25t174 42t180.5 76t184.5 75.5t188.5 42t190.5 -23.5t191 -123t193 -255q53 127 59 198.5t-22 106.5q-92 106 -187.5 155.5t-193 60t-192.5 -11t-187 -57.5t-178 -79t-163 -77t-143.5 -49t-119.5 3 q-61 23 -93 88.5t-38.5 168.5t11 240.5t58.5 303.5q2 10 -6 21.5t-33.5 25.5t-69.5 31.5t-114 40.5q-55 -180 -73.5 -341t0 -290zM166 1237q8 92 53 199q70 -23 112 -46.5t63.5 -45t27.5 -39t4 -25.5q-8 -35 -19.5 -74t-23.5 -79t-24.5 -78.5t-20.5 -71.5q-55 14 -91 42 t-54.5 63.5t-24.5 75.5t-2 79z" />
<glyph horiz-adv-x="727" d="M8.5 -374.5q-18.5 55.5 4 113.5t93 112.5t203.5 87.5q31 117 52.5 264t36 292.5t21.5 275.5t7 210q49 -10 93 -20.5t78 -20.5t53.5 -20.5t19.5 -20.5q-12 -229 -41 -472t-78 -468q172 12 335 -2t321.5 -41t316 -58.5t319.5 -50.5q45 -6 91 -10t94 -6q211 -12 434 22.5 t469 149.5q-84 -164 -198 -247t-237.5 -115.5t-247.5 -27.5t-231 19q-20 4 -38.5 6.5t-36.5 6.5q-25 4 -48.5 8t-48.5 8q-180 35 -353 86t-337 97t-319.5 76t-298.5 18q-43 -158 -104.5 -248t-127 -127t-128 -30t-106.5 42t-62.5 90.5zM72 -326.5q2 -29.5 18 -44.5 q14 -12 37 -8t50.5 30.5t57 80t56.5 139.5q-82 -27 -130 -62.5t-69.5 -70.5t-19.5 -64.5zM469 1251q-8 92 25 205q72 -12 116.5 -29.5t69.5 -36t33 -35t8 -26.5q-6 -68 -21.5 -155.5t-23.5 -155.5q-57 6 -96 28.5t-62.5 55.5t-35 71.5t-13.5 77.5z" />
<glyph horiz-adv-x="729" d="M-313 -498q102 -115 213.5 -166t219 -56t205 28t173 88t124 124.5t58.5 136.5t-26 121t-128 83q-45 -147 -106.5 -230.5t-127 -116t-126 -23.5t-102 45t-58 91.5t7 112.5t94 110.5t201.5 86.5q31 117 52.5 264t36 292.5t21.5 275.5t7 210q49 -10 93 -20.5t78 -20.5 t52.5 -20.5t18.5 -20.5q-6 -115 -15.5 -242t-25 -256t-38 -255t-50.5 -236q96 -27 143 -83t54 -130t-22.5 -157t-84 -161.5t-131 -145.5t-164.5 -106.5t-183.5 -48t-187.5 32.5q-49 20 -97 57t-86 88.5t-62.5 114t-30.5 133.5zM71 -320.5q-1 -29.5 13 -46.5q12 -16 35.5 -15 t52.5 26.5t59.5 80t59.5 144.5q-78 -25 -125 -58.5t-70.5 -67.5t-24.5 -63.5zM469 1249q-6 92 25 205q72 -12 115.5 -29.5t68 -36t33 -35t8.5 -26.5q-6 -68 -20.5 -155.5t-24.5 -155.5q-57 6 -96 28.5t-61.5 55.5t-34 71.5t-13.5 77.5z" />
<glyph horiz-adv-x="821" d="M-1784 1114q27 92 89.5 164t145.5 120t176 71.5t183 19.5q115 -6 235.5 -31.5t243.5 -60.5t242 -75t227.5 -71.5t204.5 -49t172 -11.5q16 53 33.5 102t34.5 94q63 145 138 219t148.5 95.5t138 -1t104.5 -71.5t49.5 -116.5t-26.5 -135t-126 -128t-246 -95.5 q-33 -100 -63.5 -215t-57 -232.5t-45 -234.5t-27.5 -221q18 53 46 129t61 157.5t68.5 163.5t70.5 146.5t67 104.5t56 40q41 2 59.5 0t36.5 -2q-41 -45 -77 -98q-33 -45 -69 -104.5t-65 -124.5q-6 -82 3.5 -166t37 -157t75.5 -127t119 -81t164 -17.5t214 66.5l10 -26 q-119 -70 -215 -100.5t-173 -30.5t-136.5 24.5t-104.5 65.5t-76.5 94t-52.5 108q-25 -70 -50.5 -144.5t-51.5 -156.5q6 -12 -17.5 -14t-56.5 6t-63.5 24.5t-36.5 39.5q-29 104 -31 242.5t13.5 284.5t43 285.5t58.5 247.5q-154 6 -310.5 36t-314.5 63t-317.5 56.5t-319.5 19 t-319.5 -46t-319.5 -144.5zM403 1210q100 20 165 59.5t96.5 82.5t37 84t-9.5 65q-14 23 -44 26t-68.5 -28t-85 -100.5t-91.5 -188.5z" />
<glyph horiz-adv-x="817" d="M-23.5 1601.5q7.5 108.5 54.5 214t120.5 192.5t169 144.5t199.5 71.5q147 18 275.5 -24.5t217.5 -132t131 -216.5t19 -276q-125 213 -252 326.5t-245.5 151.5t-224 12.5t-188.5 -92t-138.5 -162t-71.5 -197t9.5 -197.5t103.5 -164q10 35 22 68t25 63q63 145 138 220 t148.5 96.5t137 -1t104.5 -71.5t49 -116.5t-27.5 -135t-125.5 -128t-246 -95.5q-33 -100 -63.5 -215t-56 -233.5t-44 -235.5t-27.5 -219q18 53 46 129t61 157.5t68.5 163.5t70.5 146.5t65.5 104.5t55.5 40q41 2 59.5 0t38.5 -2q-41 -45 -77 -98q-33 -45 -70 -104.5 t-66 -124.5q-6 -82 5.5 -169t42 -162t79.5 -133.5t120 -84t161 -11t203 81.5l12 -30q-176 -104 -305 -123t-219 16t-146.5 109.5t-87.5 156.5q-25 -70 -50.5 -143.5t-51.5 -155.5q-16 -12 -43 -14t-53.5 6t-48 24.5t-27.5 39.5q-31 109 -34 249t13.5 291.5t50 306 t76.5 289.5q-94 80 -132 183.5t-30.5 212zM401 1210q104 20 169 60.5t96.5 85.5t36 86t-14.5 63q-16 20 -46 20.5t-68.5 -31.5t-83 -99.5t-89.5 -184.5z" />
<glyph horiz-adv-x="2205" d="M2 262.5q-4 116.5 5 249.5t31.5 269.5t57.5 246.5q137 -43 184.5 -70.5t38.5 -46.5q-16 -39 -36.5 -114.5t-39 -167.5t-34.5 -191.5t-23 -187.5q18 53 46 129t61 157.5t68.5 163.5t70.5 146.5t66.5 104.5t56.5 40q18 0 48 -7t56.5 -17.5t45 -22.5t16.5 -20 q-41 -174 -59.5 -315.5t-8.5 -246.5q33 92 77 202t89 204t88 158.5t74 64.5q18 0 48 -7t56.5 -17.5t45 -22.5t16.5 -20q-16 -63 -34.5 -153.5t-29 -187t-6.5 -192.5t35 -172t92.5 -124t167.5 -50q86 2 174 48t167 124t140.5 180.5t93 214t25.5 227.5t-61 220 q123 -39 178 -134.5t50 -215t-62.5 -246.5t-158.5 -232.5t-241.5 -172t-306.5 -62.5q-61 0 -115.5 4t-100.5 15.5t-87 35t-78 64.5q-47 49 -71.5 114.5t-37 138t-14.5 144.5t-2 133q-37 -59 -61.5 -114.5t-44 -109.5t-36.5 -111.5t-40 -121.5q-10 -29 -20.5 -55.5 t-23.5 -40.5t-31.5 -10t-45.5 35q-37 41 -60.5 95t-36.5 110.5t-19.5 111.5t-7.5 100.5t0 75t1 35.5q-59 -98 -112.5 -255t-124.5 -376q-14 -12 -41 -14t-53.5 6t-49 24.5t-28.5 39.5q-23 76 -27 192.5z" />
<glyph horiz-adv-x="2658" d="M1 263.5q-5 117.5 4 250.5t31.5 268.5t57.5 245.5q139 -43 185.5 -70.5t39.5 -46.5q-16 -39 -36.5 -113.5t-39 -166.5t-34.5 -192.5t-23 -188.5q18 53 46 129t61 157.5t68.5 163.5t70.5 146.5t65.5 104.5t55.5 40q20 0 49 -7t56.5 -17.5t46 -22.5t16.5 -20 q-41 -174 -59.5 -315.5t-10.5 -246.5q33 92 77 202t90 204t89 158.5t74 64.5q18 0 48 -7t56.5 -17.5t45 -22.5t16.5 -20q-10 -39 -22.5 -100.5t-23.5 -134.5t-18.5 -151.5t-3.5 -151.5t20.5 -133t52.5 -99t93.5 -47.5t143.5 22.5q74 27 163.5 73t189 88t205 70.5t212 24.5 t212 -53t203.5 -162q29 -35 23 -107.5t-60 -197.5q-94 162 -191 250t-195.5 122.5t-197 25.5t-193.5 -39.5t-188 -71.5t-180 -74t-169 -44t-154 19q-76 37 -117 106.5t-61.5 153.5t-23.5 172t-3 160q-37 -59 -61.5 -113.5t-44 -108.5t-36.5 -111.5t-40 -121.5 q-10 -31 -20.5 -57.5t-23.5 -39.5t-31.5 -10t-45.5 34q-55 61 -81.5 148t-36 169t-7.5 142.5t2 68.5q-59 -98 -112.5 -255t-124.5 -376q-14 -12 -41 -14t-53.5 6t-49 24.5t-28.5 39.5q-23 76 -28 193.5z" />
<glyph horiz-adv-x="1781" d="M2 263.5q-4 117.5 5 250.5t31.5 269.5t57.5 246.5q139 -45 185.5 -72.5t37.5 -46.5q-16 -39 -35.5 -113.5t-39 -166.5t-34.5 -192.5t-24 -188.5q18 53 46 129t61 157.5t68.5 163.5t70.5 146.5t66.5 104.5t56.5 40q20 0 49 -7t55.5 -17.5t45 -21.5t16.5 -19 q-16 -72 -34.5 -165t-28 -189.5t-5.5 -187.5t31 -161q29 -78 91.5 -126t168.5 -50q86 2 174 48t167 124t141.5 179.5t94 214t25.5 227t-61 219.5q119 -37 173 -126t55 -200.5t-48 -234.5t-138 -227.5t-215 -179.5t-280 -91q-186 -20 -303 15.5t-181.5 119.5t-87 213 t-20.5 297q-59 -98 -112.5 -255t-124.5 -376q-6 -12 -31 -14t-54.5 6t-56 24.5t-32.5 39.5q-23 76 -27 193.5z" />
<glyph horiz-adv-x="2244" d="M2 263.5q-4 117.5 5 250.5t31.5 269.5t57.5 246.5q137 -45 184.5 -72.5t38.5 -46.5q-16 -39 -36.5 -113.5t-39 -166.5t-34.5 -192.5t-23 -188.5q18 53 46 129t61 157.5t68.5 163.5t70.5 146.5t66.5 104.5t56.5 40q18 0 48 -7t56.5 -17.5t45 -21.5t16.5 -19 q-12 -51 -30.5 -142.5t-30 -194t-8.5 -203.5t34 -172t96.5 -99.5t180.5 14.5q76 27 166 73t188 88t204.5 70.5t213 24.5t211 -53t202.5 -162q29 -35 22.5 -106.5t-59.5 -198.5q-94 162 -190 250t-194.5 122.5t-196.5 25.5t-194.5 -39.5t-188.5 -71.5t-180 -74t-169 -44 t-155 19q-59 29 -97 83t-61.5 117.5t-33 130.5t-12.5 123t-1 94t2 44q-59 -98 -112.5 -255t-124.5 -376q-6 -12 -31 -14t-54.5 6t-56 24.5t-32.5 39.5q-23 76 -27 193.5z" />
<glyph horiz-adv-x="1406" d="M0 435q2 116 34 226.5t96.5 203.5t162.5 145q90 47 180 45t156 -70q18 -23 34.5 -47t28.5 -55q-94 37 -167.5 23.5t-129 -59.5t-92.5 -118t-55.5 -150.5t-19.5 -158.5t15.5 -141.5t50.5 -98.5t83 -30q70 8 124 64t87 129t45 149.5t0 130.5q-66 2 -101.5 22.5t-47 49 t-3.5 59t29.5 54t53.5 33t67 -4.5q53 -23 75.5 -69t26.5 -103q152 20 255.5 71t168 122t96 159t39.5 182q20 -35 40 -87t28 -106.5t1 -106.5t-40 -87q-51 -55 -130 -93t-163 -61.5t-164 -33t-131 -9.5q-2 -63 -15 -120.5t-28 -104.5q-25 -80 -65.5 -152.5t-97 -127t-127 -84 t-154.5 -25.5q-82 4 -137.5 66.5t-83 157.5t-25.5 211z" />
<glyph horiz-adv-x="1988" d="M0 435q2 116 34 226.5t96.5 203.5t162.5 145q90 47 180 45t156 -70q18 -23 34.5 -47t28.5 -55q-94 37 -167.5 23.5t-129 -59.5t-92.5 -118t-55.5 -150.5t-19.5 -158.5t15.5 -141.5t50.5 -98.5t83 -30q70 8 124 64t87 129t45 149.5t0 130.5q-68 2 -102.5 22.5t-47 49 t-4.5 59t30.5 54t54.5 33t67 -4.5q47 -20 70.5 -60.5t29.5 -91.5q100 25 208 57.5t213 60t206.5 45t191.5 15.5t165 -31.5t128 -95.5q20 -27 32.5 -58.5t21 -65t15.5 -67.5t17 -67q-135 131 -283.5 185.5t-302 60.5t-308 -23.5t-302.5 -62.5q2 -66 -12 -133.5t-31 -114.5 q-25 -80 -65.5 -152.5t-97 -127t-127 -84t-154.5 -25.5q-82 4 -137.5 66.5t-83 157.5t-25.5 211z" />
<glyph horiz-adv-x="929" d="M-2288 -41q137 -111 309.5 -161t366 -62t402.5 7t418.5 48t414.5 60t391 45q-4 106 2.5 227t20.5 242.5t32.5 238.5t38 217.5t39 178t35.5 120.5q35 -4 78 -12t79 -20.5t58.5 -24.5t18.5 -23q-4 -10 -10.5 -29.5l-14.5 -43.5q43 47 90 71q80 41 155 13.5t132 -99.5 q61 -80 78.5 -187.5t2.5 -220t-58 -221t-102.5 -187.5t-129.5 -119t-137 -15q-68 23 -113 70t-71 112q-2 -8 -8.5 -52t-12.5 -94t-10 -91t-2 -41q96 -45 141 -100.5t54.5 -110.5t-12 -104.5t-59.5 -82t-87 -41t-97 18.5q-59 35 -89.5 130t-39.5 228q-152 -18 -312.5 -60 t-324 -89t-327.5 -93t-319.5 -72t-303 -26t-277.5 46.5t-242 143.5t-198 265zM182 -312.5q6 -60.5 21.5 -90t37 -33.5t40.5 10q23 16 36 49t6.5 73t-37 79.5t-98.5 70.5q-12 -98 -6 -158.5zM301 303.5q6 -61.5 30.5 -98.5t71.5 -37q31 0 65 44t64.5 113.5t52 153.5t30 165 t-1 148.5t-44.5 104.5q-29 31 -62.5 15.5t-65 -60.5t-60.5 -114.5t-48.5 -145.5t-28.5 -151.5t-3 -137z" />
<glyph horiz-adv-x="897" d="M-1872 8q139 -113 314.5 -165t373 -63t410.5 7t427 48t421 59.5t393 39.5q-8 53 -10 103.5t2 95.5q-53 -53 -116.5 -79.5t-141.5 -18.5q-72 6 -118 71.5t-66.5 162t-14.5 212t40 225t94.5 199.5t150.5 135q82 41 161.5 36t135.5 -77q25 -33 45 -90q14 41 26.5 77t24.5 65 q70 -23 112 -46.5t63.5 -45t27.5 -39t4 -25.5q-41 -154 -91.5 -329t-78.5 -349q-14 -76 -20.5 -148.5t-8.5 -138.5q109 -29 160 -76t59 -95t-17.5 -92t-72.5 -66.5t-105.5 -17.5t-115.5 55q-47 41 -75.5 106.5t-45.5 140.5q-154 -14 -316.5 -53t-329.5 -86l-334 -94 t-326.5 -75t-310 -28t-284 44.5t-247 143.5t-199.5 271zM250 434.5q0 -65.5 13 -114t42 -62.5q55 -27 102.5 16t79 122t49 177.5t14.5 179.5t-29 127.5t-77 26.5q-47 -18 -82.5 -69.5t-60.5 -119t-38 -143t-13 -141zM688 -125q2 -80 20.5 -123t41 -58.5t46 -8t38.5 27.5 q12 18 13 42t-14.5 47.5t-49.5 43t-95 29.5z" />
<glyph horiz-adv-x="733" d="M-1640 -494q18 127 65 209t123 105q193 57 398.5 81.5t414.5 17.5t415 -42t398 -92q59 -18 90 6.5t40 78.5t3 130t-19.5 161t-30 173t-24.5 166q-6 47 -9 108.5t1 125t16.5 122.5t39 103.5t68.5 68t104 14.5q35 -4 69.5 -15t65 -30.5t53.5 -47t31 -64.5q12 -61 7 -129 t-21.5 -135.5t-40 -129t-44 -109.5t-35 -78t-14.5 -32q18 -156 11 -276.5t-42.5 -196t-103 -100.5t-172.5 12q-221 80 -462.5 112t-484.5 9.5t-475.5 -102.5t-434.5 -224zM491 577.5q-3 -94.5 15 -217.5q55 129 79.5 224.5t28.5 159t-7 94t-29 28.5t-38 -34.5t-33 -96 t-16 -158z" />
<glyph horiz-adv-x="591" d="M0 1061q14 -2 33 -6q16 -4 36.5 -7.5t47.5 -7.5q29 98 56.5 186.5t49.5 153.5q70 -23 112 -46t64.5 -44.5t27.5 -39t3 -27.5q-14 -53 -27.5 -103.5t-27.5 -101.5q154 -16 287 30t233 130t163.5 193.5t78 221t-24.5 214t-141 171.5q-10 6 15.5 9.5t71.5 -4t101 -26 t103.5 -55t79 -93t28.5 -136.5q-4 -115 -86 -247t-220 -243.5t-320.5 -180t-389.5 -56.5q-20 -72 -37.5 -151.5t-29.5 -157.5q-27 -180 -16.5 -307t63.5 -191.5t153.5 -60.5t253.5 88l19 -45q-199 -117 -344.5 -121t-236.5 80t-125 241.5t-9 362.5q8 70 22.5 144.5 t34.5 148.5q-23 6 -42 11t-31 9q-16 4 -27 9z" />
<glyph horiz-adv-x="2099" d="M3 617.5q9 209.5 77 461.5q70 -23 114 -40t69.5 -31.5t33.5 -25.5t6 -21q-39 -139 -57.5 -277.5t-19.5 -248t13.5 -175t43.5 -59.5q23 6 48 59t50 133t48.5 176.5t44 186.5t37.5 165.5t30 116.5q70 -23 114.5 -40t69.5 -30.5t33 -25.5t6 -20q-16 -72 -35.5 -155t-30 -169 t-8.5 -169t26.5 -155.5t78 -130t143.5 -90.5q137 -49 278.5 -45t267.5 41t227 97.5t160.5 125t67 124t-54.5 96.5q94 18 149.5 -16t58.5 -93t-50 -130t-174 -126q-121 -53 -266.5 -90t-296 -48.5t-292.5 4t-255 66.5q-72 33 -125 80t-88 111q-29 63 -42.5 143t-8.5 182 q-51 -268 -121 -404t-137.5 -165t-126 41t-87 215.5t-19.5 355z" />
<glyph horiz-adv-x="788" d="M6 635.5q12 195.5 74 427.5q70 -23 114 -40t69.5 -31.5t33.5 -26t6 -21.5q-39 -139 -57.5 -277.5t-19.5 -248t13.5 -175t43.5 -59.5q18 6 40.5 45t43 102.5t41 143.5t36 166t25.5 170t14 158q0 10 38 1t84 -24.5t83 -33t37 -25.5q-10 -229 -39 -471t-78 -467 q168 10 328 -5.5t315.5 -42t311 -57t313.5 -49.5q47 -6 92 -10t92 -6q211 -10 434.5 23.5t468.5 148.5q-84 -164 -196.5 -247t-236.5 -115.5t-248.5 -27.5t-231.5 21q-20 4 -38.5 5t-37.5 5q-25 4 -48 8.5t-48 8.5q-176 33 -346 84t-331 97t-313.5 76t-293.5 21 q-43 -160 -104.5 -250t-128 -126.5t-129 -29.5t-105.5 42t-61.5 90t4 113.5t93 113t204.5 86.5q23 86 39 187.5t30 210.5q-55 -184 -120.5 -265.5t-125 -76t-107.5 87.5t-68.5 226t-8.5 339.5zM129 -347q4 -30 23 -40q14 -8 37.5 -2t50 33.5t55 80t53.5 134.5 q-86 -27 -134 -65t-68.5 -74.5t-16.5 -66.5z" />
<glyph horiz-adv-x="788" d="M-256 -496q102 -115 213 -167t218.5 -57t204.5 29t174 89t125 123.5t58.5 135.5t-24.5 122t-125 84q-45 -152 -106.5 -237t-127 -118.5t-127 -25.5t-103.5 44t-59.5 90t6 112.5t93 112t203.5 85.5q23 86 39 187.5t30 210.5q-55 -184 -120.5 -265.5t-125 -76t-107.5 87.5 t-68.5 226t-8.5 339.5t74 427.5q70 -23 114 -40t69.5 -30.5t33.5 -26t6 -20.5q-39 -139 -57.5 -278.5t-19.5 -249t13.5 -175t43.5 -59.5q18 6 40.5 46t43 102.5t41 142.5t36 166t25.5 170t14 158q0 10 38 1t84 -24.5t83 -33t37 -25.5q-12 -240 -42 -492t-83 -485 q127 -35 168 -123t17.5 -194.5t-99.5 -215t-182.5 -185.5t-233.5 -105.5t-250 24.5q-49 20 -97 57t-86 88.5t-62.5 114t-30.5 133.5zM128 -343q3 -30 22 -42q14 -10 37.5 -5t50 32.5t55 80t55.5 136.5q-84 -27 -132 -64t-69.5 -72.5t-18.5 -65.5z" />
<glyph horiz-adv-x="561" d="M-67.5 1560.5q4.5 110.5 49.5 219t119.5 196.5t172 148.5t203.5 75.5q147 18 275.5 -25t217.5 -132t131 -217t19 -276q-127 215 -256 330t-249.5 150.5t-227 7t-188.5 -98t-135.5 -169t-66.5 -202t18.5 -198.5t119.5 -160q12 37 24.5 72t26.5 70q63 145 138 219t149 96.5 t138.5 0t104.5 -72t49 -117t-27 -136t-126 -128t-245 -94.5v-2q-29 -109 -56.5 -216t-46.5 -218q-33 -193 -26.5 -330t58.5 -207.5t153.5 -68.5t259.5 88l18 -45q-188 -111 -329.5 -119t-232.5 63.5t-131 213t-28 327.5q8 131 39 274.5t74 282.5q-104 78 -147.5 182.5 t-39 215zM385 1176q106 20 171 62t96.5 87t33.5 86t-16 64q-16 18 -46 17t-68 -33t-82 -100t-89 -183z" />
<glyph horiz-adv-x="552" d="M-1796 1081q27 90 89 162t145 120t176.5 72.5t183.5 20.5q113 -6 234.5 -31.5t243.5 -61.5t240.5 -76t228.5 -71.5t206 -49t172 -11.5q16 53 33.5 102.5t33.5 94.5q63 145 138 219t149 96.5t138.5 0t104.5 -72t49 -117t-26.5 -136t-126 -128t-245.5 -94.5v-2 q-29 -109 -56.5 -216t-46.5 -218q-33 -193 -26.5 -330t58.5 -207.5t153.5 -68.5t259.5 88l18 -45q-188 -111 -329.5 -119t-232.5 63.5t-131 213t-28 327.5q8 123 34 248t60 242q-154 6 -310 35.5t-314 62.5t-317.5 57.5t-319.5 20.5t-319.5 -47t-319.5 -144zM389 1176 q106 20 172 62t96.5 87t32.5 86t-16 64q-16 18 -47 17t-69 -34t-82 -100t-87 -182z" />
<glyph horiz-adv-x="1652" d="M-117 1581q0 113 44 224.5t120 203.5t174 153.5t207 75.5q147 20 274 -22.5t216.5 -131.5t131.5 -217t21 -276q-129 219 -261 334t-255 148.5t-230.5 1t-189.5 -106.5t-132 -176t-59.5 -206.5t30.5 -200t139 -154.5q14 43 27.5 84t29.5 76q63 145 138 220t147.5 96.5 t137 -1.5t104.5 -72t49.5 -115.5t-26.5 -135t-124 -128t-244 -94.5q-16 -55 -30.5 -110.5t-26.5 -110.5q53 76 121 111q80 41 155.5 13t130.5 -99q35 -45 55.5 -99.5t28.5 -113.5q49 -2 91.5 20.5t68.5 54.5q-37 25 -63.5 67t-36.5 97.5t0 123t45 142.5l178 -102 q-35 -96 -43 -158.5t1 -95.5t30.5 -38t44 12.5t43 54.5t26.5 90q12 -4 50.5 -15.5t78 -29t69.5 -35.5t26 -37q-57 -246 -68.5 -426t34.5 -279.5t152.5 -108.5t284.5 87l19 -45q-141 -84 -257 -108.5t-203 0t-145.5 94t-89 173t-31.5 238t29 287.5q-57 -25 -110 -12 q-31 -41 -88.5 -78t-130.5 -31q4 -111 -25 -226.5t-78 -211.5t-114.5 -163.5t-135.5 -82.5q-154 -31 -246 20.5t-139 153t-55 238.5t4 277.5t40 269.5t54 215q-113 76 -163 180t-50 217zM235.5 316.5q6.5 -60.5 31 -98.5t71.5 -36q31 0 64.5 44t64.5 113t52.5 152.5 t29.5 164.5t-1 149.5t-44 105.5q-29 31 -62.5 15.5t-65.5 -61.5t-60.5 -114.5t-48 -144.5t-29 -152.5t-3 -137zM369 1217q111 23 177 66.5t96 90.5t29 89.5t-26 60.5q-18 14 -48 8t-66.5 -40t-77.5 -101.5t-84 -173.5z" />
<glyph horiz-adv-x="1658" d="M-1817 1018q23 92 83.5 165.5t141.5 125t173 79t182 27.5q113 0 235.5 -21.5t245.5 -52t244 -64.5t231.5 -61.5t206.5 -42t172 -4.5q25 92 56.5 184.5t85.5 176.5q61 94 129.5 135t132 43t116 -28.5t83 -81t32.5 -114t-37 -127t-123 -120.5t-227 -94q-12 -49 -22.5 -99.5 t-22.5 -103.5q59 78 123 111q78 41 153.5 13t133.5 -99q35 -45 54 -99.5t28 -113.5q51 -2 93 20.5t66 54.5q-37 25 -63.5 67t-36.5 97.5t0 123t45 142.5l180 -102q-35 -96 -43 -158.5t1 -95.5t30.5 -38t44.5 12.5t43.5 54.5t26.5 90q12 -4 50 -15.5t78 -27.5t69.5 -35.5 t25.5 -38.5q-59 -246 -69.5 -426t34.5 -279.5t151.5 -108.5t284.5 87l19 -45q-141 -84 -256 -108.5t-202 0t-146.5 94t-89 173t-29.5 238t28 287.5q-59 -25 -110 -12q-33 -41 -89.5 -78t-129.5 -31q4 -111 -25 -226.5t-79 -211.5t-115.5 -163.5t-135.5 -82.5 q-147 -31 -237 16.5t-138.5 140.5t-60.5 220t-3 259t31.5 255t45.5 209q-154 0 -311.5 23.5t-317.5 49t-319.5 43t-319.5 7.5t-317.5 -58.5t-313.5 -156.5zM242 316.5q6 -60.5 31.5 -98.5t72.5 -36q31 0 64.5 44t64.5 113t52.5 152.5t29.5 164.5t-2 149.5t-45 105.5 q-29 31 -61.5 15.5t-64.5 -61.5t-60.5 -114.5t-49 -144.5t-29.5 -152.5t-3 -137zM365 1200q113 27 177 75t90.5 97t22.5 90t-30 58q-20 12 -50 4t-65 -44t-71.5 -105t-73.5 -175z" />
<glyph horiz-adv-x="1538" d="M-118 1581q1 113 45 224.5t119 202.5t174 153.5t208 76.5q147 20 274 -22.5t216.5 -132.5t131.5 -217t21 -277q-129 219 -261 334t-254 149.5t-229.5 3t-190.5 -105.5t-133 -176t-59.5 -206.5t29.5 -200t138 -154.5q63 195 143 302t159 150.5t150.5 31t117.5 -59.5 t61.5 -117t-18.5 -142.5t-124 -137t-252 -101.5q-16 -55 -28.5 -108.5t-26.5 -110.5q59 78 123 111q78 41 153.5 13t132.5 -99q35 -45 54.5 -99.5t27.5 -113.5q45 -2 84 16t66 47q-35 33 -57.5 78t-28.5 97t6 109.5t47 112.5l180 -102q-37 -100 -38 -156.5t21.5 -81 t59.5 -22.5t73 19.5t63.5 47t31.5 60.5q10 -4 40 -20.5t57.5 -37t44 -41t2.5 -30.5q-57 -84 -99 -152q-37 -57 -65.5 -105t-24.5 -52q139 -133 209 -280.5t60 -340.5q-12 -102 -54.5 -187t-102 -143.5t-127 -86t-130.5 -15.5q-45 8 -79 42t-49.5 80t-8 99t42 103.5 t103.5 90.5t175 60q-2 102 -45 177t-92 124t-90 73.5t-41 29.5q10 39 41 94t67.5 116.5t71.5 123t53 110.5q-74 -49 -141.5 -55t-122.5 22q-33 -35 -83 -60.5t-113 -21.5q4 -111 -25 -226.5t-79 -211.5t-114.5 -163.5t-134.5 -82.5q-154 -31 -246 19.5t-139 153t-56 238.5 t4 277.5t40 270.5t53 215q-113 76 -163 180t-49 217zM235.5 316.5q6.5 -60.5 31 -98.5t71.5 -36q31 0 64.5 44t64.5 113t52.5 152.5t29.5 164.5t-1 149.5t-44 105.5q-29 31 -62.5 15.5t-65.5 -61.5t-60.5 -114.5t-48 -144.5t-29 -152.5t-3 -137zM369 1217q113 23 179 67.5 t96 92.5t27 90t-30 59q-18 12 -48 5t-65.5 -42t-76.5 -101.5t-82 -170.5zM1050.5 -341q10.5 -34 34.5 -48q20 -10 47 -4t54.5 36.5t51.5 89t40 152.5q-98 -27 -150.5 -67.5t-70 -82.5t-7 -76z" />
<glyph horiz-adv-x="1546" d="M-1815 1018q23 92 83.5 165.5t141.5 125t173 79t182 27.5q113 0 235.5 -21.5t245.5 -52t243 -64.5t230.5 -61.5t206.5 -43t172 -5.5q25 98 60 193.5t90 177.5q61 90 129.5 129t131 40t115 -29.5t82 -82t30.5 -114t-38 -126t-122.5 -119.5t-225.5 -93l-2 -2 q-16 -51 -24.5 -100.5t-20.5 -100.5q59 78 123 111q78 41 153.5 13t133.5 -99q35 -45 54 -99.5t28 -113.5q45 -2 82.5 16t66.5 47q-35 33 -57.5 78t-28.5 97t6.5 109.5t46.5 112.5l179 -102q-39 -100 -39 -156.5t22.5 -81t59 -22.5t73.5 20.5t64.5 48t32.5 60.5 q10 -4 38.5 -20.5t56 -37t45 -41t3.5 -32.5q-57 -84 -98 -152q-37 -57 -66 -105t-25 -52q139 -133 209 -280.5t58 -340.5q-10 -102 -52 -187t-101.5 -143.5t-127 -86t-131.5 -15.5q-45 8 -79 42t-49 80t-8 99t42 103.5t103.5 91.5t174.5 61q-4 100 -46 175t-92 125t-90 74.5 t-40 29.5q10 37 41 92t68 116.5t70.5 123t52.5 112.5q-72 -51 -140.5 -57t-122.5 22q-35 -35 -84 -60.5t-112 -21.5q4 -111 -24.5 -226.5t-79 -211.5t-116 -163.5t-135.5 -82.5q-147 -29 -238 17.5t-138 139.5t-59.5 220t-3.5 259t31.5 255t43.5 209q-154 0 -311.5 23.5 t-316.5 49t-318.5 43t-319 7.5t-317.5 -59.5t-314 -155.5zM244 316.5q6 -60.5 31.5 -98.5t72.5 -36q31 0 64.5 44t64.5 113t52.5 152.5t29.5 164.5t-2 149.5t-45 105.5q-29 31 -61.5 15.5t-64.5 -61.5t-60.5 -114.5t-49 -144.5t-29.5 -152.5t-3 -137zM367 1200 q106 27 170.5 72t93 92t27.5 89t-23 60q-18 16 -48 11.5t-66 -38.5t-75.5 -103.5t-78.5 -182.5zM1057 -324.5q4 -33.5 24 -52.5q18 -18 47 -18t59 28.5t57.5 90t43.5 163.5q-90 -27 -141 -64.5t-72.5 -75.5t-17.5 -71.5z" />
<glyph horiz-adv-x="1937" d="M-1262 1116q27 92 89.5 163t145.5 120t176 72.5t183 19.5q113 -6 235 -31.5t243.5 -61.5t240.5 -75t228.5 -70.5t205 -50t170.5 -12.5q63 205 144.5 320.5t161 162.5t152.5 37t121 -55t63.5 -116t-17.5 -143.5t-123 -138t-254 -102.5q-35 -106 -57.5 -216t-40.5 -220 q-6 -29 -13.5 -86.5t-10.5 -125t1 -139t21.5 -127t52.5 -88t94 -24.5q86 12 141.5 89t89 180.5t49 215t21.5 193.5q-43 20 -73.5 61t-44 98.5t-5 129t47.5 151.5l178 -102q-35 -96 -43 -158.5t1 -95.5t30.5 -38t45 12.5t43 54t27.5 90.5q10 -4 48 -15.5t78 -29t71 -36 t26 -36.5q-59 -246 -69 -426t35 -279.5t151.5 -108.5t284.5 87l18 -45q-141 -84 -256.5 -108.5t-203 0t-145.5 94t-89 173t-32 237.5t30 288q-55 -25 -111 -12q-4 -51 -10 -127t-19.5 -160t-38 -167t-65.5 -149.5t-101.5 -109.5t-144.5 -45q-123 -4 -205.5 61.5 t-123.5 184.5q-29 -63 -68 -117.5t-86 -91.5t-103.5 -55.5t-119.5 -12.5q-72 6 -118 71.5t-66.5 162t-14.5 212t40 225t94.5 200t150.5 135.5q82 41 162 35.5t135 -76.5q0 -4 4 -8q10 45 20.5 87t22.5 85q-154 6 -310.5 35.5t-314 61.5t-317.5 56.5t-319.5 20.5t-319.5 -47 t-320 -144zM258 403.5q0 -65.5 13.5 -113.5t41.5 -63q57 -29 103.5 14.5t79 122t48 176t12.5 179.5t-28.5 130t-74.5 28q-47 -18 -83 -69.5t-60.5 -119t-38 -143.5t-13.5 -141.5zM924 1212q113 23 179 67t96 91t28 89t-27 61q-18 12 -49 6t-67.5 -40t-77.5 -101t-82 -173z " />
<glyph horiz-adv-x="1929" d="M2 449.5q6 115.5 40 225t94.5 200t150.5 135.5q82 41 162.5 35.5t134.5 -76.5q2 -2 3 -4t3 -4q12 59 26.5 113t30.5 114q-104 78 -149 181.5t-41 215t49 220t119.5 198.5t172 150.5t203.5 74.5q147 18 274.5 -24.5t216.5 -133t131 -217.5t22 -276q-127 217 -257.5 331.5 t-251 150.5t-227 6.5t-189.5 -100.5t-135.5 -170t-64.5 -202.5t20.5 -199t123.5 -158.5q63 190 142 296.5t157.5 147.5t149.5 29t118 -58t61.5 -116t-18.5 -141.5t-124 -136t-253 -101.5q-10 -33 -27.5 -96.5t-35 -144t-33 -173t-23.5 -182.5t-6 -171t20.5 -141.5t54.5 -93 t95 -24.5q86 12 141.5 89t89 180.5t50 215t22.5 193.5q-43 20 -73.5 61t-45 98.5t-5.5 129t46 151.5l181 -102q-35 -96 -43.5 -158.5t1 -95.5t31 -38t44 12.5t43 54t26.5 90.5q12 -4 50 -15.5t78 -29t69.5 -36t25.5 -36.5q-59 -246 -69.5 -426t34.5 -279.5t151.5 -108.5 t285.5 87l18 -45q-141 -84 -256 -108.5t-202 0t-146 94t-89 173t-31 237.5t30 288q-59 -25 -111 -12q-4 -51 -10 -127t-20.5 -160t-39 -167t-65.5 -149.5t-100.5 -109.5t-143.5 -45q-123 -4 -207 61.5t-124 184.5q-29 -63 -68 -117.5t-86 -91.5t-102.5 -55.5t-118.5 -12.5 q-72 6 -119 71.5t-67.5 162t-14.5 212zM250 403.5q0 -65.5 13 -113.5t42 -63q57 -29 104.5 14.5t79 122t47 176t12.5 179.5t-29 130t-75 28q-47 -18 -82.5 -69.5t-60.5 -119t-38 -143.5t-13 -141.5zM918 1212q109 20 174 63.5t96 89.5t31 87t-21 61q-18 16 -48 13.5 t-68 -35.5t-79.5 -100.5t-84.5 -178.5z" />
<glyph horiz-adv-x="1787" d="M2 447.5q6 115.5 40 225t94.5 200t150.5 135.5q82 41 161.5 34.5t133.5 -77.5l6 -7q12 59 26.5 113.5t32.5 114.5q-106 78 -151 181t-41 215t49 220.5t119.5 197.5t172 149.5t205.5 74.5q147 18 274.5 -24.5t216.5 -132t131 -216.5t19 -276q-127 217 -257 331.5 t-250.5 150.5t-227 6.5t-189.5 -100.5t-135.5 -170t-64.5 -202.5t20.5 -199t123.5 -158.5q14 41 27 79t28 72q61 143 136 217t147.5 95.5t136 -1t102.5 -71.5t48 -116.5t-26.5 -135t-123.5 -127t-242 -92.5q-35 -104 -59.5 -217t-38.5 -221q-4 -29 -11.5 -86.5t-10.5 -125 t0 -138t20.5 -126t51.5 -88t93 -24.5q82 12 137.5 83t89 168t51 204.5t23.5 191.5q-49 25 -85 72t-50 106.5t-5 127t50 132.5l180 -104q-39 -98 -39 -154.5t22.5 -82t59.5 -22.5t73 20.5t63.5 47t31.5 60.5q12 -4 41 -20.5t56.5 -37t45 -41t3.5 -32.5q-57 -84 -99 -152 q-37 -57 -65.5 -104t-24.5 -51q139 -135 207.5 -282.5t58.5 -340.5q-12 -102 -54 -187t-100.5 -143.5t-127 -86t-131.5 -15.5q-45 8 -79 42t-49.5 80t-8 100t43 104.5t103.5 90.5t174 60q-2 102 -45 177t-92 124t-90 73.5t-41 29.5q10 39 40.5 94t67.5 115.5t72 122 t53 112.5q-59 -41 -114.5 -52.5t-102.5 1.5q-4 -55 -11 -131t-22.5 -156t-41 -157.5t-65.5 -139t-98.5 -100.5t-138.5 -41q-123 -4 -206 61.5t-126 184.5q-29 -63 -66.5 -118t-84.5 -92.5t-103.5 -56t-119.5 -12.5q-72 8 -118 72.5t-66.5 162t-14.5 213zM250 400.5 q0 -66.5 13 -114.5t42 -63q57 -29 103.5 15.5t79 123t48 176t12.5 179.5t-29 129.5t-75 27.5q-47 -18 -82.5 -69t-60.5 -120t-38 -143.5t-13 -141zM915 1210q113 23 179.5 67t96.5 92t26.5 90t-27.5 59q-18 12 -49 6t-67 -41t-77 -101t-82 -172zM1304.5 -351 q14.5 -34 43.5 -42q20 -6 45.5 3t51 42t47.5 89t36 144q-102 -29 -154.5 -72.5t-68 -86.5t-1 -77z" />
<glyph horiz-adv-x="1783" d="M-1274 1114q27 90 89.5 162t145.5 120t176 72.5t183 20.5q115 -6 235.5 -31.5t243.5 -61.5t242 -76t227.5 -71.5t204.5 -49t172 -11.5q33 106 68 196q61 143 137 217t149.5 94.5t138 -1t104.5 -70.5t50.5 -115.5t-26.5 -134t-126 -127t-247 -94.5q-35 -109 -58.5 -218.5 t-41.5 -219.5q-4 -29 -12.5 -86.5t-11.5 -125t1 -138t21.5 -126t52.5 -88t94 -24.5q82 12 136 83t88 168t51.5 204.5t23.5 191.5q-49 25 -85 72t-50.5 106.5t-4 126t51.5 131.5l178 -102q-39 -98 -39 -155.5t22.5 -82t59.5 -22.5t74 20.5t64.5 48t31.5 60.5q10 -4 40 -20.5 t57.5 -37t44 -41t1.5 -32.5q-57 -84 -98 -152q-37 -57 -65.5 -105t-24.5 -52q139 -133 209 -280.5t57 -340.5q-10 -102 -52 -187t-101.5 -143.5t-127 -86t-130.5 -15.5q-45 8 -79 42t-49.5 80t-8 99t42 103.5t103 91.5t175.5 61q-2 100 -45 175t-92 125t-90 74.5t-41 29.5 q10 37 40.5 92t67.5 116.5t72 123t53 112.5q-59 -41 -114.5 -52.5t-102.5 1.5q-4 -55 -11 -131t-22.5 -156t-41 -157.5t-65.5 -140t-98.5 -101.5t-138.5 -41q-123 -4 -207 62.5t-125 182.5q-29 -63 -67.5 -116.5t-85.5 -91t-102.5 -56t-118.5 -12.5q-72 8 -119 72.5 t-67.5 162t-14.5 213t40 225t94.5 200t150.5 135.5q82 41 161.5 34.5t135.5 -77.5l4 -7q10 41 20 85t23 87q-154 6 -310.5 36t-314.5 62t-317.5 56.5t-319.5 20t-319.5 -47.5t-319.5 -143zM246 399.5q0 -65.5 13 -113.5t42 -63q57 -29 104.5 14.5t79 122t47 177t12.5 180.5 t-29 129.5t-75 27.5q-47 -18 -82.5 -70t-60.5 -120t-38 -143.5t-13 -141zM913 1208q109 23 174.5 66t96 89t30.5 88t-22 60q-18 16 -48 12.5t-67 -36.5t-79 -100.5t-85 -178.5zM1295 -332q5 -35 28 -51q20 -16 48 -13t57.5 31.5t55.5 89t42 160.5q-92 -27 -144.5 -65.5 t-72 -77.5t-14.5 -74z" />
<glyph horiz-adv-x="1679" d="M2 449.5q6 115.5 40 225t94.5 200t150.5 135.5q80 41 157.5 35.5t133.5 -70.5v33.5t2 31.5q49 -10 93 -20t76.5 -20.5t52 -20.5t19.5 -21q-2 -23 -5 -79t-11 -136q53 -6 97 17.5t73 58.5q-37 25 -63.5 66t-37 96t0 122.5t45.5 143.5l178 -102q-35 -96 -43 -158.5t1 -95.5 t30.5 -38t44 12.5t43 54t26.5 90.5q12 -4 50 -15.5t78 -28t69.5 -36t25.5 -37.5q-57 -246 -68.5 -426t35 -279.5t153 -108.5t284.5 87l18 -45q-213 -125 -364.5 -120t-240.5 106.5t-112.5 284t21.5 413.5q-57 -25 -111 -12q-16 -23 -39.5 -44.5t-54.5 -37t-66.5 -22.5 t-76.5 -1q-6 -82 -16.5 -175t-22.5 -190.5t-26.5 -191.5t-33.5 -176q207 18 401.5 -3.5t386 -57t382 -69.5t388.5 -40t408.5 31t440.5 145q-61 -119 -138 -194.5t-163 -118.5t-178.5 -59.5t-181.5 -17.5t-173 10t-153 22q-199 31 -389.5 86t-369.5 106t-348 83t-325 16 q-41 -164 -103.5 -258.5t-128 -134.5t-129 -34.5t-108.5 40t-64.5 90t3 115t92.5 113.5t205 87q12 53 24.5 113.5t22.5 128.5q-57 -76 -133 -119t-168 -33q-72 8 -119 72.5t-67.5 162t-14.5 213zM218 -344q-1 -29 11 -45t36 -15t53.5 25.5t60 78.5t59.5 144 q-78 -25 -125 -58.5t-70.5 -67t-24.5 -62.5zM250 401.5q0 -65.5 13 -113.5t42 -63q57 -29 104.5 15.5t80 123t50 177t13.5 180.5t-30 129t-79 27q-47 -18 -82.5 -70.5t-60.5 -120.5t-38 -143.5t-13 -141z" />
<glyph horiz-adv-x="1730" d="M-141 -502q104 -117 216.5 -168t221.5 -55t206 32t173 92t124 127t54 137.5t-34 120.5t-138 79q-43 -156 -105.5 -244t-127 -124t-127 -28.5t-105.5 43t-61.5 90t4 113t93.5 112.5t204 87q14 51 25.5 112.5t21.5 127.5q-57 -76 -133 -118t-168 -32q-72 6 -118 71.5 t-66.5 162t-14.5 212t40 225t94.5 200t150.5 135.5q78 41 156.5 35.5t132.5 -70.5q2 18 2 34.5v30.5q49 -10 93 -20t77.5 -20.5t52 -20.5t18.5 -21q-4 -102 -12 -204q66 -23 124 0.5t91 64.5q-37 25 -64.5 67t-38 97t0 122.5t45.5 143.5l180 -104q-35 -96 -43 -158.5 t1 -94.5t30.5 -38t44 11.5t43 55t26.5 91.5q12 -4 50 -16.5t78 -29t70 -36t26 -37.5q-57 -246 -68.5 -426t34.5 -278.5t152.5 -108.5t284.5 86l18 -45q-213 -125 -365.5 -120t-240.5 107.5t-111.5 285t21.5 413.5q-55 -25 -111 -14q-18 -25 -46.5 -49.5t-64.5 -40t-79 -18.5 t-92 15q-16 -199 -43 -400.5t-68 -387.5q102 -23 153.5 -79t61 -129t-18.5 -157t-83 -163.5t-131 -148.5t-165 -111t-185.5 -50t-190.5 33q-49 20 -96 57t-85 88.5t-63.5 114t-31.5 133.5zM218 -347q-1 -30 13 -44q12 -16 36 -14t52.5 27.5t59 78.5t59.5 143 q-78 -25 -125 -58.5t-70.5 -68t-24.5 -64.5zM252 401.5q0 -65.5 13.5 -114.5t41.5 -62q43 -20 81 -0.5t67.5 66.5t51 112.5t34 135t14.5 137t-9 117t-36 73.5t-64 8q-47 -18 -82.5 -69t-60 -119t-38 -143.5t-13.5 -141z" />
<glyph horiz-adv-x="1771" d="M-85 1577q1 113 46 224.5t120 202.5t173 153.5t207 76.5q147 18 275 -24.5t217 -131.5t131 -217t20 -276q-129 219 -260 334t-253 149.5t-229.5 2t-189.5 -105.5t-133 -175t-60.5 -206.5t29.5 -200t135 -154.5q29 80 62 157.5t80 149.5q66 94 136.5 135t133.5 41 t116.5 -31.5t82 -83t28.5 -115t-41 -126t-128 -115.5t-232 -86q-31 -92 -61.5 -210t-57 -240.5t-45 -241.5t-27.5 -213q18 53 46 129t61 157.5t68.5 163.5t70.5 146.5t67 104.5t56 40q18 0 48 -7t56.5 -17.5t45 -22.5t16.5 -20q-39 -164 -57.5 -299.5t-13.5 -236.5 t36 -167.5t88 -93.5q63 -29 110.5 1t81.5 94.5t55.5 151.5t34.5 172t19 156.5t8 104.5q-43 20 -73.5 61t-45 98.5t-5 129t46.5 151.5l180 -102q-35 -96 -43 -158.5t1 -95.5t30.5 -38t44 12.5t43 54t26.5 90.5q12 -4 50 -15.5t78 -29t70 -36t26 -36.5q-59 -246 -69.5 -426 t34.5 -279.5t151.5 -108.5t284.5 87l18 -45q-141 -84 -255.5 -108.5t-201.5 0t-146.5 94t-89.5 173t-31 237.5t30 288q-59 -25 -111 -12q-4 -63 -12 -145.5t-21.5 -167.5t-36 -166t-57 -144.5t-83 -102t-113.5 -40.5q-102 -2 -170 40t-108 108.5t-58 145t-25.5 148.5 t-5.5 119t2 57q-59 -98 -111 -255t-124 -376q-10 -12 -36 -13t-54.5 6t-53 23.5t-30.5 39.5q-31 109 -33 254t14.5 298.5t47 300t65.5 257.5q-113 76 -163 180t-49 217zM401 1210q106 20 172 62.5t97.5 87.5t34 86t-18.5 63q-16 18 -46 18.5t-66.5 -28.5t-77.5 -91t-82 -169 z" />
<glyph horiz-adv-x="1777" d="M-1788 1083q27 90 89.5 162t145.5 120t176 72.5t183 20.5q115 -4 235.5 -30.5t243.5 -62.5t242 -75t227.5 -70.5t204.5 -50t172 -12.5q16 53 33.5 103.5t34.5 93.5q63 145 138 220t148.5 96.5t138 -1t104.5 -72t49 -117t-26.5 -135t-125.5 -128t-246 -95.5 q-33 -96 -62.5 -207.5t-54 -226.5t-42 -227.5t-25.5 -210.5q18 53 45.5 129t60.5 157.5t69 163.5t70.5 146.5t66.5 104.5t56 40q18 0 48 -7t56.5 -17.5t45 -22.5t16.5 -20q-39 -164 -56.5 -299.5t-12 -236.5t35 -167.5t86.5 -93.5q63 -29 110.5 1t81.5 94.5t55.5 151.5 t34.5 172t19.5 156.5t8.5 104.5q-43 20 -74 61t-45.5 98.5t-5 129t46.5 151.5l180 -102q-35 -96 -43 -158.5t1 -95.5t30.5 -38t44 12.5t43 54t26.5 90.5q12 -4 50 -15.5t78 -29t70 -36t26 -36.5q-59 -246 -69.5 -426t34.5 -279.5t152.5 -108.5t285.5 87l19 -45 q-141 -84 -257 -108.5t-203 0t-146.5 94t-89 173t-31 237.5t29.5 288q-57 -25 -110 -12q-4 -63 -12.5 -145.5t-22 -167.5t-36 -166t-57 -144.5t-82.5 -102t-114 -40.5q-102 -2 -170 40t-107.5 108.5t-58 145t-25 148.5t-4 119t2.5 57q-59 -98 -112.5 -255t-125.5 -376 q-10 -12 -35.5 -13t-54.5 6t-53.5 23.5t-30.5 39.5q-31 109 -35 240.5t9.5 270t41 273.5t60.5 246q-154 6 -310.5 35.5t-314.5 61.5t-317.5 56.5t-319.5 20.5t-319.5 -47t-319.5 -144zM399 1180q113 23 179.5 67.5t95 91.5t25.5 89t-27 59q-20 12 -50 5t-66 -41t-77 -100.5 t-80 -170.5z" />
<glyph horiz-adv-x="1638" d="M-80 1575q0 113 44 224.5t119 202.5t174 153.5t208 76.5q147 18 275 -24.5t217.5 -131.5t131 -216t19.5 -277q-129 219 -260 334t-254 149.5t-230.5 2t-189.5 -106.5t-133 -176.5t-59.5 -206.5t30.5 -199.5t138 -154.5q14 43 27 84t30 75q63 145 138 220t148.5 96.5 t137 -1t104.5 -71.5t49.5 -116.5t-27.5 -135t-126 -128t-246 -95.5q-33 -98 -63.5 -214t-56 -235.5t-44 -236.5t-26.5 -217q18 53 45.5 129t60.5 157.5t69 162.5t70.5 145.5t66.5 104.5t56 42q18 0 48 -8t56.5 -18.5t45 -21.5t16.5 -19q-39 -164 -57.5 -299.5t-13 -237.5 t36 -168.5t87.5 -93.5q59 -27 104.5 -1t78 83t55 136t37 161t21.5 154.5t12 117.5q-49 25 -84 72t-49.5 106.5t-5 126t49.5 131.5l181 -104q-39 -98 -39 -154.5t22.5 -82t59.5 -22.5t73.5 20.5t64.5 47t32 60.5q10 -4 38.5 -20.5t56.5 -37t45 -41t3 -30.5q-57 -84 -98 -152 q-37 -57 -65.5 -105t-24.5 -52q137 -133 207.5 -281.5t58.5 -339.5q-12 -102 -54 -187t-100.5 -143.5t-126 -86t-131.5 -15.5q-45 8 -78.5 41t-49 79t-8.5 100t42 104.5t103.5 90.5t175.5 60q-4 102 -46.5 177t-92.5 124t-90 73.5t-40 29.5q10 39 41 94t68 115.5t70.5 122 t52.5 112.5q-59 -41 -115.5 -51t-103.5 2q-6 -66 -14.5 -145.5t-23 -160.5t-37 -157t-56 -136.5t-81 -96t-110.5 -37.5q-102 -4 -170 39t-107.5 109.5t-58 144t-26 147.5t-5.5 119t2 57q-59 -96 -111 -253t-124 -376q-10 -12 -35.5 -14t-54.5 5t-53.5 23.5t-30.5 39.5 q-33 115 -35 258t15.5 292.5t49 294t68.5 265.5q-115 76 -165 180t-50 217zM406 1210q119 25 185 71t94 95t21.5 90t-34.5 56q-20 10 -49 2t-63 -40t-69.5 -91.5t-72.5 -153.5zM1149 -325.5q4 -34.5 22 -53.5q18 -18 47 -17t60 28.5t58.5 89t43.5 163.5q-90 -25 -141 -62.5 t-72.5 -75.5t-17.5 -72.5z" />
<glyph horiz-adv-x="1636" d="M-1792 1083q27 90 89.5 162t145 120t176 71.5t183.5 19.5q113 -6 234.5 -31.5t243.5 -60.5t241 -75t228.5 -71.5t205.5 -49t172 -11.5q16 53 33.5 102.5t34.5 94.5q63 145 138 219t148.5 95.5t138 -1t104.5 -72t49 -117t-26.5 -135t-125.5 -128t-246 -95.5 q-31 -94 -60.5 -205.5t-54 -227.5t-42 -228.5t-25.5 -210.5q18 53 45.5 129t60.5 157.5t68.5 163.5t70.5 146.5t67 104.5t56 40q18 0 48 -7t56.5 -17.5t45 -21.5t16.5 -19q-39 -164 -57.5 -299.5t-13 -237.5t36 -168.5t87.5 -93.5q59 -27 104.5 -1t78 83t55 136t36 161 t20.5 154.5t11 117.5q-49 25 -83.5 72t-48 106.5t-4.5 126t50 131.5l181 -104q-39 -98 -39 -154.5t22.5 -82t59.5 -22.5t72.5 20.5t63 47t32.5 60.5q12 -4 40.5 -20.5t56.5 -37t45 -41t3 -30.5q-57 -84 -98 -152q-37 -57 -66 -105t-24 -52q139 -135 207.5 -282.5 t58.5 -340.5q-12 -102 -54 -186t-100.5 -142.5t-126 -87t-131.5 -16.5q-45 8 -78.5 42t-49 80t-9.5 100t42 104.5t103.5 90.5t173.5 60q-2 102 -45 177t-92 124t-90 73.5t-41 29.5q10 39 42 94t69 115.5t70.5 122t52.5 112.5q-59 -41 -115.5 -52.5t-104.5 3.5 q-6 -66 -14 -145.5t-22.5 -160.5t-37 -158t-57 -136.5t-82 -96t-110.5 -38.5q-102 -2 -170 41t-108 108.5t-58 144t-24.5 148.5t-4.5 119t2 57q-59 -98 -112 -254t-125 -377q-10 -12 -36 -13t-53.5 6t-52 23.5t-30.5 39.5q-29 102 -33 234t8.5 272.5t39 276.5t59.5 247 q-154 6 -310.5 35.5t-314.5 62.5t-317.5 57.5t-319.5 20.5t-319.5 -47t-319.5 -144zM393 1178q119 25 186.5 71.5t95 97t19.5 92.5t-39 52q-20 6 -50 -4t-63.5 -46t-71.5 -100.5t-77 -162.5zM1147 -312.5q0 -33.5 14 -54.5q16 -25 45 -29.5t60.5 22t61.5 87.5t48 172 q-84 -25 -133 -58.5t-72.5 -69.5t-23.5 -69.5z" />
<glyph horiz-adv-x="1579" d="M-305 -489q102 -115 213.5 -166.5t219.5 -56.5t205 29t173 89t125 124t58 135.5t-26.5 121.5t-127.5 82q-45 -147 -106.5 -230t-126 -116t-125 -22.5t-102.5 46t-58.5 90t6 112.5t93 110.5t201.5 85.5q31 117 52.5 264t36 293.5t21.5 275.5t7 209q49 -10 93 -20.5 t78 -20.5t53.5 -20.5t19.5 -20.5q-4 -39 -5 -76.5t-5 -78.5q63 -20 118.5 3t85.5 64q-37 25 -63.5 67t-36.5 97t0 122.5t45 143.5l178 -102q-51 -145 -45 -214t36 -78t67 34t47 123q10 -4 48 -16.5t78 -29t70.5 -36t26.5 -37.5q-59 -246 -69.5 -426t34.5 -278.5 t151.5 -107.5t284.5 87l19 -45q-141 -84 -257 -108.5t-203 0t-145.5 94t-88 173t-30.5 237.5t30 288q-57 -25 -113 -14q-18 -25 -46 -48.5t-62.5 -39t-75.5 -19.5t-88 12q-16 -195 -44 -391t-69 -379q0 -4 -1 -5t-1 -3q96 -27 143 -83t53.5 -130t-22.5 -158t-84 -161.5 t-131 -144t-165 -107.5t-184.5 -49.5t-187.5 32.5q-49 20 -96 57.5t-85 88.5t-63.5 113.5t-31.5 134.5zM81 -307.5q-3 -28.5 7 -46.5q12 -18 35.5 -19.5t53.5 23t61.5 80t60.5 147.5q-76 -25 -122 -56.5t-69.5 -65.5t-26.5 -62.5zM477 1257q-8 92 25 205q72 -12 117 -29.5 t69.5 -36t32.5 -34.5t8 -27q-8 -68 -22.5 -155.5t-22.5 -155.5q-57 6 -96 28.5t-62.5 55.5t-35 72t-13.5 77z" />
<glyph horiz-adv-x="1589" d="M8.5 -366.5q-18.5 55.5 4 113.5t93 112.5t203.5 87.5q31 117 52.5 263t36 292.5t21.5 275.5t7 211q49 -10 93 -21.5t78 -21.5t53.5 -20.5t19.5 -20.5q-2 -37 -4 -75.5t-7 -77.5q63 -23 120 1.5t87 65.5q-37 25 -63.5 66t-36.5 97t0 124t45 143l180 -104 q-35 -96 -43 -158.5t1 -94.5t30.5 -38t44.5 11.5t43 55t27 91.5q12 -4 50 -16.5t78 -29t69.5 -36t25.5 -37.5q-59 -246 -69.5 -426t34.5 -279.5t152.5 -108.5t285.5 87l19 -45q-213 -125 -365.5 -120t-241 107.5t-112 285t21.5 411.5q-29 -12 -56.5 -14.5t-53.5 2.5 q-18 -25 -46 -48.5t-64 -39t-78 -19.5t-89 12q-16 -186 -40.5 -371.5t-63.5 -359.5q172 12 335 -2t321.5 -41.5t316 -58.5t319.5 -51q45 -4 91 -8.5t94 -8.5q211 -10 434 25t469 149q-84 -164 -198 -246.5t-237.5 -115.5t-247.5 -28t-231 20q-20 4 -38.5 6t-36.5 6 q-25 4 -48.5 8t-48.5 8q-180 35 -353 86.5t-337 97.5t-319.5 74.5t-298.5 18.5q-43 -158 -104.5 -248t-127 -127t-128 -30t-106.5 42t-62.5 90.5zM71 -314.5q-1 -29.5 13 -43.5q12 -14 35.5 -13.5t52.5 27.5t59.5 80t59.5 143q-78 -25 -125 -59.5t-70.5 -69.5t-24.5 -64.5z M469 1257q-8 92 25 205q72 -12 116.5 -28.5t69.5 -35t33 -34.5t8 -27q-6 -70 -20.5 -156.5t-24.5 -154.5q-57 6 -96 28.5t-62.5 54.5t-35 71t-13.5 77z" />
<glyph horiz-adv-x="1703" d="M-1780 1114q27 92 89.5 163t145.5 120t176 72.5t183 19.5q113 -6 234 -31.5t242.5 -60.5t239.5 -74t227.5 -71.5t204.5 -51t171 -12.5q61 205 141 321.5t161 163.5t155 37t123 -55t66.5 -116t-15.5 -144.5t-123 -139t-256 -102.5q-33 -98 -63.5 -214t-56 -234.5 t-44 -236.5t-26.5 -218q18 53 45.5 129t60.5 157.5t69 163.5t70.5 146.5t66.5 104.5t56 40q39 2 57.5 0t38.5 -2q-41 -45 -77 -98q-33 -45 -69 -104.5t-64 -124.5q-6 -68 4 -140.5t33.5 -139.5t60.5 -123t84 -93q59 -47 110.5 -26.5t93.5 80t75.5 145.5t56 172t36 160.5 t15.5 109.5q-43 20 -74 62t-44 99.5t-4 129t46 151.5l178 -104q-51 -145 -45 -214t36 -77t66.5 35t47.5 123q10 -4 48 -16.5t78 -29t70.5 -36t26.5 -37.5q-59 -246 -69.5 -426t34.5 -279.5t151.5 -108.5t284.5 87l19 -45q-213 -125 -364.5 -120t-240.5 107.5t-112 284.5 t23 412q-53 -23 -113 -12q-2 -27 -9.5 -93.5t-22.5 -151.5t-41.5 -176t-67.5 -168t-97.5 -128t-132.5 -53q-82 -4 -142.5 20.5t-105.5 65.5t-76.5 95t-52.5 111q-25 -70 -50 -144.5t-52 -156.5q-4 -12 -29.5 -14t-55.5 6t-56.5 24.5t-32.5 39.5q-31 106 -33 244.5 t13.5 282.5t42 283.5t57.5 249.5q-154 6 -310.5 36t-314.5 62t-316.5 56.5t-318.5 20t-319.5 -47.5t-317.5 -143zM406 1210q109 20 174 62.5t96 88.5t31 88t-21 62q-16 16 -46 13.5t-67.5 -34.5t-80.5 -99.5t-86 -180.5z" />
<glyph horiz-adv-x="1708" d="M-18.5 1601.5q8.5 108.5 54.5 215t120.5 192.5t170 143.5t199.5 71.5q147 20 274.5 -22.5t216.5 -133t131 -217.5t21 -276q-125 213 -251.5 326.5t-245.5 151.5t-225.5 12.5t-189.5 -92t-137 -162t-71.5 -197t8 -197.5t103.5 -164q10 35 22.5 68t24.5 63q63 145 138 220 t148.5 96.5t137 -1t104.5 -71.5t49.5 -116.5t-27.5 -135t-126 -128t-246 -95.5q-31 -96 -61.5 -212t-55 -236.5t-43 -238.5t-26.5 -216q18 53 45.5 129t60.5 157.5t69 163.5t70.5 146.5t65.5 104.5t55 40q41 2 60 0t39 -2q-41 -45 -78 -98q-33 -45 -70 -104.5t-65 -124.5 q-6 -68 4 -140.5t34.5 -139.5t61.5 -123t84 -93q59 -47 110.5 -26.5t93.5 80t74.5 145.5t56 172t37 160.5t15.5 109.5q-43 20 -73.5 62t-45 99.5t-5.5 129t46 151.5l180 -104q-35 -96 -43 -158.5t1.5 -94.5t31 -38t44 11.5t43 55t26.5 91.5q12 -4 50 -16.5t78 -29t69.5 -36 t25.5 -37.5q-59 -246 -69.5 -426t34.5 -279.5t152.5 -108.5t285.5 87l19 -45q-213 -125 -365.5 -120t-240.5 107.5t-112 284.5t22 412q-29 -12 -56.5 -14.5t-54.5 2.5q-2 -27 -9 -93.5t-22.5 -151.5t-42 -176t-67.5 -168t-98.5 -128t-133.5 -53q-80 -4 -141.5 20.5 t-106.5 65.5t-76.5 95t-52.5 111q-25 -70 -50 -144.5t-52 -156.5q-4 -12 -29.5 -14t-55.5 6t-55.5 24.5t-31.5 39.5q-35 119 -37 266t16.5 301t52 301t72.5 268q-94 82 -133 184.5t-30.5 211zM406 1210q98 18 160.5 55.5t96 79t42 81.5t-4.5 67q-12 27 -41.5 33t-69.5 -22.5 t-88 -98.5t-95 -195z" />
<glyph horiz-adv-x="1574" d="M-1784 1114q27 90 89.5 162t145.5 120t176 72.5t183 20.5q113 -6 234.5 -31.5t243.5 -61.5t241 -75t227.5 -70.5t204.5 -50t172 -12.5q16 53 33.5 103t36.5 93q63 145 138 220t148.5 96.5t137 -1t104.5 -71.5t49 -116.5t-27.5 -135t-125.5 -128t-246 -95.5 q-33 -98 -63.5 -214t-55 -235.5t-43 -236.5t-26.5 -217q18 53 45.5 129t60.5 157.5t68.5 163.5t70.5 146.5t66 104.5t55 40q41 2 59.5 0t38.5 -2q-41 -45 -77 -98q-33 -45 -70 -104.5t-66 -124.5q-6 -68 4.5 -140.5t35 -139.5t61.5 -124t84 -94q55 -43 104 -26.5t90 69.5 t74 133t56.5 163t38 158.5t20.5 120.5q-45 27 -77 74t-44 105.5t-1 123t50 127.5l178 -104q-37 -98 -38 -154.5t21.5 -82t59.5 -22.5t74 20.5t64.5 47t31.5 60.5q10 -4 40 -20.5t57.5 -37t44 -41t2.5 -30.5q-57 -84 -99 -152q-37 -57 -65.5 -105t-24.5 -52 q137 -133 208 -281.5t58 -339.5q-10 -102 -52 -187t-101.5 -143.5t-127 -86t-130.5 -15.5q-45 8 -79 42t-49.5 80t-8 99t42 103.5t103.5 90.5t175 60q-4 102 -46 177t-92 124t-90 73.5t-40 29.5q10 39 40.5 94t67.5 115.5t71 122t52 112.5q-63 -43 -121.5 -52t-109.5 7 q-4 -41 -12.5 -110.5t-26 -151.5t-45 -166t-67.5 -152.5t-94 -113.5t-126 -47q-82 -4 -142.5 19.5t-105.5 65.5t-76.5 96t-52.5 109q-25 -68 -50.5 -142.5t-51.5 -156.5q-4 -12 -29.5 -14t-55.5 6t-56.5 24.5t-32.5 39.5q-29 104 -32 240t11.5 280.5t42 285t60.5 254.5 q-154 6 -310.5 36t-314.5 62t-316.5 56.5t-318.5 20t-319.5 -47.5t-319.5 -143zM401 1210q117 23 184.5 70t95.5 96t21.5 91t-34.5 55q-20 8 -50 -2.5t-66 -45t-74 -99.5t-77 -165zM1085.5 -324.5q4.5 -33.5 22.5 -52.5q18 -18 47 -19t59.5 27.5t58.5 89t44 164.5 q-90 -25 -141.5 -61.5t-73 -75.5t-17 -72.5z" />
<glyph horiz-adv-x="1574" d="M-25.5 1601.5q7.5 108.5 54.5 214t120.5 192.5t169 144.5t199.5 71.5q147 18 275.5 -24.5t217.5 -132t131 -216.5t19 -276q-125 213 -252 326.5t-245.5 151.5t-224 12.5t-188.5 -92t-138.5 -162t-71.5 -197t9.5 -197.5t103.5 -164q20 66 47 131q63 145 138 220 t148.5 96.5t137 -1t104.5 -71.5t49 -116.5t-27.5 -135t-125.5 -128t-246 -95.5q-31 -96 -61.5 -212t-55 -236.5t-43 -238.5t-26.5 -216q18 53 45.5 129t59.5 157.5t68.5 163.5t70.5 146.5t66 104.5t56 40q41 2 59.5 0t38.5 -2q-41 -45 -77 -98q-33 -45 -70 -104.5 t-66 -124.5q-6 -68 4.5 -140.5t35 -139.5t60.5 -124t83 -94q57 -43 106 -26.5t90 69.5t74 133t56.5 163t38 158.5t20.5 120.5q-45 27 -77 74t-44 105.5t-1 123t50 127.5l178 -104q-37 -98 -38 -154.5t21.5 -82t59.5 -22.5t74 20.5t64.5 47t31.5 60.5q10 -4 39 -20.5 t56.5 -37t45 -41t3.5 -30.5q-57 -84 -99 -152q-37 -57 -65.5 -105t-24.5 -52q137 -133 208 -281.5t58 -339.5q-10 -102 -52 -187t-101.5 -143.5t-127 -86t-130.5 -15.5q-45 8 -79 42t-49.5 80t-8 99t42 103.5t103.5 90.5t175 60q-4 102 -46 177t-92 124t-90 73.5t-40 29.5 q10 39 40.5 94t67.5 115.5t71 122t52 112.5q-63 -43 -122.5 -52t-108.5 7q-4 -41 -13.5 -110.5t-27 -151.5t-44 -166t-66.5 -152.5t-94 -113.5t-126 -47q-82 -4 -142.5 19.5t-105.5 65.5t-76.5 96t-52.5 109q-25 -68 -50.5 -142.5t-51.5 -156.5q-4 -12 -29.5 -14t-55.5 6 t-56.5 24.5t-32.5 39.5q-31 113 -33 261t16.5 304t51 305t69.5 266q-94 80 -132 183.5t-30.5 212zM399 1208q117 25 184.5 71t95.5 95t21.5 91t-34.5 57q-20 8 -49 -1.5t-65 -44t-75 -100.5t-78 -168zM1085.5 -326.5q4.5 -33.5 24.5 -52.5q18 -18 47 -17t58.5 29.5t57.5 89 t44 162.5q-92 -25 -143.5 -62.5t-72 -76.5t-16 -72.5z" />
<glyph horiz-adv-x="1396" d="M-1800 1077q27 92 89 164t145 120t176.5 71.5t183.5 19.5q113 -6 234.5 -31.5t243.5 -61.5t240.5 -75t228 -70.5t205 -50t171.5 -12.5q16 53 34.5 103.5t34.5 93.5q72 164 158 238.5t167 85.5t145.5 -29.5t93 -107.5t9 -146.5t-107.5 -149.5l162 -94q-35 -96 -43 -158.5 t1 -94.5t30.5 -38t44 11.5t43 55t26.5 91.5q12 -4 50.5 -16.5t78 -29t69.5 -36t26 -37.5q-57 -246 -68.5 -426t34.5 -278.5t152.5 -107.5t284.5 87l19 -47q-213 -125 -366 -120t-241 107.5t-111.5 284.5t21.5 414q-55 -24 -110 -14q-4 -61 -16.5 -145.5t-35 -174.5 t-55.5 -177t-78 -154.5t-103 -107.5t-130 -34q-96 8 -166 61.5t-110 144.5t-52 213t4 267h2q10 104 34 206.5t52 201.5q-154 6 -310.5 35.5t-314 62.5t-317 56.5t-319.5 19.5t-319.5 -46t-319.5 -145zM240.5 323.5q15.5 -133.5 61.5 -183.5t111.5 -25.5t128 113.5 t110.5 236.5t59 342.5q-41 18 -71 57t-44 92.5t-10.5 119t32.5 141.5q-47 -31 -108 -56.5t-143 -44.5v-2q-25 -88 -48.5 -177t-39.5 -179q-4 -18 -7.5 -38t-7.5 -36q-39 -227 -23.5 -360.5zM385 1174q106 20 171 61t96.5 86t34.5 86t-15 63q-16 20 -47 19.5t-69 -32.5 t-82 -100t-89 -183z" />
<glyph horiz-adv-x="1396" d="M-65.5 1560.5q4.5 110.5 49.5 219t119.5 196.5t172 148.5t203.5 75.5q147 18 274.5 -25t216.5 -132t131 -217t21 -276q-127 217 -256 331t-249.5 150.5t-227 8t-189.5 -99t-136.5 -169t-66.5 -202t18.5 -199.5t119.5 -160q12 37 25.5 72t25.5 70q72 164 159 238.5t168 85 t145.5 -29.5t92 -108t7 -147.5t-108.5 -149.5l166 -96q-35 -96 -43 -158.5t1 -94.5t30.5 -38t44 11.5t43 55t27.5 91.5q10 -4 48 -16.5t77.5 -29t70.5 -36t27 -37.5q-59 -246 -69.5 -426t34.5 -278.5t151.5 -107.5t284.5 87l19 -47q-213 -125 -365 -120t-240 107.5 t-111.5 284.5t21.5 414q-57 -24 -110 -14q-4 -61 -17.5 -145.5t-36 -174.5t-55.5 -177t-78 -154.5t-103 -107.5t-130 -34q-92 6 -158.5 56t-107.5 133t-56.5 195t-5.5 245q10 135 41 270t72 264q-104 78 -147.5 182.5t-39 215zM245.5 283.5q20.5 -115.5 68.5 -155.5 t111.5 -9t124 121t105.5 234t56 333q-41 20 -71 58t-44 92.5t-9 121t36 142.5q-47 -31 -109.5 -56.5t-144.5 -44.5l-2 -2q-35 -129 -67 -257t-48 -261q-27 -201 -6.5 -316.5zM387 1176q113 23 178.5 67.5t95 91.5t27.5 89t-26 59q-18 14 -49 8t-67 -40t-77 -101.5 t-82 -173.5z" />
<glyph horiz-adv-x="1275" d="M-1796 1079q27 92 89 163t145 120t176.5 72.5t183.5 19.5q113 -6 232.5 -31.5t240.5 -60.5t239.5 -74t227 -70.5t205 -51t172.5 -13.5q16 51 34.5 100.5t40.5 98.5q63 143 138 218t148 95.5t137.5 -2.5t104.5 -72t49 -115.5t-26.5 -135t-126 -128t-245.5 -94.5 q-72 -215 -109 -438q-39 -225 -24.5 -357.5t59.5 -184.5t110.5 -28.5t128 110.5t111 231.5t60.5 334.5q-43 29 -74 76t-41 103.5t1 120t48 124.5l180 -104q-39 -98 -39 -154.5t22.5 -82t59.5 -22.5t73 20.5t63.5 47t31.5 60.5q12 -4 41 -20.5t56.5 -37t45 -41t3.5 -30.5 l-99 -152q-37 -57 -65.5 -105t-24.5 -52q137 -133 207 -280.5t59 -340.5q-12 -102 -54 -187t-101.5 -143.5t-127 -86t-130.5 -15.5q-45 8 -79 42t-49.5 80t-8 99t42 103.5t103.5 90.5t175 60q-2 102 -45 177t-92 124t-90 73.5t-41 28.5q10 39 40.5 94.5t67.5 116t72 122 t53 112.5q-66 -45 -127 -53.5t-114 10.5q-6 -63 -19.5 -146t-37 -170.5t-56.5 -170t-77 -147t-101.5 -101.5t-126.5 -31q-117 8 -185.5 71.5t-102.5 160t-38 215t8.5 237.5t37 227.5t46.5 186.5q-154 6 -309.5 36.5t-313 62.5t-316 55.5t-317.5 19.5t-318.5 -47t-317.5 -144 zM389 1176q111 23 177.5 66.5t96 90.5t28.5 88t-25 60q-18 14 -49 9t-68 -39t-78 -101.5t-82 -173.5zM785 -318.5q1 -33.5 18 -54.5q16 -23 46 -24.5t60.5 25t60.5 88t46 167.5q-86 -25 -136.5 -59.5t-73 -71.5t-21.5 -70.5z" />
<glyph horiz-adv-x="1273" d="M-98 1574q0 112 44 223.5t118.5 203.5t174 154.5t207.5 76.5q147 18 275.5 -24.5t217.5 -131.5t131 -216t20 -277q-129 219 -260.5 334t-254 149.5t-230 2t-189.5 -106.5t-133.5 -176.5t-59.5 -206.5t31 -199.5t137 -154.5q14 43 28.5 83t28.5 76q63 145 138 220 t149 96.5t137.5 -1t104.5 -71.5t49 -116.5t-28 -135t-125.5 -128t-245.5 -95.5q-25 -84 -48.5 -176t-43 -187.5t-33 -189.5t-15.5 -182q-2 -143 29 -218t80 -90.5t108.5 25.5t112.5 130t94 221t51 302q-43 29 -73.5 76t-40.5 103.5t1 120t48 124.5l180 -104 q-39 -98 -39 -154.5t22.5 -82t59.5 -22.5t73 20.5t63.5 47t31.5 60.5q12 -4 41 -20.5t56.5 -37t45 -41t3.5 -30.5l-99 -152q-37 -57 -65.5 -105t-24.5 -52q137 -133 207 -280.5t59 -340.5q-12 -102 -54 -187t-101.5 -143.5t-127 -86t-130.5 -15.5q-45 8 -79 42t-49.5 80 t-8 99t42 103.5t103 90.5t175.5 60q-2 102 -45 177t-92 124t-90 73.5t-41 29.5q10 39 40.5 94t67.5 115.5t72 122t53 112.5q-66 -45 -127 -53t-115 10q-6 -63 -19 -146t-36.5 -170.5t-56.5 -170t-77 -147t-101.5 -101.5t-126.5 -31q-98 8 -169 64.5t-111 151.5t-50 223 t12 280q16 117 44 232.5t63 226.5q-115 76 -165 180t-50 216zM387 1208q111 23 177.5 66t96 90t28.5 88t-23 61q-18 14 -47 12.5t-65 -32.5t-76 -92.5t-79 -161.5zM783 -331q5 -34 28 -52q20 -16 48 -13t57.5 31.5t55.5 89t42 160.5q-92 -27 -144.5 -64.5t-72 -77.5 t-14.5 -74z" />
</font>
</defs>
</svg>
